<svg width="144" height="129" viewBox="0 0 144 129" fill="none" xmlns="http://www.w3.org/2000/svg">
<mask id="mask0_3_19073" style="mask-type:luminance" maskUnits="userSpaceOnUse" x="0" y="0" width="144" height="129">
<path d="M-1.49012e-08 0H143.729V129H-1.49012e-08V0Z" fill="white"/>
</mask>
<g mask="url(#mask0_3_19073)">
<mask id="mask1_3_19073" style="mask-type:luminance" maskUnits="userSpaceOnUse" x="-60" y="-82" width="716" height="989">
<path d="M655.008 -81.8904H-60V906.719H655.008V-81.8904Z" fill="black" fill-opacity="0.13"/>
</mask>
<g mask="url(#mask1_3_19073)">
<mask id="mask2_3_19073" style="mask-type:luminance" maskUnits="userSpaceOnUse" x="0" y="0" width="144" height="129">
<path d="M144 0H0V129H144V0Z" fill="white"/>
</mask>
<g mask="url(#mask2_3_19073)">
<mask id="mask3_3_19073" style="mask-type:luminance" maskUnits="userSpaceOnUse" x="40" y="74" width="4" height="19">
<path d="M40 74.3479H44V92.5903H40V74.3479Z" fill="white"/>
</mask>
<g mask="url(#mask3_3_19073)">
<mask id="mask4_3_19073" style="mask-type:luminance" maskUnits="userSpaceOnUse" x="-55" y="-65" width="200" height="195">
<path d="M144.359 -37.2918L116.526 129.374L-55 102.015L-27.1667 -64.6504L144.359 -37.2918Z" fill="white"/>
</mask>
<g mask="url(#mask4_3_19073)">
<mask id="mask5_3_19073" style="mask-type:luminance" maskUnits="userSpaceOnUse" x="-55" y="-65" width="200" height="195">
<path d="M144.359 -37.2918L116.526 129.374L-55 102.015L-27.1667 -64.6504L144.359 -37.2918Z" fill="white"/>
</mask>
<g mask="url(#mask5_3_19073)">
<path d="M40.6855 91.6686C40.399 86.1002 44.123 81.0713 42.972 75.4775C42.9563 75.4011 42.8365 75.4113 42.847 75.4927C43.3886 81.1222 39.2115 86.0798 40.1334 91.7297C40.1907 92.0707 40.7063 92.0198 40.6855 91.6686Z" fill="#FFF8EF"/>
</g>
</g>
</g>
<mask id="mask6_3_19073" style="mask-type:luminance" maskUnits="userSpaceOnUse" x="68" y="54" width="3" height="7">
<path d="M68 54.9526H70.6667V60.1648H68V54.9526Z" fill="white"/>
</mask>
<g mask="url(#mask6_3_19073)">
<mask id="mask7_3_19073" style="mask-type:luminance" maskUnits="userSpaceOnUse" x="-55" y="-65" width="200" height="195">
<path d="M144.359 -37.2921L116.526 129.374L-55 102.015L-27.1667 -64.6506L144.359 -37.2921Z" fill="white"/>
</mask>
<g mask="url(#mask7_3_19073)">
<mask id="mask8_3_19073" style="mask-type:luminance" maskUnits="userSpaceOnUse" x="-55" y="-65" width="200" height="195">
<path d="M144.359 -37.2921L116.526 129.374L-55 102.015L-27.1667 -64.6506L144.359 -37.2921Z" fill="white"/>
</mask>
<g mask="url(#mask8_3_19073)">
<path d="M69.3103 59.6809C68.904 58.4746 68.503 57.2683 68.0968 56.062C68.0759 56.0009 67.9822 56.0365 68.003 56.0976C68.3676 57.3192 68.7374 58.5408 69.102 59.7624C69.1436 59.8998 69.3572 59.8184 69.3103 59.6809Z" fill="#FFF8EF"/>
</g>
</g>
</g>
<mask id="mask9_3_19073" style="mask-type:luminance" maskUnits="userSpaceOnUse" x="69" y="61" width="3" height="4">
<path d="M69 61.4177H71.6667V64.0238H69V61.4177Z" fill="white"/>
</mask>
<g mask="url(#mask9_3_19073)">
<mask id="mask10_3_19073" style="mask-type:luminance" maskUnits="userSpaceOnUse" x="-55" y="-65" width="200" height="195">
<path d="M144.359 -37.2918L116.526 129.374L-55 102.015L-27.1667 -64.6504L144.359 -37.2918Z" fill="white"/>
</mask>
<g mask="url(#mask10_3_19073)">
<mask id="mask11_3_19073" style="mask-type:luminance" maskUnits="userSpaceOnUse" x="-55" y="-65" width="200" height="195">
<path d="M144.359 -37.2918L116.526 129.374L-55 102.015L-27.1667 -64.6504L144.359 -37.2918Z" fill="white"/>
</mask>
<g mask="url(#mask11_3_19073)">
<path d="M70.7011 62.8593C70.5188 62.3809 70.3 61.9177 70.0969 61.4494C70.0709 61.3883 69.9823 61.424 70.0031 61.485C70.1594 61.9686 70.3052 62.4623 70.4875 62.9408C70.5396 63.0731 70.7531 62.9917 70.7011 62.8593Z" fill="#FFF8EF"/>
</g>
</g>
</g>
<mask id="mask12_3_19073" style="mask-type:luminance" maskUnits="userSpaceOnUse" x="70" y="63" width="3" height="8">
<path d="M70 63.573H72.6667V70.0881H70V63.573Z" fill="white"/>
</mask>
<g mask="url(#mask12_3_19073)">
<mask id="mask13_3_19073" style="mask-type:luminance" maskUnits="userSpaceOnUse" x="-56" y="-65" width="200" height="195">
<path d="M143.359 -37.2916L115.526 129.374L-56 102.016L-28.1667 -64.6501L143.359 -37.2916Z" fill="white"/>
</mask>
<g mask="url(#mask13_3_19073)">
<mask id="mask14_3_19073" style="mask-type:luminance" maskUnits="userSpaceOnUse" x="-56" y="-65" width="200" height="195">
<path d="M143.359 -37.2916L115.526 129.374L-56 102.016L-28.1667 -64.6501L143.359 -37.2916Z" fill="white"/>
</mask>
<g mask="url(#mask14_3_19073)">
<path d="M70.9714 68.9126C70.763 67.5027 70.4974 66.108 70.1797 64.7236C70.1536 64.6167 69.9766 64.632 70.0026 64.7388C70.2995 66.1335 70.5391 67.5281 70.7266 68.9381C70.7422 69.0959 70.9974 69.0704 70.9714 68.9126Z" fill="#FFF8EF"/>
</g>
</g>
</g>
<mask id="mask15_3_19073" style="mask-type:luminance" maskUnits="userSpaceOnUse" x="62" y="51" width="6" height="9">
<path d="M62 51.7202H67.3333V59.5384H62V51.7202Z" fill="white"/>
</mask>
<g mask="url(#mask15_3_19073)">
<mask id="mask16_3_19073" style="mask-type:luminance" maskUnits="userSpaceOnUse" x="-56" y="-65" width="200" height="195">
<path d="M143.359 -37.2918L115.526 129.374L-56 102.015L-28.1667 -64.6504L143.359 -37.2918Z" fill="white"/>
</mask>
<g mask="url(#mask16_3_19073)">
<mask id="mask17_3_19073" style="mask-type:luminance" maskUnits="userSpaceOnUse" x="-56" y="-65" width="200" height="195">
<path d="M143.359 -37.2918L115.526 129.374L-56 102.015L-28.1667 -64.6504L143.359 -37.2918Z" fill="white"/>
</mask>
<g mask="url(#mask17_3_19073)">
<path d="M65.8088 59.0335C65.7098 57.9137 65.1577 56.8143 64.7046 55.7912C64.2411 54.7529 63.7827 53.7043 63.064 52.8136C63.0379 52.7779 62.9911 52.8085 63.0015 52.8492C63.2984 53.9283 63.8036 54.9361 64.1838 55.9846C64.5588 57.0281 64.7671 58.1784 65.2984 59.1557C65.4286 59.4051 65.8348 59.3491 65.8088 59.0335Z" fill="#FFF8EF"/>
</g>
</g>
</g>
<mask id="mask18_3_19073" style="mask-type:luminance" maskUnits="userSpaceOnUse" x="66" y="61" width="3" height="7">
<path d="M66 61.4177H68.6667V67.9329H66V61.4177Z" fill="white"/>
</mask>
<g mask="url(#mask18_3_19073)">
<mask id="mask19_3_19073" style="mask-type:luminance" maskUnits="userSpaceOnUse" x="-56" y="-65" width="200" height="195">
<path d="M143.359 -37.2918L115.526 129.374L-56 102.015L-28.1667 -64.6504L143.359 -37.2918Z" fill="white"/>
</mask>
<g mask="url(#mask19_3_19073)">
<mask id="mask20_3_19073" style="mask-type:luminance" maskUnits="userSpaceOnUse" x="-56" y="-65" width="200" height="195">
<path d="M143.359 -37.2918L115.526 129.374L-56 102.015L-28.1667 -64.6504L143.359 -37.2918Z" fill="white"/>
</mask>
<g mask="url(#mask20_3_19073)">
<path d="M67.8946 67.0893C67.9831 65.2315 66.8686 63.1293 66.1186 61.4547C66.0873 61.3835 65.9779 61.4242 66.004 61.5005C66.3061 62.5338 66.5717 63.5772 66.7748 64.6308C66.9415 65.4707 66.9831 66.3614 67.3373 67.1504C67.4415 67.3794 67.879 67.3947 67.8946 67.0893Z" fill="#FFF8EF"/>
</g>
</g>
</g>
<mask id="mask21_3_19073" style="mask-type:luminance" maskUnits="userSpaceOnUse" x="56" y="57" width="4" height="11">
<path d="M56 57.1079H60V67.5322H56V57.1079Z" fill="white"/>
</mask>
<g mask="url(#mask21_3_19073)">
<mask id="mask22_3_19073" style="mask-type:luminance" maskUnits="userSpaceOnUse" x="-55" y="-65" width="200" height="195">
<path d="M144.359 -37.2916L116.526 129.374L-55 102.016L-27.1667 -64.6501L144.359 -37.2916Z" fill="white"/>
</mask>
<g mask="url(#mask22_3_19073)">
<mask id="mask23_3_19073" style="mask-type:luminance" maskUnits="userSpaceOnUse" x="-55" y="-65" width="200" height="195">
<path d="M144.359 -37.2916L116.526 129.374L-55 102.016L-27.1667 -64.6501L144.359 -37.2916Z" fill="white"/>
</mask>
<g mask="url(#mask23_3_19073)">
<path d="M60.0789 67.3321C59.2768 64.329 58.5841 60.99 57.1205 58.2211C57.0945 58.1651 56.9903 58.1753 57.0007 58.2516C57.4591 61.3819 58.6986 64.4766 59.532 67.5357C59.6361 67.8869 60.1726 67.6782 60.0789 67.3321Z" fill="#FFF8EF"/>
</g>
</g>
</g>
<mask id="mask24_3_19073" style="mask-type:luminance" maskUnits="userSpaceOnUse" x="50" y="56" width="4" height="7">
<path d="M50 56.0303H54V62.5454H50V56.0303Z" fill="white"/>
</mask>
<g mask="url(#mask24_3_19073)">
<mask id="mask25_3_19073" style="mask-type:luminance" maskUnits="userSpaceOnUse" x="-56" y="-65" width="200" height="195">
<path d="M143.359 -37.2916L115.526 129.374L-56 102.016L-28.1667 -64.6501L143.359 -37.2916Z" fill="white"/>
</mask>
<g mask="url(#mask25_3_19073)">
<mask id="mask26_3_19073" style="mask-type:luminance" maskUnits="userSpaceOnUse" x="-56" y="-65" width="200" height="195">
<path d="M143.359 -37.2916L115.526 129.374L-56 102.016L-28.1667 -64.6501L143.359 -37.2916Z" fill="white"/>
</mask>
<g mask="url(#mask26_3_19073)">
<path d="M52.9198 62.3932C52.7063 61.4516 52.0969 60.5507 51.6594 59.6854C51.2063 58.7946 50.6906 57.9599 50.1125 57.1353C50.0708 57.0742 49.9823 57.1251 50.0031 57.1913C50.326 58.1839 50.701 59.1255 51.1542 60.0671C51.55 60.8917 51.8677 61.8588 52.4615 62.5612C52.6073 62.7343 52.9771 62.6528 52.9198 62.3932Z" fill="#FFF8EF"/>
</g>
</g>
</g>
<mask id="mask27_3_19073" style="mask-type:luminance" maskUnits="userSpaceOnUse" x="54" y="63" width="3" height="4">
<path d="M54 63.573H56.6667V66.1791H54V63.573Z" fill="white"/>
</mask>
<g mask="url(#mask27_3_19073)">
<mask id="mask28_3_19073" style="mask-type:luminance" maskUnits="userSpaceOnUse" x="-56" y="-65" width="200" height="195">
<path d="M143.359 -37.2916L115.526 129.374L-56 102.016L-28.1667 -64.6501L143.359 -37.2916Z" fill="white"/>
</mask>
<g mask="url(#mask28_3_19073)">
<mask id="mask29_3_19073" style="mask-type:luminance" maskUnits="userSpaceOnUse" x="-56" y="-65" width="200" height="195">
<path d="M143.359 -37.2916L115.526 129.374L-56 102.016L-28.1667 -64.6501L143.359 -37.2916Z" fill="white"/>
</mask>
<g mask="url(#mask29_3_19073)">
<path d="M54.9149 66.111C54.7066 65.5919 54.3889 65.1439 54.092 64.6706C54.0608 64.6248 53.9826 64.6655 54.0035 64.7164C54.2118 65.2406 54.3941 65.7547 54.6962 66.2281C54.7691 66.3503 54.967 66.2383 54.9149 66.111Z" fill="#FFF8EF"/>
</g>
</g>
</g>
<mask id="mask30_3_19073" style="mask-type:luminance" maskUnits="userSpaceOnUse" x="56" y="67" width="3" height="8">
<path d="M56 67.8828H58.6667V74.398H56V67.8828Z" fill="white"/>
</mask>
<g mask="url(#mask30_3_19073)">
<mask id="mask31_3_19073" style="mask-type:luminance" maskUnits="userSpaceOnUse" x="-55" y="-65" width="200" height="195">
<path d="M144.359 -37.2918L116.526 129.374L-55 102.015L-27.1667 -64.6504L144.359 -37.2918Z" fill="white"/>
</mask>
<g mask="url(#mask31_3_19073)">
<mask id="mask32_3_19073" style="mask-type:luminance" maskUnits="userSpaceOnUse" x="-55" y="-65" width="200" height="195">
<path d="M144.359 -37.2918L116.526 129.374L-55 102.015L-27.1667 -64.6504L144.359 -37.2918Z" fill="white"/>
</mask>
<g mask="url(#mask32_3_19073)">
<path d="M57.9753 73.297C57.418 71.8667 56.8607 70.4415 56.2461 69.0367C56.1784 68.8891 55.9597 68.9756 56.0065 69.1283C56.4753 70.5891 56.9961 72.0245 57.5274 73.4649C57.6315 73.75 58.0846 73.582 57.9753 73.297Z" fill="#FFF8EF"/>
</g>
</g>
</g>
<mask id="mask33_3_19073" style="mask-type:luminance" maskUnits="userSpaceOnUse" x="44" y="48" width="7" height="15">
<path d="M44 48.4878H50.6667V62.8211H44V48.4878Z" fill="white"/>
</mask>
<g mask="url(#mask33_3_19073)">
<mask id="mask34_3_19073" style="mask-type:luminance" maskUnits="userSpaceOnUse" x="-55" y="-65" width="200" height="195">
<path d="M144.359 -37.2918L116.526 129.374L-55 102.015L-27.1667 -64.6504L144.359 -37.2918Z" fill="white"/>
</mask>
<g mask="url(#mask34_3_19073)">
<mask id="mask35_3_19073" style="mask-type:luminance" maskUnits="userSpaceOnUse" x="-55" y="-65" width="200" height="195">
<path d="M144.359 -37.2918L116.526 129.374L-55 102.015L-27.1667 -64.6504L144.359 -37.2918Z" fill="white"/>
</mask>
<g mask="url(#mask35_3_19073)">
<path d="M49.4273 61.3694C47.2242 57.5723 45.8908 53.9075 45.0992 49.6065C45.0888 49.5454 44.995 49.5556 45.0002 49.6166C45.3075 53.8057 46.7867 58.0609 49.12 61.5882C49.2554 61.7918 49.5419 61.573 49.4273 61.3694Z" fill="#FFF8EF"/>
</g>
</g>
</g>
<mask id="mask36_3_19073" style="mask-type:luminance" maskUnits="userSpaceOnUse" x="50" y="64" width="4" height="8">
<path d="M50 64.6501H54V71.1653H50V64.6501Z" fill="white"/>
</mask>
<g mask="url(#mask36_3_19073)">
<mask id="mask37_3_19073" style="mask-type:luminance" maskUnits="userSpaceOnUse" x="-56" y="-66" width="200" height="195">
<path d="M143.359 -38.3697L115.526 128.296L-56 100.937L-28.1667 -65.7283L143.359 -38.3697Z" fill="white"/>
</mask>
<g mask="url(#mask37_3_19073)">
<mask id="mask38_3_19073" style="mask-type:luminance" maskUnits="userSpaceOnUse" x="-56" y="-66" width="200" height="195">
<path d="M143.359 -38.3697L115.526 128.296L-56 100.937L-28.1667 -65.7283L143.359 -38.3697Z" fill="white"/>
</mask>
<g mask="url(#mask38_3_19073)">
<path d="M52.9487 69.5627C52.3393 67.8066 51.0998 66.244 50.1154 64.6763C50.0737 64.6152 49.9748 64.6712 50.006 64.7323C50.73 66.4374 51.2977 68.3309 52.3966 69.8477C52.6102 70.1429 53.0581 69.8884 52.9487 69.5627Z" fill="#FFF8EF"/>
</g>
</g>
</g>
<mask id="mask39_3_19073" style="mask-type:luminance" maskUnits="userSpaceOnUse" x="54" y="74" width="3" height="5">
<path d="M54 74.3479H56.6667V78.257H54V74.3479Z" fill="white"/>
</mask>
<g mask="url(#mask39_3_19073)">
<mask id="mask40_3_19073" style="mask-type:luminance" maskUnits="userSpaceOnUse" x="-56" y="-65" width="200" height="195">
<path d="M143.359 -37.2918L115.526 129.374L-56 102.015L-28.1667 -64.6504L143.359 -37.2918Z" fill="white"/>
</mask>
<g mask="url(#mask40_3_19073)">
<mask id="mask41_3_19073" style="mask-type:luminance" maskUnits="userSpaceOnUse" x="-56" y="-65" width="200" height="195">
<path d="M143.359 -37.2918L115.526 129.374L-56 102.015L-28.1667 -64.6504L143.359 -37.2918Z" fill="white"/>
</mask>
<g mask="url(#mask41_3_19073)">
<path d="M54.8106 77.4837C54.7325 76.7558 54.4512 76.084 54.0919 75.4477C54.0658 75.3968 53.9825 75.4426 54.0033 75.4935C54.2846 76.145 54.4356 76.822 54.5814 77.5092C54.6127 77.6466 54.821 77.6313 54.8106 77.4837Z" fill="#FFF8EF"/>
</g>
</g>
</g>
<mask id="mask42_3_19073" style="mask-type:luminance" maskUnits="userSpaceOnUse" x="45" y="61" width="6" height="11">
<path d="M45 61.4177H50.3333V71.842H45V61.4177Z" fill="white"/>
</mask>
<g mask="url(#mask42_3_19073)">
<mask id="mask43_3_19073" style="mask-type:luminance" maskUnits="userSpaceOnUse" x="-55" y="-65" width="200" height="195">
<path d="M144.359 -37.2918L116.526 129.374L-55 102.015L-27.1667 -64.6504L144.359 -37.2918Z" fill="white"/>
</mask>
<g mask="url(#mask43_3_19073)">
<mask id="mask44_3_19073" style="mask-type:luminance" maskUnits="userSpaceOnUse" x="-55" y="-65" width="200" height="195">
<path d="M144.359 -37.2918L116.526 129.374L-55 102.015L-27.1667 -64.6504L144.359 -37.2918Z" fill="white"/>
</mask>
<g mask="url(#mask44_3_19073)">
<path d="M50.3044 69.8963C49.7627 66.7711 48.1377 63.88 46.1117 61.4419C46.0596 61.3808 45.9659 61.447 46.0127 61.5132C47.7107 64.2057 48.7575 67.0409 49.7471 70.0287C49.8461 70.329 50.3617 70.2119 50.3044 69.8963Z" fill="#FFF8EF"/>
</g>
</g>
</g>
<mask id="mask45_3_19073" style="mask-type:luminance" maskUnits="userSpaceOnUse" x="52" y="74" width="2" height="2">
<path d="M52 74.3479H53.3333V75.6509H52V74.3479Z" fill="white"/>
</mask>
<g mask="url(#mask45_3_19073)">
<mask id="mask46_3_19073" style="mask-type:luminance" maskUnits="userSpaceOnUse" x="-55" y="-65" width="200" height="195">
<path d="M144.359 -37.2918L116.526 129.374L-55 102.015L-27.1667 -64.6504L144.359 -37.2918Z" fill="white"/>
</mask>
<g mask="url(#mask46_3_19073)">
<mask id="mask47_3_19073" style="mask-type:luminance" maskUnits="userSpaceOnUse" x="-55" y="-65" width="200" height="195">
<path d="M144.359 -37.2918L116.526 129.374L-55 102.015L-27.1667 -64.6504L144.359 -37.2918Z" fill="white"/>
</mask>
<g mask="url(#mask47_3_19073)">
<path d="M52.0473 75.4548C52.0525 75.4225 52.0056 75.4118 52.0004 75.4494C51.9952 75.4817 52.0421 75.4871 52.0473 75.4548Z" fill="#FFF8EF"/>
</g>
</g>
</g>
<mask id="mask48_3_19073" style="mask-type:luminance" maskUnits="userSpaceOnUse" x="44" y="61" width="3" height="9">
<path d="M44 61.4177H46.6667V69.2359H44V61.4177Z" fill="white"/>
</mask>
<g mask="url(#mask48_3_19073)">
<mask id="mask49_3_19073" style="mask-type:luminance" maskUnits="userSpaceOnUse" x="-55" y="-65" width="200" height="195">
<path d="M144.359 -37.2918L116.526 129.374L-55 102.015L-27.1667 -64.6504L144.359 -37.2918Z" fill="white"/>
</mask>
<g mask="url(#mask49_3_19073)">
<mask id="mask50_3_19073" style="mask-type:luminance" maskUnits="userSpaceOnUse" x="-55" y="-65" width="200" height="195">
<path d="M144.359 -37.2918L116.526 129.374L-55 102.015L-27.1667 -64.6504L144.359 -37.2918Z" fill="white"/>
</mask>
<g mask="url(#mask50_3_19073)">
<path d="M46.0306 68.8313C46.5618 66.7291 46.041 64.4437 45.0983 62.5248C45.0722 62.4688 44.9785 62.4994 45.0045 62.5604C45.8379 64.6473 45.8379 66.5713 45.6087 68.7651C45.5826 69.0349 45.9629 69.0909 46.0306 68.8313Z" fill="#FFF8EF"/>
</g>
</g>
</g>
<mask id="mask51_3_19073" style="mask-type:luminance" maskUnits="userSpaceOnUse" x="45" y="70" width="2" height="3">
<path d="M45 70.0378H46.3333V72.6439H45V70.0378Z" fill="white"/>
</mask>
<g mask="url(#mask51_3_19073)">
<mask id="mask52_3_19073" style="mask-type:luminance" maskUnits="userSpaceOnUse" x="-55" y="-65" width="200" height="195">
<path d="M144.359 -37.2918L116.526 129.374L-55 102.015L-27.1667 -64.6504L144.359 -37.2918Z" fill="white"/>
</mask>
<g mask="url(#mask52_3_19073)">
<mask id="mask53_3_19073" style="mask-type:luminance" maskUnits="userSpaceOnUse" x="-55" y="-65" width="200" height="195">
<path d="M144.359 -37.2918L116.526 129.374L-55 102.015L-27.1667 -64.6504L144.359 -37.2918Z" fill="white"/>
</mask>
<g mask="url(#mask53_3_19073)">
<path d="M46.3866 72.3566L46.1522 71.1808C46.1314 71.0841 45.9855 71.0994 46.0012 71.1961C46.0533 71.588 46.1053 71.985 46.1574 72.3821C46.1783 72.5246 46.4126 72.494 46.3866 72.3566Z" fill="#FFF8EF"/>
</g>
</g>
</g>
<mask id="mask54_3_19073" style="mask-type:luminance" maskUnits="userSpaceOnUse" x="33" y="30" width="7" height="12">
<path d="M33 30.1702H39.6667V41.8974H33V30.1702Z" fill="white"/>
</mask>
<g mask="url(#mask54_3_19073)">
<mask id="mask55_3_19073" style="mask-type:luminance" maskUnits="userSpaceOnUse" x="-55" y="-65" width="200" height="195">
<path d="M144.359 -37.2918L116.526 129.374L-55 102.015L-27.1667 -64.6504L144.359 -37.2918Z" fill="white"/>
</mask>
<g mask="url(#mask55_3_19073)">
<mask id="mask56_3_19073" style="mask-type:luminance" maskUnits="userSpaceOnUse" x="-55" y="-65" width="200" height="195">
<path d="M144.359 -37.2918L116.526 129.374L-55 102.015L-27.1667 -64.6504L144.359 -37.2918Z" fill="white"/>
</mask>
<g mask="url(#mask56_3_19073)">
<path d="M34.4095 41.2308C36.5501 38.1717 38.2324 34.8582 39.2741 31.2901C39.2897 31.2494 39.222 31.229 39.2064 31.2698C37.7585 34.6495 36.1074 37.8714 34.0449 40.9356C33.8731 41.1799 34.2376 41.4802 34.4095 41.2308Z" fill="#FFF8EF"/>
</g>
</g>
</g>
<mask id="mask57_3_19073" style="mask-type:luminance" maskUnits="userSpaceOnUse" x="21" y="44" width="6" height="6">
<path d="M21 44.1777H26.3333V49.3899H21V44.1777Z" fill="white"/>
</mask>
<g mask="url(#mask57_3_19073)">
<mask id="mask58_3_19073" style="mask-type:luminance" maskUnits="userSpaceOnUse" x="-55" y="-65" width="200" height="195">
<path d="M144.359 -37.2918L116.526 129.374L-55 102.015L-27.1667 -64.6504L144.359 -37.2918Z" fill="white"/>
</mask>
<g mask="url(#mask58_3_19073)">
<mask id="mask59_3_19073" style="mask-type:luminance" maskUnits="userSpaceOnUse" x="-55" y="-65" width="200" height="195">
<path d="M144.359 -37.2918L116.526 129.374L-55 102.015L-27.1667 -64.6504L144.359 -37.2918Z" fill="white"/>
</mask>
<g mask="url(#mask59_3_19073)">
<path d="M22.2577 48.639C22.7316 48.5524 23.065 48.2776 23.4712 48.0231C23.9504 47.7126 24.44 47.4174 24.9191 47.1018C25.6327 46.6233 26.0858 46.211 26.2264 45.3559C26.2421 45.2592 26.0962 45.2134 26.0598 45.305C25.7629 46.0482 24.8462 46.5266 24.1744 46.9135C23.5025 47.2952 22.5233 47.6464 22.0494 48.2572C21.9296 48.4099 22.0389 48.6797 22.2577 48.639Z" fill="#FFF8EF"/>
</g>
</g>
</g>
<mask id="mask60_3_19073" style="mask-type:luminance" maskUnits="userSpaceOnUse" x="18" y="48" width="3" height="5">
<path d="M18 48.4878H20.6667V52.3969H18V48.4878Z" fill="white"/>
</mask>
<g mask="url(#mask60_3_19073)">
<mask id="mask61_3_19073" style="mask-type:luminance" maskUnits="userSpaceOnUse" x="-56" y="-65" width="200" height="195">
<path d="M143.359 -37.2918L115.526 129.374L-56 102.015L-28.1667 -64.6504L143.359 -37.2918Z" fill="white"/>
</mask>
<g mask="url(#mask61_3_19073)">
<mask id="mask62_3_19073" style="mask-type:luminance" maskUnits="userSpaceOnUse" x="-56" y="-65" width="200" height="195">
<path d="M143.359 -37.2918L115.526 129.374L-56 102.015L-28.1667 -64.6504L143.359 -37.2918Z" fill="white"/>
</mask>
<g mask="url(#mask62_3_19073)">
<path d="M19.4479 51.9522C19.6979 51.6162 19.7864 51.1938 19.9479 50.812C20.1198 50.4048 20.3646 50.0384 20.5364 49.6363C20.5521 49.6006 20.5156 49.5497 20.4739 49.5701C19.7448 49.9467 18.9271 50.9749 19.0052 51.8198C19.0208 52.0234 19.3177 52.1252 19.4479 51.9522Z" fill="#FFF8EF"/>
</g>
</g>
</g>
<mask id="mask63_3_19073" style="mask-type:luminance" maskUnits="userSpaceOnUse" x="65" y="14" width="40" height="24">
<path d="M65 14.0076H105V37.4621H65V14.0076Z" fill="white"/>
</mask>
<g mask="url(#mask63_3_19073)">
<mask id="mask64_3_19073" style="mask-type:luminance" maskUnits="userSpaceOnUse" x="-55" y="-65" width="200" height="195">
<path d="M144.359 -37.2918L116.526 129.374L-55 102.015L-27.1667 -64.6504L144.359 -37.2918Z" fill="white"/>
</mask>
<g mask="url(#mask64_3_19073)">
<mask id="mask65_3_19073" style="mask-type:luminance" maskUnits="userSpaceOnUse" x="-55" y="-65" width="200" height="195">
<path d="M144.359 -37.2918L116.526 129.374L-55 102.015L-27.1667 -64.6504L144.359 -37.2918Z" fill="white"/>
</mask>
<g mask="url(#mask65_3_19073)">
<path d="M104.662 37.1636C102.433 34.2216 99.4278 31.7275 96.5372 29.437C93.6726 27.172 90.7351 25.248 87.2195 24.0874C79.8653 21.6544 70.808 20.1682 65.5736 14.1213C65.3913 13.9075 64.9434 14.0042 65.0059 14.3351C65.5163 16.9971 68.9018 18.3409 71.1257 19.3996C74.6257 21.064 78.2663 22.4332 82.0007 23.5072C86.6049 24.8357 90.6622 26.0573 94.5788 28.8669C98.1361 31.4272 101.167 34.5219 104.553 37.2654C104.615 37.3162 104.714 37.2297 104.662 37.1636Z" fill="#FFF8EF"/>
</g>
</g>
</g>
<mask id="mask66_3_19073" style="mask-type:luminance" maskUnits="userSpaceOnUse" x="72" y="14" width="39" height="24">
<path d="M72 14.0076H110.667V37.4621H72V14.0076Z" fill="white"/>
</mask>
<g mask="url(#mask66_3_19073)">
<mask id="mask67_3_19073" style="mask-type:luminance" maskUnits="userSpaceOnUse" x="-55" y="-65" width="200" height="195">
<path d="M144.359 -37.2918L116.526 129.374L-55 102.015L-27.1667 -64.6504L144.359 -37.2918Z" fill="white"/>
</mask>
<g mask="url(#mask67_3_19073)">
<mask id="mask68_3_19073" style="mask-type:luminance" maskUnits="userSpaceOnUse" x="-55" y="-65" width="200" height="195">
<path d="M144.359 -37.2918L116.526 129.374L-55 102.015L-27.1667 -64.6504L144.359 -37.2918Z" fill="white"/>
</mask>
<g mask="url(#mask68_3_19073)">
<path d="M110.564 38.1592C108.153 31.8222 102.299 26.5439 96.2621 23.5103C88.8558 19.7845 80.2829 20.1662 73.46 15.1526C73.1579 14.9236 72.8402 15.3308 73.0902 15.5903C78.1475 20.7617 87.0173 20.2986 93.4339 22.7977C101.194 25.8263 106.246 31.4049 110.496 38.1898C110.522 38.2305 110.58 38.1949 110.564 38.1592Z" fill="#FFF8EF"/>
</g>
</g>
</g>
<mask id="mask69_3_19073" style="mask-type:luminance" maskUnits="userSpaceOnUse" x="105" y="24" width="11" height="14">
<path d="M105 24.7825H115.667V37.8128H105V24.7825Z" fill="white"/>
</mask>
<g mask="url(#mask69_3_19073)">
<mask id="mask70_3_19073" style="mask-type:luminance" maskUnits="userSpaceOnUse" x="-55" y="-65" width="200" height="195">
<path d="M144.359 -37.2921L116.526 129.374L-55 102.015L-27.1667 -64.6506L144.359 -37.2921Z" fill="white"/>
</mask>
<g mask="url(#mask70_3_19073)">
<mask id="mask71_3_19073" style="mask-type:luminance" maskUnits="userSpaceOnUse" x="-55" y="-65" width="200" height="195">
<path d="M144.359 -37.2921L116.526 129.374L-55 102.015L-27.1667 -64.6506L144.359 -37.2921Z" fill="white"/>
</mask>
<g mask="url(#mask71_3_19073)">
<path d="M115.379 36.445C114.327 34.3683 113.415 32.0625 111.879 30.2709C110.197 28.3062 108.108 26.5959 106.223 24.8195C106.092 24.6974 105.915 24.9061 106.046 25.0282C107.931 26.7741 110.051 28.4385 111.738 30.3676C113.29 32.1389 114.228 34.409 115.311 36.4705C115.332 36.5112 115.4 36.4857 115.379 36.445Z" fill="#FFF8EF"/>
</g>
</g>
</g>
<mask id="mask72_3_19073" style="mask-type:luminance" maskUnits="userSpaceOnUse" x="92" y="8" width="36" height="19">
<path d="M92 8.61987H128V26.8623H92V8.61987Z" fill="white"/>
</mask>
<g mask="url(#mask72_3_19073)">
<mask id="mask73_3_19073" style="mask-type:luminance" maskUnits="userSpaceOnUse" x="-55" y="-66" width="200" height="195">
<path d="M144.359 -38.3697L116.526 128.296L-55 100.937L-27.1667 -65.7283L144.359 -38.3697Z" fill="white"/>
</mask>
<g mask="url(#mask73_3_19073)">
<mask id="mask74_3_19073" style="mask-type:luminance" maskUnits="userSpaceOnUse" x="-55" y="-66" width="200" height="195">
<path d="M144.359 -38.3697L116.526 128.296L-55 100.937L-27.1667 -65.7283L144.359 -38.3697Z" fill="white"/>
</mask>
<g mask="url(#mask74_3_19073)">
<path d="M127.357 25.5348C124.075 20.3583 117.914 16.831 112.456 14.1842C106.403 11.2473 99.893 9.40979 93.1847 8.62084C92.9764 8.59539 92.9243 8.91097 93.1326 8.93642C99.4972 9.66938 105.695 11.3491 111.497 14.0315C117.164 16.6579 123.804 20.3227 127.294 25.5806C127.32 25.6213 127.383 25.5755 127.357 25.5348Z" fill="#FFF8EF"/>
</g>
</g>
</g>
<mask id="mask75_3_19073" style="mask-type:luminance" maskUnits="userSpaceOnUse" x="118" y="11" width="10" height="9">
<path d="M118 11.8525H127.333V19.6707H118V11.8525Z" fill="white"/>
</mask>
<g mask="url(#mask75_3_19073)">
<mask id="mask76_3_19073" style="mask-type:luminance" maskUnits="userSpaceOnUse" x="-56" y="-65" width="200" height="195">
<path d="M143.359 -37.2918L115.526 129.374L-56 102.015L-28.1667 -64.6504L143.359 -37.2918Z" fill="white"/>
</mask>
<g mask="url(#mask76_3_19073)">
<mask id="mask77_3_19073" style="mask-type:luminance" maskUnits="userSpaceOnUse" x="-56" y="-65" width="200" height="195">
<path d="M143.359 -37.2918L115.526 129.374L-56 102.015L-28.1667 -64.6504L143.359 -37.2918Z" fill="white"/>
</mask>
<g mask="url(#mask77_3_19073)">
<path d="M126.723 18.8522C124.796 15.8949 121.202 14.6631 118.233 12.9478C118.077 12.8613 117.905 13.1158 118.062 13.2176C120.963 15.1772 124.577 15.8949 126.661 18.898C126.692 18.9336 126.749 18.8929 126.723 18.8522Z" fill="#FFF8EF"/>
</g>
</g>
</g>
<mask id="mask78_3_19073" style="mask-type:luminance" maskUnits="userSpaceOnUse" x="109" y="8" width="8" height="5">
<path d="M109 8.61987H117V12.529H109V8.61987Z" fill="white"/>
</mask>
<g mask="url(#mask78_3_19073)">
<mask id="mask79_3_19073" style="mask-type:luminance" maskUnits="userSpaceOnUse" x="-55" y="-66" width="200" height="195">
<path d="M144.359 -38.3697L116.526 128.296L-55 100.937L-27.1667 -65.7283L144.359 -38.3697Z" fill="white"/>
</mask>
<g mask="url(#mask79_3_19073)">
<mask id="mask80_3_19073" style="mask-type:luminance" maskUnits="userSpaceOnUse" x="-55" y="-66" width="200" height="195">
<path d="M144.359 -38.3697L116.526 128.296L-55 100.937L-27.1667 -65.7283L144.359 -38.3697Z" fill="white"/>
</mask>
<g mask="url(#mask80_3_19073)">
<path d="M116.94 11.433C114.773 10.298 112.529 9.36652 110.19 8.62848C110.003 8.56739 109.914 8.83207 110.112 8.88806C112.461 9.54976 114.727 10.4151 116.919 11.4789C116.945 11.4941 116.966 11.4483 116.94 11.433Z" fill="#FFF8EF"/>
</g>
</g>
</g>
<mask id="mask81_3_19073" style="mask-type:luminance" maskUnits="userSpaceOnUse" x="109" y="4" width="7" height="5">
<path d="M109 4.31006H115.667V8.21915H109V4.31006Z" fill="white"/>
</mask>
<g mask="url(#mask81_3_19073)">
<mask id="mask82_3_19073" style="mask-type:luminance" maskUnits="userSpaceOnUse" x="-55" y="-65" width="200" height="195">
<path d="M144.359 -37.2918L116.526 129.374L-55 102.015L-27.1667 -64.6504L144.359 -37.2918Z" fill="white"/>
</mask>
<g mask="url(#mask82_3_19073)">
<mask id="mask83_3_19073" style="mask-type:luminance" maskUnits="userSpaceOnUse" x="-55" y="-65" width="200" height="195">
<path d="M144.359 -37.2918L116.526 129.374L-55 102.015L-27.1667 -64.6504L144.359 -37.2918Z" fill="white"/>
</mask>
<g mask="url(#mask83_3_19073)">
<path d="M115.003 6.02398C113.503 5.14342 111.992 4.59879 110.268 4.31376C109.966 4.26285 109.888 4.72095 110.196 4.77185C111.821 5.04671 113.425 5.53026 114.919 6.20213C115.039 6.25812 115.112 6.09015 115.003 6.02398Z" fill="#FFF8EF"/>
</g>
</g>
</g>
<mask id="mask84_3_19073" style="mask-type:luminance" maskUnits="userSpaceOnUse" x="116" y="2" width="6" height="3">
<path d="M116 2.15503H121.333V4.76109H116V2.15503Z" fill="white"/>
</mask>
<g mask="url(#mask84_3_19073)">
<mask id="mask85_3_19073" style="mask-type:luminance" maskUnits="userSpaceOnUse" x="-55" y="-66" width="200" height="195">
<path d="M144.359 -38.3695L116.526 128.296L-55 100.938L-27.1667 -65.728L144.359 -38.3695Z" fill="white"/>
</mask>
<g mask="url(#mask85_3_19073)">
<mask id="mask86_3_19073" style="mask-type:luminance" maskUnits="userSpaceOnUse" x="-55" y="-66" width="200" height="195">
<path d="M144.359 -38.3695L116.526 128.296L-55 100.938L-27.1667 -65.728L144.359 -38.3695Z" fill="white"/>
</mask>
<g mask="url(#mask86_3_19073)">
<path d="M120.65 3.0837C119.468 2.77322 118.286 2.46782 117.098 2.15733C116.989 2.13188 116.958 2.30494 117.072 2.33039C118.26 2.61543 119.447 2.90047 120.635 3.18041C120.697 3.19568 120.713 3.10407 120.65 3.0837Z" fill="#FFF8EF"/>
</g>
</g>
</g>
<mask id="mask87_3_19073" style="mask-type:luminance" maskUnits="userSpaceOnUse" x="84" y="26" width="7" height="7">
<path d="M84 26.9377H90.6667V32.1499H84V26.9377Z" fill="white"/>
</mask>
<g mask="url(#mask87_3_19073)">
<mask id="mask88_3_19073" style="mask-type:luminance" maskUnits="userSpaceOnUse" x="-55" y="-65" width="200" height="195">
<path d="M144.359 -37.2916L116.526 129.374L-55 102.016L-27.1667 -64.6501L144.359 -37.2916Z" fill="white"/>
</mask>
<g mask="url(#mask88_3_19073)">
<mask id="mask89_3_19073" style="mask-type:luminance" maskUnits="userSpaceOnUse" x="-55" y="-65" width="200" height="195">
<path d="M144.359 -37.2916L116.526 129.374L-55 102.016L-27.1667 -64.6501L144.359 -37.2916Z" fill="white"/>
</mask>
<g mask="url(#mask89_3_19073)">
<path d="M90.093 31.5857C89.5722 30.7458 88.5201 30.1147 87.7337 29.5191C86.9889 28.9491 86.192 28.2924 85.2805 28.0227C85.0826 27.9667 84.9159 28.2466 85.0462 28.3892C85.7076 29.1119 86.6764 29.57 87.4993 30.0994C88.3014 30.6135 89.1034 31.3719 90.0149 31.6773C90.0774 31.6976 90.1295 31.6416 90.093 31.5857Z" fill="#FFF8EF"/>
</g>
</g>
</g>
<mask id="mask90_3_19073" style="mask-type:luminance" maskUnits="userSpaceOnUse" x="74" y="43" width="27" height="33">
<path d="M74 43.1003H100.667V75.6761H74V43.1003Z" fill="white"/>
</mask>
<g mask="url(#mask90_3_19073)">
<mask id="mask91_3_19073" style="mask-type:luminance" maskUnits="userSpaceOnUse" x="-56" y="-65" width="200" height="195">
<path d="M143.359 -37.2916L115.526 129.374L-56 102.016L-28.1667 -64.6501L143.359 -37.2916Z" fill="white"/>
</mask>
<g mask="url(#mask91_3_19073)">
<mask id="mask92_3_19073" style="mask-type:luminance" maskUnits="userSpaceOnUse" x="-56" y="-65" width="200" height="195">
<path d="M143.359 -37.2916L115.526 129.374L-56 102.016L-28.1667 -64.6501L143.359 -37.2916Z" fill="white"/>
</mask>
<g mask="url(#mask92_3_19073)">
<path d="M99.3526 75.0202C97.2172 72.4345 96.4255 69.2583 95.1964 66.2298C94.0193 63.3336 92.1703 61.2162 89.9203 59.0428C87.2589 56.4876 84.6078 53.8052 81.7484 51.4486C79.0245 49.209 76.3005 47.3206 74.4359 44.2768C74.2953 44.0478 73.9099 44.2564 74.0193 44.5008C75.1912 47.1577 77.5766 48.9341 79.8474 50.6749C82.8214 52.9501 85.4151 55.5409 88.0662 58.1571C91.1443 61.1958 93.6078 63.8273 95.2432 67.8433C96.3162 70.4748 97.2901 72.974 99.2953 75.0711C99.3266 75.1016 99.3787 75.0558 99.3526 75.0202Z" fill="#FFF8EF"/>
</g>
</g>
</g>
<mask id="mask93_3_19073" style="mask-type:luminance" maskUnits="userSpaceOnUse" x="86" y="61" width="12" height="18">
<path d="M86 61.4177H98V78.3571H86V61.4177Z" fill="white"/>
</mask>
<g mask="url(#mask93_3_19073)">
<mask id="mask94_3_19073" style="mask-type:luminance" maskUnits="userSpaceOnUse" x="-56" y="-65" width="200" height="195">
<path d="M143.359 -37.2918L115.526 129.374L-56 102.015L-28.1667 -64.6504L143.359 -37.2918Z" fill="white"/>
</mask>
<g mask="url(#mask94_3_19073)">
<mask id="mask95_3_19073" style="mask-type:luminance" maskUnits="userSpaceOnUse" x="-56" y="-65" width="200" height="195">
<path d="M143.359 -37.2918L115.526 129.374L-56 102.015L-28.1667 -64.6504L143.359 -37.2918Z" fill="white"/>
</mask>
<g mask="url(#mask95_3_19073)">
<path d="M96.8181 76.6049C95.1514 70.8787 90.1514 66.0789 86.4639 61.5132C86.266 61.2638 85.8546 61.5539 86.0525 61.8033C89.8598 66.5115 94.3233 71.0467 96.7244 76.6405C96.7452 76.7016 96.8337 76.666 96.8181 76.6049Z" fill="#FFF8EF"/>
</g>
</g>
</g>
<mask id="mask96_3_19073" style="mask-type:luminance" maskUnits="userSpaceOnUse" x="74" y="48" width="12" height="14">
<path d="M74 48.4878H86V61.5181H74V48.4878Z" fill="white"/>
</mask>
<g mask="url(#mask96_3_19073)">
<mask id="mask97_3_19073" style="mask-type:luminance" maskUnits="userSpaceOnUse" x="-56" y="-65" width="200" height="195">
<path d="M143.359 -37.2918L115.526 129.374L-56 102.015L-28.1667 -64.6504L143.359 -37.2918Z" fill="white"/>
</mask>
<g mask="url(#mask97_3_19073)">
<mask id="mask98_3_19073" style="mask-type:luminance" maskUnits="userSpaceOnUse" x="-56" y="-65" width="200" height="195">
<path d="M143.359 -37.2918L115.526 129.374L-56 102.015L-28.1667 -64.6504L143.359 -37.2918Z" fill="white"/>
</mask>
<g mask="url(#mask98_3_19073)">
<path d="M84.5272 60.2675C81.6001 56.3635 78.0793 52.8616 74.397 49.6295C74.1522 49.4157 73.8553 49.7872 74.0793 50.0112C77.5272 53.4571 80.8918 56.9997 84.4386 60.3489C84.4855 60.3998 84.5688 60.3235 84.5272 60.2675Z" fill="#FFF8EF"/>
</g>
</g>
</g>
<mask id="mask99_3_19073" style="mask-type:luminance" maskUnits="userSpaceOnUse" x="80" y="58" width="11" height="19">
<path d="M80 58.1853H90.6667V76.4277H80V58.1853Z" fill="white"/>
</mask>
<g mask="url(#mask99_3_19073)">
<mask id="mask100_3_19073" style="mask-type:luminance" maskUnits="userSpaceOnUse" x="-55" y="-66" width="200" height="195">
<path d="M144.359 -38.3695L116.526 128.296L-55 100.938L-27.1667 -65.728L144.359 -38.3695Z" fill="white"/>
</mask>
<g mask="url(#mask100_3_19073)">
<mask id="mask101_3_19073" style="mask-type:luminance" maskUnits="userSpaceOnUse" x="-55" y="-66" width="200" height="195">
<path d="M144.359 -38.3695L116.526 128.296L-55 100.938L-27.1667 -65.728L144.359 -38.3695Z" fill="white"/>
</mask>
<g mask="url(#mask101_3_19073)">
<path d="M90.791 74.6664C89.2233 72.1214 87.3796 69.7546 85.8379 67.1892C84.1452 64.3643 83.0254 61.4732 81.8327 58.4396C81.666 58.012 80.9056 58.1546 81.0098 58.633C82.2702 64.4967 86.4681 70.4621 90.3171 74.9972C90.5566 75.2823 90.9837 74.982 90.791 74.6664Z" fill="#FFF8EF"/>
</g>
</g>
</g>
<mask id="mask102_3_19073" style="mask-type:luminance" maskUnits="userSpaceOnUse" x="24" y="49" width="8" height="8">
<path d="M24 49.5652H32V56.0803H24V49.5652Z" fill="white"/>
</mask>
<g mask="url(#mask102_3_19073)">
<mask id="mask103_3_19073" style="mask-type:luminance" maskUnits="userSpaceOnUse" x="-55" y="-65" width="200" height="195">
<path d="M144.359 -37.2918L116.526 129.374L-55 102.015L-27.1667 -64.6504L144.359 -37.2918Z" fill="white"/>
</mask>
<g mask="url(#mask103_3_19073)">
<mask id="mask104_3_19073" style="mask-type:luminance" maskUnits="userSpaceOnUse" x="-55" y="-65" width="200" height="195">
<path d="M144.359 -37.2918L116.526 129.374L-55 102.015L-27.1667 -64.6504L144.359 -37.2918Z" fill="white"/>
</mask>
<g mask="url(#mask104_3_19073)">
<path d="M25.5681 54.6866C26.5785 53.8875 27.4379 52.8746 28.391 51.9991C29.2452 51.2153 30.2764 50.5332 31.0368 49.6679C31.0733 49.6323 31.0368 49.5559 30.9848 49.5661C29.8337 49.8257 28.8077 50.6401 27.9223 51.368C26.9223 52.1925 25.8493 53.1444 25.0733 54.1725C24.8337 54.4779 25.2296 54.9513 25.5681 54.6866Z" fill="#FFF8EF"/>
</g>
</g>
</g>
<mask id="mask105_3_19073" style="mask-type:luminance" maskUnits="userSpaceOnUse" x="29" y="50" width="4" height="5">
<path d="M29 50.6428H33V54.5519H29V50.6428Z" fill="white"/>
</mask>
<g mask="url(#mask105_3_19073)">
<mask id="mask106_3_19073" style="mask-type:luminance" maskUnits="userSpaceOnUse" x="-55" y="-65" width="200" height="195">
<path d="M144.359 -37.2918L116.526 129.374L-55 102.015L-27.1667 -64.6504L144.359 -37.2918Z" fill="white"/>
</mask>
<g mask="url(#mask106_3_19073)">
<mask id="mask107_3_19073" style="mask-type:luminance" maskUnits="userSpaceOnUse" x="-55" y="-65" width="200" height="195">
<path d="M144.359 -37.2918L116.526 129.374L-55 102.015L-27.1667 -64.6504L144.359 -37.2918Z" fill="white"/>
</mask>
<g mask="url(#mask107_3_19073)">
<path d="M30.4992 54.0721C31.0409 53.6955 31.5096 53.2374 32.0669 52.876C32.5826 52.5401 33.0461 52.2143 33.494 51.7969C33.5253 51.7664 33.4888 51.7155 33.4471 51.7206C32.2128 51.8275 30.8586 52.6928 30.0721 53.6293C29.843 53.8991 30.2076 54.2757 30.4992 54.0721Z" fill="#FFF8EF"/>
</g>
</g>
</g>
<mask id="mask108_3_19073" style="mask-type:luminance" maskUnits="userSpaceOnUse" x="26" y="53" width="3" height="5">
<path d="M26 53.8755H28.6667V57.7846H26V53.8755Z" fill="white"/>
</mask>
<g mask="url(#mask108_3_19073)">
<mask id="mask109_3_19073" style="mask-type:luminance" maskUnits="userSpaceOnUse" x="-56" y="-65" width="200" height="195">
<path d="M143.359 -37.2916L115.526 129.374L-56 102.016L-28.1667 -64.6501L143.359 -37.2916Z" fill="white"/>
</mask>
<g mask="url(#mask109_3_19073)">
<mask id="mask110_3_19073" style="mask-type:luminance" maskUnits="userSpaceOnUse" x="-56" y="-65" width="200" height="195">
<path d="M143.359 -37.2916L115.526 129.374L-56 102.016L-28.1667 -64.6501L143.359 -37.2916Z" fill="white"/>
</mask>
<g mask="url(#mask110_3_19073)">
<path d="M26.5346 57.4934C26.8367 57.2032 27.019 56.7248 27.196 56.3481C27.3992 55.9308 27.5815 55.5032 27.8002 55.0909C27.8523 54.984 27.7065 54.9077 27.6283 54.984C27.2794 55.3352 26.9096 55.6966 26.6127 56.0936C26.3627 56.4296 26.0606 56.8419 26.0033 57.2541C25.9617 57.5646 26.321 57.6868 26.5346 57.4934Z" fill="#FFF8EF"/>
</g>
</g>
</g>
<mask id="mask111_3_19073" style="mask-type:luminance" maskUnits="userSpaceOnUse" x="0" y="0" width="138" height="110">
<path d="M-2.23517e-08 0H137.062V109.455H-2.23517e-08V0Z" fill="white"/>
</mask>
<g mask="url(#mask111_3_19073)">
<mask id="mask112_3_19073" style="mask-type:luminance" maskUnits="userSpaceOnUse" x="-55" y="-65" width="200" height="195">
<path d="M144.359 -37.2916L116.526 129.374L-55 102.016L-27.1667 -64.6501L144.359 -37.2916Z" fill="white"/>
</mask>
<g mask="url(#mask112_3_19073)">
<mask id="mask113_3_19073" style="mask-type:luminance" maskUnits="userSpaceOnUse" x="-55" y="-65" width="200" height="195">
<path d="M144.359 -37.2916L116.526 129.374L-55 102.016L-27.1667 -64.6501L144.359 -37.2916Z" fill="white"/>
</mask>
<g mask="url(#mask113_3_19073)">
<path d="M-4.19022 109.102C-0.612089 101.696 6.78374 96.5244 9.27853 88.5535C11.5754 81.2342 7.3827 75.5538 4.18999 69.283C0.544159 62.1163 -0.263132 53.5499 1.93999 45.8335C4.24728 37.7608 9.73687 31.0981 12.8619 23.3664C14.8619 18.419 15.9087 12.9167 14.6431 7.80642C14.7056 7.22108 14.7421 6.64082 14.7421 6.06057C16.7994 6.92586 18.94 7.6181 21.1223 8.10673C21.0962 8.45285 21.2265 8.82441 21.591 9.16035C22.5442 10.0409 24.0285 10.3769 25.2681 10.7128C26.8619 11.1505 28.4817 11.4661 30.1171 11.7053C27.8775 14.6575 26.4921 18.4495 26.6171 21.7987C26.7317 24.8323 27.7004 27.8609 27.2994 30.8996C26.8619 34.2335 24.4452 36.4374 21.9348 38.4734C17.8046 41.8328 14.2629 45.3856 13.0806 50.7097C11.9504 55.8149 13.5233 61.1492 17.3619 64.7783C17.7004 65.099 18.0754 65.1092 18.3775 64.9514C18.4504 65.043 18.5442 65.1143 18.6535 65.1652C18.6848 65.2008 18.7108 65.2415 18.7525 65.2772C21.4921 67.6185 25.9035 67.4404 28.8098 65.4858C30.3775 64.4322 31.4869 62.9103 32.7473 61.5462C34.7317 59.3881 36.8358 58.2836 39.664 57.8967C39.9504 60.0396 40.5025 62.1417 40.5129 64.3406C40.5285 68.3362 38.539 72.1079 37.5598 75.9355C35.9296 82.3132 36.2629 88.3499 40.539 93.6028C40.6744 93.7708 40.8827 93.8318 41.091 93.7606C43.5181 92.9767 45.5181 91.4141 46.5129 89.2661C48.414 92.9462 51.5442 95.8373 55.5129 97.4915C55.8202 97.6239 56.1692 97.5424 56.3879 97.2981C58.3619 95.0891 60.6379 93.613 63.2056 92.1674C64.7265 91.3123 66.0233 90.3859 66.9296 88.9964C67.0285 89.256 67.2369 89.4697 67.5806 89.5512C68.8879 89.8566 69.4348 91.3785 70.8827 91.4446C72.0702 91.4955 73.1327 90.5437 73.9192 89.8057C76.3254 87.5406 77.5806 84.3594 78.4452 81.2698C79.4348 77.7272 79.7994 74.0115 79.4973 70.3518C80.966 72.9121 82.8931 75.2026 85.414 76.7448C87.5702 78.0631 93.19 80.4402 95.6587 78.6078C97.3619 79.3204 99.19 79.4781 100.971 78.6332C102.581 77.8646 104.518 77.3963 105.591 75.8795C105.773 75.6149 105.919 75.3349 106.039 75.0499C106.414 75.9457 106.789 76.8415 107.154 77.7374C107.945 79.6767 108.258 81.6719 108.935 83.6315C108.987 83.7792 109.169 83.8453 109.31 83.7944C115.419 81.6516 120.101 76.2155 119.768 69.7054C120.305 70.6929 121.711 71.4818 122.987 71.833C123.195 72.3573 123.497 72.8459 123.976 73.2786C124.055 73.3447 124.174 73.3244 124.237 73.2531C126.529 70.6572 124.133 64.8292 122.982 62.0959C121.211 57.8814 118.607 54.0742 115.43 50.7504C112.362 47.5386 108.695 44.8664 104.617 43.0035C100.096 40.937 95.0337 39.2115 90.0806 37.9339C91.2837 38.051 92.5025 38.1324 93.7577 38.1986C98.6015 38.4582 103.091 40.4789 107.924 40.6061C115.513 40.7995 122.898 36.7632 127.315 30.8283C130.305 26.8123 131.711 22.0176 132.654 17.1974C133.805 11.2981 134.706 5.54648 136.575 -0.200085C136.773 -0.800701 136.284 -1.25371 135.805 -1.20281C135.586 -1.28934 135.336 -1.29952 135.086 -1.23335C134.638 -1.12137 134.206 -0.963577 133.794 -0.75489C133.549 -0.632732 133.299 -0.515663 133.086 -0.342602C133.065 -0.322243 133.044 -0.301884 133.023 -0.281525C132.503 -0.464764 132.003 -0.64291 131.508 -0.831242C132.013 -0.877048 132.523 -0.826149 133.023 -0.663273C133.357 -0.556381 133.596 -1.02975 133.258 -1.15191C132.32 -1.49802 131.357 -1.52348 130.445 -1.24353C128.107 -2.22589 126.086 -3.50347 124.549 -6.05863C122.851 -8.88356 121.471 -11.8357 118.591 -13.719C111.831 -18.1473 103.622 -14.6658 96.565 -13.1337C92.3358 -12.2124 88.0233 -12.8334 83.8098 -12.0342C80.3775 -11.3827 77.6119 -9.52998 74.841 -7.54999C71.3671 -5.061 68.1327 -3.3355 63.7265 -3.20825C59.7004 -3.09118 55.6796 -3.81905 51.6587 -3.39149C46.2681 -2.81633 41.3567 -0.454582 37.4973 3.09312C35.8827 3.33744 34.4296 3.95841 32.9921 5.03239C32.3827 5.14437 31.7733 5.24109 31.1692 5.29707C30.5754 5.34797 30.039 5.39378 29.539 5.55157C28.5442 5.29198 27.565 4.96114 26.5337 4.88987C24.8306 4.7728 23.1327 5.26653 21.8879 6.40668C20.0025 5.93841 18.1535 5.34288 16.3567 4.62011C17.6692 4.23327 18.8827 3.42397 19.8567 2.36525C22.6223 -0.64291 23.5442 -4.77087 26.5129 -7.70778C33.8306 -14.961 44.414 -15.0628 54.0337 -13.6987C62.3306 -12.5229 71.1379 -14.3756 77.3827 -20.1222C82.7212 -25.0391 89.5285 -32.6435 87.6431 -40.3853C87.6587 -40.4515 87.6692 -40.5227 87.6796 -40.594C87.7004 -40.6856 87.664 -40.7569 87.6067 -40.8027C87.5754 -41.0114 87.5181 -41.2099 87.4504 -41.4033C87.539 -41.5051 87.6275 -41.6069 87.716 -41.7036C87.8671 -41.8767 87.6692 -42.0701 87.4921 -42.0243C87.5077 -42.2533 87.2525 -42.4875 87.0025 -42.3093C80.2785 -37.479 73.1015 -42.4824 66.565 -46.2082C66.4817 -46.3202 66.3567 -46.4017 66.1848 -46.422C64.4452 -47.4044 62.7525 -48.2798 61.1275 -48.8347C52.8931 -51.6443 44.565 -48.0559 37.6119 -43.7752C29.5858 -38.838 23.2994 -32.954 20.5129 -23.8582C19.1171 -19.2976 18.9869 -14.7268 18.44 -10.0441C17.8879 -5.32058 15.3306 -1.99175 13.2525 1.93261C13.1119 2.07513 13.0285 2.24818 12.9973 2.42633C12.9087 2.5943 12.8202 2.76227 12.7369 2.94042C12.4869 2.80299 12.2369 2.67574 11.9869 2.53322C5.05458 -1.38095 0.617077 -7.29549 -1.90376 -14.6454C-4.44022 -22.036 -6.83605 -28.9736 -11.6694 -35.2903C-16.1902 -41.2048 -21.8465 -46.2286 -27.961 -50.5194C-28.6121 -50.9724 -29.4038 -50.0664 -28.7631 -49.5676C-22.2788 -44.5642 -16.2683 -38.9601 -11.711 -32.1752C-9.35688 -28.6835 -7.51834 -24.9475 -6.18501 -20.9773C-4.76313 -16.7425 -3.78397 -12.3753 -1.68501 -8.38474C1.26812 -2.76542 6.0702 1.65266 11.7108 4.63538C11.6379 4.76772 11.5754 4.91533 11.539 5.08838C10.4817 10.3056 6.07541 11.4457 1.33583 11.7562C-2.25792 11.9904 -5.21626 13.1152 -7.4298 15.9911C-9.7423 18.9992 -10.5548 22.6131 -11.5235 26.1761C-12.1954 28.6396 -12.9819 31.0166 -14.461 33.1391C-15.6381 34.8188 -17.1225 36.2644 -18.4142 37.8575C-23.7006 44.4083 -27.1121 52.7508 -27.711 61.0932C-28.2892 69.1455 -25.086 76.9535 -20.8517 83.7232C-18.4663 87.5356 -15.5913 90.9865 -12.3621 94.1474C-8.58605 97.8478 -3.41418 102.668 -5.63292 108.455C-5.98188 109.382 -4.63292 110.013 -4.19022 109.102ZM41.5077 -15.6532C40.5494 -15.5565 39.591 -15.414 38.6483 -15.2358C37.5442 -16.152 36.3827 -16.9308 35.3462 -17.964C34.0546 -19.2518 33.2212 -20.28 32.69 -22.0004C32.815 -22.092 32.9348 -22.1887 33.065 -22.2803C33.2212 -22.3872 33.3775 -22.4839 33.539 -22.5857C34.8619 -18.9515 37.8723 -16.7221 41.5077 -15.6532ZM42.4921 -15.7397C38.9348 -17.1751 35.6692 -19.3994 34.164 -22.9573C34.7212 -23.2729 35.2942 -23.5579 35.8723 -23.8022C37.7004 -20.1171 41.5129 -16.8697 45.7577 -15.8415C44.6692 -15.8517 43.5806 -15.8212 42.4921 -15.7397ZM73.6379 -18.7123C69.8723 -16.3353 65.315 -14.8744 60.841 -14.5792C57.0442 -14.3298 53.3358 -15.2206 49.5806 -15.6278C47.5546 -17.0071 44.9712 -17.5365 42.7733 -18.6665C40.3827 -19.8982 37.8827 -21.7561 36.341 -23.9855C39.4244 -25.1714 42.7942 -25.4208 46.1796 -25.258C50.3775 -25.0544 54.3931 -24.6472 58.3827 -24.7388C58.4244 -24.5759 58.5285 -24.4283 58.7108 -24.3265C63.539 -21.807 70.315 -18.473 75.9452 -20.392C75.2056 -19.7863 74.44 -19.2162 73.6379 -18.7123ZM76.539 -20.8908C73.19 -20.733 70.164 -20.7228 66.914 -21.7968C64.6379 -22.5501 62.5181 -23.6648 60.4348 -24.8304C61.6535 -24.9169 62.8723 -25.0544 64.091 -25.2732C64.039 -24.9577 64.1535 -24.6166 64.5285 -24.4334C69.1067 -22.1582 74.2265 -21.9189 79.0702 -23.339C78.2629 -22.4788 77.4192 -21.6543 76.539 -20.8908ZM79.3619 -23.6546C74.6587 -22.7537 70.065 -23.5579 65.7629 -25.6193C66.6848 -25.8382 67.6171 -26.1131 68.5494 -26.4388C68.5702 -26.3269 68.6327 -26.2301 68.7785 -26.1843C72.6796 -24.9373 76.9712 -23.8531 80.8671 -25.3598C80.3775 -24.7846 79.8775 -24.2094 79.3619 -23.6546ZM87.1483 -40.3701C87.1483 -40.2937 87.1796 -40.2428 87.2265 -40.2072C87.5598 -35.6669 85.7681 -31.5899 82.9712 -27.976C82.3619 -27.1871 81.7212 -26.3828 81.0598 -25.5888C77.1119 -24.2451 73.3202 -25.431 69.4556 -26.7799C76.8619 -29.676 81.9921 -35.2139 87.1067 -41.0063C87.1379 -40.7976 87.1535 -40.5838 87.1483 -40.3701ZM67.7317 -43.9941C73.341 -40.8332 80.8879 -37.199 86.8567 -41.4186C80.6275 -35.1376 74.9973 -28.938 66.0025 -26.5254C62.7108 -25.6397 59.4712 -25.5532 56.2421 -25.7211C56.0546 -29.676 58.6067 -34.2214 60.8358 -37.3924C62.7577 -40.1257 65.2681 -41.8614 67.6848 -44.0196C67.7004 -44.0094 67.716 -44.0043 67.7317 -43.9941ZM67.2056 -44.2893C64.0129 -42.8998 61.2421 -39.5404 59.4504 -36.8427C57.4296 -33.7989 54.9869 -29.5437 55.2733 -25.7771C54.1744 -25.8484 53.0754 -25.9502 51.9765 -26.052C53.0702 -30.0527 54.9348 -33.8905 56.9035 -37.5451C58.5858 -40.6602 61.6223 -44.4776 65.4296 -45.2462C66.0233 -44.9357 66.6119 -44.6202 67.2056 -44.2893ZM63.8723 -46.0199C60.8515 -44.9765 58.2577 -42.1566 56.6952 -39.6625C54.1379 -35.5906 51.9504 -30.8976 51.0546 -26.1843C51.0494 -26.1691 51.0546 -26.1538 51.0546 -26.1334C50.4712 -26.1843 49.8879 -26.2352 49.3046 -26.2861C49.2994 -26.3421 49.2994 -26.3981 49.2785 -26.4592C48.6171 -28.5664 50.1171 -31.9614 50.7837 -33.9414C51.4087 -35.8044 52.1535 -37.6164 53.0494 -39.3724C54.9556 -43.0983 57.5285 -45.1393 60.7994 -47.2619C61.841 -46.9157 62.8619 -46.4933 63.8723 -46.0199ZM38.4712 -42.4264C35.8619 -37.4942 35.0181 -30.7602 36.0442 -25.5888C36.1015 -25.3089 36.5025 -25.3496 36.4973 -25.6346C36.4348 -28.8209 36.2942 -31.9614 36.8567 -35.1172C37.341 -37.8505 38.3723 -40.3446 39.2994 -42.9201C39.5546 -43.0677 39.8046 -43.2204 40.065 -43.3731C44.1171 -45.7298 48.5702 -47.7505 53.3202 -48.2035C55.7265 -48.4325 57.9452 -48.1272 60.065 -47.5011C56.5077 -45.7807 53.6379 -42.9252 51.7265 -39.4997C50.5025 -37.3161 49.7212 -34.9085 49.0025 -32.5315C48.414 -30.5973 47.3098 -28.3374 48.1327 -26.3778C46.0442 -26.5305 43.9452 -26.6068 41.8202 -26.4694C39.4244 -26.3065 37.2317 -25.7262 35.2212 -24.8151C34.7473 -27.8742 34.4556 -30.8518 34.6744 -33.9567C34.8358 -36.2828 35.3671 -38.5122 35.8462 -40.7722C36.7108 -41.3422 37.591 -41.897 38.4712 -42.4264ZM28.8567 -35.1732C30.716 -37.0718 32.8462 -38.7413 35.0858 -40.2632C33.3046 -35.3564 33.3358 -29.4572 34.5181 -24.5657C34.5285 -24.5454 34.539 -24.525 34.5494 -24.4996C31.914 -23.1813 29.6223 -21.2725 27.6587 -18.9617C25.9348 -23.8022 27.2421 -29.1823 27.9556 -34.201C28.2473 -34.5268 28.5442 -34.8525 28.8567 -35.1732ZM27.3358 -33.4681C26.565 -30.7195 26.2681 -27.8233 26.1535 -25.0035C26.0598 -22.7028 26.1275 -20.397 27.1379 -18.3203C26.789 -17.8826 26.4504 -17.4347 26.1223 -16.9766C25.0702 -21.2776 24.7421 -26.0622 25.2525 -30.5108C25.8827 -31.539 26.5702 -32.5315 27.3358 -33.4681ZM19.7785 -7.8452C20.6692 -12.4414 20.4452 -17.1089 21.6015 -21.6848C22.2785 -24.3621 23.2577 -26.958 24.5858 -29.3757C24.5025 -28.032 24.6223 -26.6526 24.7004 -25.3343C24.8723 -22.3618 24.7733 -19.3383 25.5858 -16.4472C25.6015 -16.3913 25.6327 -16.3454 25.664 -16.3149C23.7942 -13.5256 22.3723 -10.5073 20.8879 -7.51436C19.6952 -5.09154 18.414 -2.49566 16.5181 -0.505482C17.9244 -2.79596 19.2473 -5.10681 19.7785 -7.8452ZM25.289 -13.2253C26.9869 -16.1927 29.0598 -19.0737 31.7369 -21.2776C32.0546 -19.8779 33.0129 -18.8395 34.0858 -17.8317C35.1067 -16.8799 36.1952 -15.6787 37.4973 -14.9966C34.3306 -14.2789 31.2994 -13.0726 28.5806 -11.2249C26.0806 -9.51981 23.9452 -7.34639 22.3879 -4.77596C20.6379 -1.87468 18.5442 4.05003 14.3202 3.43924C20.7473 0.125671 21.9973 -7.47364 25.289 -13.2253ZM28.7629 24.471C28.3462 21.4628 28.2525 18.6429 29.7473 15.8689C30.6692 14.1638 32.0806 12.6266 33.1431 10.952C33.1952 10.9418 33.2421 10.9266 33.2942 10.9113C33.3098 11.0335 33.3358 11.1505 33.3827 11.2574C33.0962 14.4692 30.9869 17.0702 30.466 20.2259C30.0337 22.8727 29.7004 25.4889 29.1587 28.1001C29.0858 26.909 28.9296 25.6976 28.7629 24.471ZM16.8098 60.8591C16.6952 59.327 17.3567 57.8967 17.8671 56.4613C18.2629 55.3365 18.6431 54.2218 19.2056 53.163C19.2317 53.1223 19.1744 53.0765 19.1327 53.102C17.94 53.9215 17.6119 55.5452 17.1223 56.8176C16.7369 57.8204 16.3619 58.8078 16.2421 59.836C16.1223 59.6019 16.0025 59.3626 15.8983 59.1183C15.9921 59.0623 16.0598 58.9656 16.0494 58.8231C15.6796 55.4434 16.1431 52.71 18.19 49.9207C19.3983 48.2716 20.7421 46.826 21.6067 44.9682C21.6275 44.9224 21.5598 44.8919 21.5337 44.9326C20.1015 47.4725 17.6744 49.254 16.4452 51.916C15.6796 53.5906 15.2421 55.4332 15.2577 57.2656C14.3671 53.8451 14.8671 50.1193 16.6952 46.826C19.1952 42.3163 24.0337 40.1735 27.0858 36.1728C28.4712 34.3607 29.0233 32.4266 29.1587 30.4211C29.2577 30.3855 29.341 30.3142 29.3775 30.1921C30.4244 26.7767 30.8202 23.3868 31.3567 19.8798C31.8046 17.004 33.3827 14.4539 33.5702 11.5526C33.7212 11.7206 33.9244 11.8529 34.1952 11.914C34.1848 12.1583 34.2525 12.4128 34.3983 12.6368C35.4556 17.7522 33.1535 22.3433 31.8202 27.2653C31.1535 29.734 31.0129 32.3197 30.1015 34.7272C29.039 37.5369 27.2837 40.1735 24.966 42.1331C24.8202 42.2553 24.9973 42.4945 25.1431 42.3723C27.1692 40.657 28.7212 38.4836 29.8358 36.1066C31.1692 33.2715 31.4296 29.9885 32.4556 27.021C34.0337 22.491 35.8879 17.6504 34.6431 12.9117C34.7108 12.9727 34.7681 13.0287 34.8515 13.0796C35.3567 13.3748 35.8775 13.6802 36.3983 13.9907C38.0442 16.6426 38.7681 19.7067 37.9244 22.7607C37.2212 25.2955 35.2733 27.2552 34.1744 29.6322C31.8567 34.6509 30.9973 39.7459 27.6483 44.3167C27.5233 44.4847 27.7421 44.7595 27.9244 44.6017C32.8671 40.2651 32.8358 32.4876 36.3931 27.2043C39.1171 23.1577 40.1744 18.307 36.9973 14.3521C38.3098 15.1512 39.6119 16.0216 40.7108 17.06C42.1275 21.193 40.815 25.6111 39.6379 29.7747C39.565 30.0394 39.9765 30.1412 40.091 29.9121C41.7421 26.5578 42.6848 21.7122 41.4765 17.854C42.2317 18.7193 42.8358 19.6966 43.1952 20.8265C44.2994 24.2928 42.0025 28.5124 41.7421 32.0295C41.716 32.396 41.7056 32.7676 41.6952 33.1391C41.6587 33.1493 41.6275 33.1697 41.6067 33.2155C40.8827 35.0886 40.2629 36.7683 39.0754 38.4327C38.0181 39.9139 36.841 41.3136 35.69 42.7286C35.4504 43.0289 35.8931 43.3801 36.1587 43.1053C38.6067 40.5909 40.8931 37.9797 41.6744 34.6203C41.6744 35.8725 41.7265 37.1297 41.7785 38.3818C41.1796 43.09 37.0077 44.7035 32.6692 46.1185C33.3358 45.4772 34.0129 44.8461 34.716 44.2454C34.7629 44.2047 34.7108 44.1284 34.6587 44.164C33.7369 44.8104 32.8827 45.5027 32.0754 46.2763C32.0598 46.2916 32.0494 46.3069 32.0442 46.3221C30.7942 46.7293 29.5442 47.1314 28.3723 47.5946C30.1535 46.0676 31.7525 44.3829 33.1587 42.5047C33.1848 42.464 33.1275 42.4181 33.1015 42.4538C31.5962 44.4287 29.8775 46.1898 27.9556 47.7626C26.6848 48.2971 25.5233 48.9231 24.5858 49.7273C20.7004 53.0613 19.1275 58.1054 18.4192 62.9816C17.7994 62.3148 17.2681 61.6022 16.8098 60.8591ZM26.3723 64.4882C25.5233 64.8292 24.6796 64.9667 23.8306 64.9361C24.3202 64.3406 24.6952 63.5924 25.0598 62.9918C26.0598 61.3324 26.7577 59.7342 27.2369 57.8764C27.2525 57.8051 27.1483 57.7847 27.1171 57.8407C25.815 60.0956 24.6535 62.8951 22.8254 64.8394C22.4452 64.7783 22.065 64.6867 21.6848 64.5798C22.0806 62.9103 22.6848 61.3833 23.4296 59.8105C24.1327 58.3344 24.6015 56.726 25.565 55.3772C25.6483 55.2601 25.5077 55.0769 25.3775 55.1787C24.0233 56.2425 23.3202 57.9425 22.6067 59.4441C21.8515 61.0474 21.091 62.6049 20.9712 64.3457C20.5754 64.2083 20.1848 64.0556 19.789 63.8825C20.716 56.8634 23.3619 50.4196 30.6587 47.7626C34.716 46.2916 40.315 44.8461 41.8515 40.6163C41.8619 41.1558 41.8671 41.6954 41.8619 42.2349C41.8515 42.8966 41.7994 43.5532 41.716 44.1945C40.1431 45.4721 38.5702 46.7293 36.5858 47.3554C34.9244 47.8797 33.2577 48.1545 31.8775 49.2692C31.6119 49.4779 31.9244 49.9004 32.1848 49.6866C33.8515 48.2971 36.039 48.1851 37.9504 47.2892C39.4296 46.597 40.5858 45.5434 41.69 44.4032C41.5025 45.8081 41.1796 47.1824 40.8306 48.5465C39.8775 49.4372 38.7265 49.9055 37.3671 50.0989C36.3098 50.2465 35.3619 50.3483 34.44 50.9184C34.1535 51.0965 34.4608 51.5088 34.7525 51.3358C36.0181 50.5926 37.5337 50.6333 38.8723 50.0938C39.6067 49.7935 40.2317 49.3456 40.7681 48.801C40.5025 49.8342 40.2369 50.8777 40.0025 51.9262C37.315 52.7559 33.5858 53.5957 31.4921 55.4943C30.565 56.3341 30.0754 57.459 29.5181 58.533C28.5442 60.4162 27.5025 62.1977 26.2577 63.9232C26.1015 64.137 26.2056 64.3762 26.3723 64.4882ZM32.315 59.3881C32.2525 59.439 32.2317 59.5001 32.2317 59.556C32.1119 59.6578 31.9973 59.7596 31.8775 59.8665C30.4556 61.1797 29.2369 62.7678 27.6015 63.8418C27.4035 63.9741 27.2004 64.0912 27.0025 64.1981C28.4712 62.0908 29.4712 59.836 30.7525 57.6371C32.6067 54.4712 36.7577 53.5804 39.9712 52.0534C39.8306 52.6948 39.7056 53.3412 39.6119 54.0029C39.5858 54.1556 39.5754 54.3083 39.5598 54.4661C38.2994 54.6799 37.0442 55.1634 35.966 55.8098C34.4452 56.7362 33.6379 58.2479 32.315 59.3881ZM34.164 58.2174C34.6483 57.6219 35.1223 57.0111 35.7473 56.553C36.8931 55.708 38.2473 55.3314 39.5285 54.7817C39.4712 55.6113 39.5025 56.4257 39.5858 57.235C37.6015 56.9754 35.7994 57.3317 34.164 58.2174ZM63.7004 90.503C64.6431 87.0418 64.3983 83.5654 63.9817 80.0075C63.5233 76.1086 62.7317 72.3115 61.0702 68.718C61.0442 68.662 60.9556 68.6925 60.9765 68.7587C62.1692 72.1333 62.8254 75.6047 63.2108 79.1524C63.6327 83.036 63.9608 86.996 62.69 90.7728C62.6535 90.8746 62.6692 90.9713 62.7004 91.0578C61.966 91.4395 61.216 91.806 60.5025 92.2081C60.1692 92.3965 59.841 92.595 59.5233 92.7986C60.5702 90.2231 60.1379 87.0673 60.216 84.3696C60.3046 81.2291 60.9452 77.5643 59.4035 74.6783C59.3827 74.6376 59.3098 74.658 59.3306 74.7038C60.7004 77.5745 59.9087 81.2647 59.7525 84.3594C59.6119 87.2301 59.8671 90.5539 58.4973 93.1651C58.4296 93.2923 58.4504 93.4094 58.5077 93.501C57.8567 93.9794 57.2369 94.4935 56.6379 95.0381C57.0702 92.4016 56.8567 89.8006 56.7473 87.1284C56.6067 83.7944 56.7108 80.4198 56.9348 77.091C56.94 77.0299 56.8462 77.0095 56.8358 77.0757C56.4712 79.809 56.0025 82.5219 55.94 85.2807C55.8619 88.6604 56.4087 91.9893 55.7681 95.3436C55.7369 95.5166 55.815 95.6388 55.9296 95.7151C55.841 95.7966 55.7525 95.878 55.6692 95.9594C54.4504 95.3741 53.3358 94.6666 52.3306 93.8522C52.4035 93.8318 52.466 93.7809 52.4869 93.6893C53.8306 88.0496 54.5181 81.6057 52.9035 75.9712C52.8879 75.9203 52.7994 75.9406 52.8046 75.9966C53.7577 82.0435 52.6692 87.6323 52.065 93.6231C52.065 93.6231 52.065 93.6231 52.065 93.6282C51.2212 92.9156 50.466 92.1165 49.7942 91.2512C49.9504 86.7721 51.8983 82.0282 50.1067 77.7018C50.0754 77.6305 49.9452 77.6508 49.9608 77.7374C50.7056 81.8043 48.7837 85.7184 48.7473 89.7141C48.0754 88.6044 47.5285 87.4083 47.1275 86.1256C47.065 85.9118 46.914 85.7643 46.7369 85.6777C47.0702 82.1351 48.4087 78.5976 47.5077 75.1313C47.4921 75.0753 47.4087 75.1008 47.4087 75.1517C47.6535 78.6587 45.9035 82.1911 45.8931 85.6574C45.6275 85.7643 45.4192 85.978 45.3983 86.2987C45.2421 88.5026 44.4244 90.6353 42.565 91.9944C41.1587 93.0225 40.8775 92.3761 40.1744 91.1596C39.6744 90.2892 39.3931 89.2661 39.1587 88.3041C38.1015 84.0184 38.7629 79.4832 39.9973 75.3095C41.1744 71.3393 43.1171 67.5066 42.8619 63.2768C42.7473 61.4291 42.2108 59.6375 42.0181 57.7949C41.7629 55.2907 42.3098 53.0663 42.9973 50.6893C44.1275 46.7955 44.3879 43.1766 44.1483 39.1453C43.94 35.7452 43.841 32.6047 44.3775 29.3879C45.0337 35.3584 44.9921 41.3289 44.2942 47.2994C43.841 51.2187 42.5337 55.7742 44.8254 59.3524C45.039 59.6935 45.6535 59.3779 45.4608 59.0165C43.0285 54.4305 45.1327 48.7908 45.341 43.9095C45.5598 38.9163 45.2317 33.9434 44.4504 29.0061C44.6015 28.1764 44.7837 27.3468 45.0285 26.5018C45.5077 24.8731 45.6796 23.3562 45.5806 21.9463C46.164 23.6515 46.664 25.377 46.8775 27.1381C47.315 30.7723 46.3879 34.376 46.0806 37.9848C45.6171 43.4412 46.5233 49.1013 48.9035 54.0742C49.1587 54.6137 50.0337 54.3032 49.7942 53.7382C47.0858 47.3401 46.2785 41.1507 47.2265 34.2895C47.9712 28.8992 47.3306 24.4913 45.1952 19.7678C44.565 17.5893 43.2525 15.7111 41.4192 14.1485C42.289 14.4692 43.1327 14.8509 43.9556 15.2683C46.9192 21.2286 49.5025 27.3162 50.2421 33.979C50.815 39.1657 49.565 46.1287 53.315 50.4043C53.565 50.6842 54.1015 50.4654 53.9348 50.0836C52.6327 47.0907 51.7577 44.2505 51.4712 40.998C51.1848 37.7456 51.0337 34.5185 50.466 31.2915C49.5494 26.0997 47.8358 20.9029 44.9869 16.3983C48.2629 21.0047 50.5337 25.9419 51.8515 31.5511C53.2525 37.5165 54.4765 43.4616 56.7733 49.1878C59.1483 55.1227 62.8306 60.3195 65.6275 66.0356C68.789 72.4845 67.7421 79.1218 66.7108 85.922C66.6483 86.3547 67.1587 86.5125 67.4192 86.2834C67.3462 86.6448 67.2369 86.996 67.1171 87.3421C67.1327 87.0622 67.0962 86.7873 67.0181 86.5125C66.9765 86.3801 66.7421 86.4361 66.7733 86.5735C66.8567 86.9502 66.8462 87.3218 66.7369 87.6882C66.716 87.7086 66.7004 87.7341 66.6796 87.7595C65.966 88.9811 64.8931 89.8108 63.7004 90.503ZM77.4608 78.7452C76.8098 81.7126 75.7837 84.9702 73.8306 87.393C73.6379 87.6272 73.4608 87.8409 73.289 88.0395C74.7108 82.9699 74.2369 77.1215 72.7785 72.2657C72.7525 72.1842 72.6223 72.2199 72.6327 72.3013C73.0962 75.4469 73.2942 78.6078 73.0754 81.7839C72.8983 84.3289 72.3046 86.7161 71.815 89.1796C71.2681 89.3629 70.6483 89.2763 69.841 88.8386C71.2317 84.3034 71.3202 79.4069 70.2473 74.8107C70.2369 74.7648 70.1692 74.7699 70.1744 74.8157C70.7473 79.5596 70.3775 83.942 69.2473 88.4772C68.8306 88.1973 68.466 87.9478 67.8723 87.8104C67.716 87.7748 67.5806 87.7799 67.4608 87.8104C67.4504 87.785 67.4348 87.7646 67.4244 87.7442C67.6275 87.1589 67.6744 86.5023 67.6692 85.8966C67.6692 85.8559 67.6431 85.8406 67.6067 85.8304C68.8619 79.8904 69.789 73.5534 67.5858 67.7152C66.4452 64.6867 64.6015 61.984 62.9556 59.2099C61.0442 55.9931 59.4556 52.6642 58.0025 49.2285C55.289 42.8406 53.7056 36.2898 51.7369 29.6678C50.2317 24.5982 48.1067 19.8289 44.8098 15.7111C45.2056 15.93 45.591 16.1743 45.9765 16.4135C47.8931 18.0678 49.0598 20.343 50.2056 22.7251C51.789 26.0234 53.1015 29.4133 54.1848 32.8999C55.1327 35.959 56.0442 38.957 57.69 41.7412C59.4035 44.6374 61.6015 47.2231 63.789 49.7884C64.1015 50.1498 64.716 49.7171 64.4035 49.3558C61.9087 46.5003 59.3775 43.6143 57.5858 40.2702C55.6275 36.6156 54.7837 32.4978 53.3619 28.6294C52.4087 26.0437 51.1744 21.8547 49.1223 18.7447C49.5754 19.1367 50.0181 19.554 50.4452 19.9765C52.9244 22.4604 53.7577 25.6264 55.4192 28.5786C55.6379 28.9705 55.9035 29.337 56.1848 29.6983C56.7629 31.4137 57.2577 33.19 57.7056 35.0581C58.1952 37.0788 59.1379 38.5956 60.3046 40.2855C62.0598 42.8406 63.4087 45.5637 64.3254 48.5057C64.4608 48.9333 65.1171 48.6839 64.9869 48.2614C64.2265 45.7826 63.1952 43.4514 61.7369 41.2882C60.9921 40.1837 60.0962 39.1708 59.3983 38.0357C58.3202 36.2847 58.0858 34.32 57.6379 32.3655C57.5233 31.8819 57.3931 31.3984 57.2577 30.9199C58.5285 32.2128 60.0025 33.3682 61.1483 34.6967C65.0598 39.242 67.1483 44.8919 69.4817 50.2974C70.7004 53.1172 71.7942 55.9982 73.2785 58.706C74.341 60.6453 75.4087 63.1139 77.0494 64.758C77.0598 64.8038 77.065 64.8496 77.0806 64.8903C77.289 65.5113 77.5181 66.1323 77.7681 66.7532C77.9192 67.5218 78.0337 68.3057 78.1067 69.1353C78.3671 72.342 78.1535 75.5996 77.4608 78.7452ZM114.851 79.9871C114.242 80.5725 110.497 83.657 109.789 82.8884C109.768 82.8681 109.841 81.5345 109.805 81.2444C109.716 80.4452 109.497 79.6461 109.263 78.8826C108.049 74.8819 106.351 70.586 104.289 66.9263C102.753 64.193 100.617 61.8669 97.4504 61.0678C96.5546 60.8387 96.164 62.2079 96.9817 62.5642C101.268 64.4526 103.065 68.0054 104.779 72.057C104.987 72.5456 105.19 73.0343 105.398 73.5178C105.159 74.8361 104.388 75.8745 102.841 76.6074C102.013 76.9993 100.7 77.6712 99.8254 77.8494C95.9556 78.6179 93.3671 74.9481 90.6119 73.0292C90.1587 72.7136 89.5285 73.2226 89.8775 73.7061C90.815 74.999 92.065 76.3376 93.4973 77.3658C93.0181 77.3658 92.5285 77.3607 92.0337 77.2844C89.7421 76.9281 87.5077 76.0272 85.6327 74.6885C82.164 72.2148 81.091 68.5602 79.164 65.1041C78.69 62.2639 76.3671 59.3474 74.9192 56.8431C76.6379 58.8027 78.1848 60.8591 79.815 62.9052C79.9712 63.1037 80.3462 62.9358 80.2317 62.6813C78.4817 58.9045 75.2369 56.1712 72.7785 52.8933C71.8983 51.1881 71.0598 49.4677 70.2837 47.6913C67.8827 42.1942 65.4035 36.5087 61.1587 32.0906C59.0546 29.9019 56.914 28.0645 55.2629 25.6264C54.5806 24.2114 53.7942 22.8473 52.8983 21.5493C52.0077 20.0427 51.0181 18.592 49.815 17.3094C47.9296 15.2988 45.5598 13.7617 42.9765 12.6979C45.6223 13.0898 48.2265 13.6751 50.7369 14.5913C51.0442 14.7033 51.3462 14.8306 51.6535 14.9527C55.091 16.9225 56.6431 20.964 59.0025 24.1147C60.2525 25.7842 61.7577 27.1992 63.3827 28.4818C63.3879 28.5124 63.3983 28.5429 63.4192 28.5684C64.2421 29.8561 65.0806 31.1235 65.9296 32.3706C65.9296 32.3858 65.9192 32.396 65.9244 32.4113C66.9869 36.6614 68.5546 40.6774 70.5546 44.5763C69.7108 43.2936 68.8358 42.0262 67.9244 40.7843C67.7837 40.5909 67.4921 40.8046 67.6171 41.0031C69.6223 44.1029 71.6587 47.1773 73.5598 50.3381C75.1431 52.9696 76.3879 55.8862 78.841 57.8662C78.9192 57.9273 79.0077 57.8204 78.9348 57.7542C76.5442 55.4077 75.1744 52.0025 73.4608 49.1776C72.6379 47.8186 71.7942 46.4698 70.9244 45.1362C69.0494 41.1915 67.5442 37.094 66.3098 32.9152C71.8567 40.9319 78.2108 47.9866 87.5025 52.2265C100.003 57.9374 110.19 66.6311 113.159 80.3282C113.19 80.4656 113.404 80.4503 113.388 80.3027C111.784 68.6416 103.107 59.3321 92.8567 53.8298C90.0181 52.3079 86.9921 51.1576 84.1952 49.5645C81.341 47.9357 78.7733 45.8946 76.4244 43.6296C72.0025 39.3642 68.3671 34.4218 64.7369 29.5151C65.5077 30.0801 66.2994 30.6196 67.0962 31.1541C70.2212 33.246 73.3619 35.2668 76.0025 37.9492C78.7473 40.7385 81.039 43.9451 83.9973 46.5359C89.4869 51.3358 96.6171 53.6568 102.857 57.3063C110.482 61.7753 115.565 68.8045 116.612 77.5083C116.617 77.5389 116.664 77.5338 116.664 77.5032C115.893 70.4078 112.351 63.8571 106.648 59.3626C100.07 54.181 91.5546 51.9567 85.2108 46.4443C82.0025 43.6601 79.7056 40.0869 76.7577 37.0635C73.7265 33.9586 69.9765 31.7852 66.4192 29.3217C62.6379 26.7054 59.9973 23.738 57.4712 19.9867C60.9973 23.9467 65.7108 26.7614 70.1067 29.7441C72.789 31.5664 75.4035 33.4547 77.7369 35.7045C80.4452 38.3207 83.0077 40.9522 86.0806 43.1715C97.6379 51.5139 112.904 56.4664 119.581 69.8683C119.195 73.6451 117.643 77.2996 114.851 79.9871ZM54.5702 16.3219C55.0702 16.5917 55.565 16.8665 56.0546 17.1567C55.8515 17.1058 55.6327 17.2585 55.6015 17.4621C55.2733 17.0651 54.9296 16.6833 54.5702 16.3219ZM102.253 44.4236C106.419 46.1593 110.164 48.6788 113.305 51.8702C113.961 52.5319 114.575 53.2343 115.169 53.9571C112.148 51.9415 109.039 50.0785 105.799 48.4141C102.435 46.6886 99.3723 45.014 96.7837 42.4538C98.6327 43.0493 100.466 43.6805 102.253 44.4236ZM96.3827 42.3214C98.341 44.3625 100.617 45.9506 103.2 47.2994C107.346 49.4677 111.424 51.6106 115.341 54.1658C117.404 56.7311 119.07 59.6171 120.294 62.6355C118.867 60.7115 117.299 58.8333 115.716 57.1332C113.586 54.8529 111.034 53.5244 108.211 52.2163C104.482 50.4857 100.867 48.5668 97.4192 46.3476C94.19 44.2709 91.3254 41.7819 88.2056 39.5881C90.8827 40.6163 93.6431 41.4409 96.3827 42.3214ZM85.9452 37.2976C85.5442 37.6794 85.5233 38.4632 86.1431 38.7381C86.7733 39.0181 87.4087 39.2776 88.0494 39.527C87.8775 39.522 87.7577 39.7357 87.9087 39.8935C92.7837 44.8664 99.5858 48.7195 105.851 51.7633C109.544 53.555 113.081 55.0158 115.825 58.1563C117.654 60.2432 119.242 62.5388 121.049 64.6409C121.575 66.1272 122.029 67.6491 122.362 69.1761C122.482 69.7258 122.565 70.2653 122.68 70.7845C122.529 70.6878 122.378 70.586 122.232 70.4791C121.628 70.021 121.148 69.3746 120.471 69.0285C120.169 68.8707 119.773 69.115 119.716 69.4255C119.68 69.4102 119.622 69.4204 119.617 69.4713C119.612 69.568 119.596 69.6698 119.591 69.7767C113.461 57.2045 99.5858 52.0331 88.6535 44.3625C82.7004 40.1837 78.2994 34.4371 72.3879 30.243C66.6744 26.1863 60.6171 22.8676 56.2577 17.2839C56.2525 17.2738 56.2369 17.2687 56.2317 17.2585C58.289 18.4953 60.2369 19.9154 62.1223 21.4272C68.2369 26.3339 73.7473 32.2688 80.9869 35.6485C82.6275 36.412 84.2733 36.9312 85.9452 37.2976ZM40.9921 4.66592C44.6067 3.40361 48.2629 2.46705 52.1431 2.00896C56.8254 1.45415 61.5702 1.35744 66.2733 1.01133C66.315 1.00624 66.315 0.940067 66.2733 0.940067C59.3098 0.369991 51.4869 0.125671 44.4244 1.86135C47.2473 0.395439 50.3931 -0.474941 53.664 -0.607281C60.9035 -0.892319 67.4556 0.756828 73.9348 -3.38131C76.8254 -5.22897 79.4192 -7.72813 82.7525 -8.82757C86.7942 -10.1611 91.2942 -9.29076 95.4608 -10.0339C102.539 -11.2911 112.378 -16.2487 118.591 -10.268C118.628 -10.2324 118.664 -10.1917 118.7 -10.156C111.19 -12.0393 103.419 -11.7339 96.0337 -9.37219C92.3983 -8.21168 88.8931 -6.69996 85.3567 -5.28495C81.5181 -3.75288 77.69 -2.80106 73.6848 -1.81869C73.289 -1.72198 73.4817 -1.16718 73.841 -1.17736C80.966 -1.4115 87.6744 -5.6667 94.19 -8.06916C102.138 -11.001 110.555 -11.5711 118.867 -9.9779C119.794 -9.02099 120.56 -7.94191 121.299 -6.84248C114.471 -9.7234 106.919 -10.1917 99.7317 -8.08952C91.7004 -5.74814 84.7108 -1.40132 76.3879 0.176571C75.9921 0.252922 76.0442 0.812817 76.4556 0.792458C83.6744 0.415802 90.1535 -3.82923 96.7004 -6.39965C104.773 -9.5707 113.378 -9.73358 121.44 -6.63379C122.367 -5.24932 123.289 -3.84959 124.508 -2.67381C116.893 -4.32295 109.159 -6.80176 101.284 -5.85503C94.1015 -4.99483 88.6952 -0.398594 82.815 3.28145C79.0546 5.6381 75.0754 7.32796 70.591 7.8166C65.8462 8.33578 61.2994 7.32288 56.716 6.25908C54.289 5.69409 51.4817 5.07311 48.6431 4.79317C50.4556 4.56921 52.315 4.49286 54.2265 4.51322C59.7629 4.56921 65.7369 5.24617 70.9504 3.02695C71.2212 2.91497 71.1431 2.43652 70.8202 2.50777C64.3619 3.89734 58.1483 2.99132 51.6327 2.96587C47.9765 2.9506 44.0962 3.34253 40.815 4.93568C40.8827 4.85424 40.94 4.76772 40.9921 4.66592ZM39.4921 5.37342C39.5754 5.37342 39.6587 5.36833 39.7473 5.37342C39.8306 5.3836 39.9087 5.37851 39.9869 5.36833C39.7265 5.51594 39.4712 5.67373 39.2212 5.83661C39.0962 5.8926 38.966 5.93841 38.841 5.9944C39.0546 5.78062 39.2733 5.57702 39.4921 5.37342ZM48.6587 6.17764C52.5285 6.36087 56.3046 7.29742 60.1015 7.97439C67.3567 9.26215 74.2265 8.98729 80.7942 5.40396C87.3671 1.82063 92.7421 -3.8445 100.404 -5.27987C108.581 -6.80685 116.685 -3.86995 124.674 -2.50584C124.721 -2.45494 124.768 -2.40404 124.82 -2.35314C126.159 -1.16718 127.747 -0.393505 129.445 0.0747719C127.664 0.965515 125.742 1.49996 123.69 1.60176C120.883 1.7341 118.372 0.63467 115.784 -0.276436C112.075 -1.58455 108.2 -2.76542 104.226 -2.88249C96.2421 -3.11154 90.6067 1.98351 84.9035 6.69681C77.966 12.4332 69.1275 15.874 60.2629 11.9751C56.3462 10.2547 53.0337 7.52647 48.6587 6.94113C45.6796 6.54411 42.7056 6.94113 39.8046 7.62827C42.6275 6.56447 45.4192 6.02494 48.6587 6.17764ZM41.6587 9.60318C45.2994 8.92112 48.8931 8.90585 52.6275 10.387C56.6952 12.0056 60.3306 13.9093 64.7369 14.571C69.341 15.2632 73.8671 14.8764 78.0754 13.4461C82.1431 15.0952 86.565 15.4414 90.7785 16.668C93.1327 17.3501 95.4035 18.2459 97.565 19.3861C99.7108 20.5161 101.612 22.1907 103.846 23.1018C103.935 23.1425 104.034 23.0407 103.971 22.9541C101.487 19.6915 96.1275 17.7268 92.3358 16.4695C87.9817 15.024 83.3098 14.6982 79.0233 13.1C80.5129 12.5299 81.9608 11.8275 83.3567 10.9927C85.2785 11.5374 87.2785 11.8479 89.2212 12.3212C90.0285 12.5197 96.8619 14.7186 96.8827 14.6982C96.8567 14.7237 96.8827 14.7644 96.914 14.7593C97.1587 14.7288 97.4087 14.7033 97.6535 14.6779C97.9452 14.6422 98.0442 14.2147 97.7473 14.1027C93.5285 12.5248 88.8827 11.008 84.3358 10.3718C84.7733 10.0816 85.2004 9.77624 85.6275 9.46066C86.5285 9.60318 87.44 9.73043 88.3358 9.91875C89.289 10.1173 90.315 10.5703 91.2525 10.2292C91.3046 10.2089 91.3306 10.1427 91.2942 10.102C90.7056 9.36395 89.6483 9.25197 88.7473 9.04837C88.0754 8.90076 87.3827 8.75824 86.69 8.64117C87.7317 7.81151 88.7369 6.94113 89.7525 6.08092C96.1015 6.71717 102.206 8.09146 108.351 9.93912C108.487 9.97475 108.586 9.79151 108.445 9.73552C102.794 7.35342 96.6848 5.98422 90.5442 5.41414C91.5546 4.56921 92.5806 3.74972 93.664 3.0015C98.414 3.11348 103.122 3.73446 107.789 4.69137C107.851 4.70155 107.862 4.60992 107.805 4.58957C103.351 3.44432 98.8462 2.83353 94.2837 2.58921C94.5754 2.40089 94.8619 2.20747 95.164 2.02932C95.8098 1.64757 96.4765 1.32181 97.1535 1.03677C97.2369 1.1284 97.3515 1.18947 97.5025 1.17421C100.435 0.782276 103.107 1.08258 106.013 1.45924C108.82 1.82063 111.799 1.95806 114.294 3.37307C114.372 3.41888 114.445 3.30181 114.378 3.25091C112.018 1.45924 108.997 1.22001 106.143 0.690659C104.305 0.354721 102.487 -0.0168457 100.659 -0.0422974C103.154 -0.551292 105.753 -0.597103 108.32 -0.352783C115.82 0.35981 122.872 3.88715 129.7 0.135853C130.638 0.380169 131.596 0.53796 132.565 0.6194C132.575 1.02151 132.94 1.40834 133.378 1.33708C133.596 1.30654 133.81 1.29128 134.013 1.21492C134.107 1.17929 134.195 1.13348 134.284 1.08258C133.049 3.78535 132.346 6.66118 131.799 9.593C130.997 8.75315 130.159 7.94894 129.112 7.40432C127.419 6.52375 125.487 6.47285 123.904 5.32252C123.695 5.17491 123.466 5.44977 123.648 5.62792C124.628 6.56956 125.888 6.81897 127.174 7.15491C129.039 7.64863 130.398 8.52411 131.773 9.72025C131.435 11.5374 131.154 13.3748 130.841 15.2021C127.706 10.8757 122.096 8.4783 117.128 6.86478C116.784 6.7528 116.539 7.22617 116.888 7.37886C122.075 9.67953 126.872 11.5934 130.758 15.6806C130.101 19.4217 129.289 23.1119 127.544 26.512C126.154 29.225 124.107 31.6834 121.648 33.6583C118.747 24.2063 108.555 19.2232 100.133 15.2225C99.841 15.0851 99.6275 15.533 99.9192 15.6704C104.253 17.7268 108.628 19.8136 112.482 22.664C116.601 25.7129 119.258 29.3522 121.445 33.8161C117.409 36.9821 112.299 38.845 107.143 38.4073C104.878 38.2138 102.737 37.4707 100.57 36.8497C98.9348 36.3815 97.315 36.0913 95.664 35.903C94.6483 34.7425 93.3046 33.7907 92.0233 33.0373C91.7733 32.8897 91.591 33.2918 91.8358 33.4395C92.9973 34.1266 93.966 34.9512 94.9087 35.8266C94.3254 35.7707 93.7317 35.7248 93.1327 35.6943C88.7004 35.4449 84.7108 34.7272 80.7942 32.5844C75.6171 29.7543 71.3827 25.606 67.0025 21.6918C72.3983 23.7176 78.1119 25.0258 83.1275 28.0187C83.2004 28.0594 83.2733 27.9423 83.2056 27.8914C80.2317 25.6162 76.8462 24.2266 73.3098 22.9592C70.3515 21.9005 67.4765 20.8113 64.6119 19.5999C64.0337 19.1112 63.4504 18.6277 62.8567 18.1594C56.4869 13.1051 49.3931 10.6364 41.6587 9.60318ZM-1.16417 101.894C-0.315214 99.4511 -0.450632 96.5041 -0.815216 94.1423C-1.27355 91.2003 -2.31522 88.4467 -3.46626 85.7235C-1.84646 86.6346 -0.0443821 87.2454 1.48687 88.3194C3.28895 89.5715 4.60145 91.2309 5.66916 93.0887C3.74208 96.1478 1.17958 99.0134 -1.16417 101.894ZM5.99208 92.5899C5.09103 90.8135 3.66395 89.2712 2.04937 88.0853C0.242077 86.7619 -1.96105 86.1205 -3.81522 84.904C-4.03917 84.3849 -4.26313 83.8657 -4.48709 83.3465C-3.68501 83.7588 -2.83605 84.0795 -1.99751 84.4103C-0.731882 84.9091 0.507702 85.4538 1.66916 86.1714C3.71604 87.4439 5.43478 89.1236 6.86187 91.0374C6.59624 91.5617 6.29937 92.0809 5.99208 92.5899ZM6.96603 90.8338C5.73166 88.8844 4.04416 87.2301 2.09103 85.9577C-0.0183392 84.5783 -2.46626 83.8402 -4.73709 82.7612C-4.85688 82.4761 -4.97146 82.1911 -5.09126 81.901C-2.85688 82.98 -0.445423 83.6723 1.73687 84.8633C3.04937 85.5708 4.25249 86.4768 5.30458 87.5203C5.87749 88.0904 6.41395 88.7012 6.89833 89.3425C7.05458 89.5512 7.20041 89.7904 7.34624 90.0296C7.22645 90.2994 7.10145 90.5692 6.96603 90.8338ZM8.50249 81.7483C8.99208 84.6394 8.51291 87.2709 7.46603 89.7446C7.35666 89.5919 7.24728 89.4443 7.14312 89.3018C6.73166 88.7266 6.28374 88.1718 5.78895 87.6577C4.8202 86.6397 3.71083 85.7439 2.49728 85.0109C0.0754108 83.5348 -2.71626 82.8121 -5.23709 81.5447C-7.06522 76.9942 -8.26834 72.4184 -8.72667 67.7458C-5.87771 68.1988 -3.14855 68.9776 -0.612091 70.3926C2.14833 71.9246 4.23687 73.9963 6.5077 76.0882C7.41395 77.8952 8.16395 79.753 8.50249 81.7483ZM5.34624 73.9046C1.97124 69.909 -3.68501 67.4455 -8.79959 66.9009C-8.88813 65.8523 -8.93501 64.7987 -8.94542 63.74C-4.6798 65.3942 0.617077 67.2164 3.59624 70.7489C4.16395 71.8025 4.76291 72.851 5.34624 73.9046ZM2.68999 68.9521C2.73166 69.0437 2.77333 69.1303 2.81499 69.2168C1.71603 68.1479 0.314993 67.303 -0.950632 66.5547C-3.36209 65.1245 -6.16418 63.8367 -8.94542 63.175C-8.94022 62.0043 -8.89334 60.8285 -8.78917 59.6426C-4.53917 60.9761 -1.1798 63.8214 1.84103 66.9874C2.10666 67.6491 2.3827 68.3057 2.68999 68.9521ZM-0.575632 56.4054C-0.377716 59.6935 0.341036 62.9714 1.49208 66.0814C-1.31001 62.9001 -4.57042 60.289 -8.73188 59.0165C-8.60688 57.7593 -8.4298 56.4919 -8.19022 55.2092C-7.23709 50.1091 -5.53918 45.2125 -3.4298 40.4738C-2.78397 42.9068 -1.58084 45.3449 0.387909 46.9278C-0.388132 49.9513 -0.77355 53.0867 -0.575632 56.4054ZM1.20041 44.1895C0.960825 44.902 0.747284 45.6146 0.549368 46.3374C0.0441589 45.5027 -0.851673 44.7188 -1.35688 43.9757C-2.21626 42.7032 -2.8048 41.3493 -3.16938 39.8986C-2.89855 39.2929 -2.6173 38.6872 -2.33084 38.0917C-2.11209 38.8959 -1.77876 39.6848 -1.45063 40.3058C-0.789175 41.5427 0.0910339 43.2325 1.20041 44.1895ZM1.60666 43.0442C1.12228 42.016 0.325409 41.0642 -0.237091 40.1175C-0.929798 38.9519 -1.03396 37.598 -1.49751 36.3815C-1.28396 35.9437 -1.06001 35.5111 -0.836048 35.0784C-0.539173 35.9539 -0.179798 36.809 0.226452 37.6234C0.679577 38.5345 1.45562 40.316 2.54416 40.7079C2.21083 41.4816 1.89833 42.2604 1.60666 43.0442ZM14.3358 9.77115C15.1587 17.0956 11.289 24.588 7.62228 30.925C5.87749 33.9434 4.20041 36.9668 2.8202 40.0615C2.45562 39.2267 1.5077 38.4225 1.05458 37.7201C0.341036 36.6309 -0.127714 35.5212 -0.455841 34.3404C0.606661 32.3095 1.72124 30.304 2.86187 28.3241C5.15874 24.3386 8.66395 21.4068 11.1067 17.5588C12.5806 15.2327 13.7473 12.535 14.3358 9.77115ZM-17.8569 39.4812C-15.3985 36.2135 -12.3673 33.4802 -10.711 29.6983C-9.01834 25.8198 -8.31001 21.3712 -5.53397 18.022C-2.01313 13.7719 3.00249 15.6297 7.60666 13.9602C8.91916 13.4868 10.0702 12.764 11.0546 11.8733C10.3046 14.3623 9.14833 16.6782 7.27333 18.9076C4.34624 22.3942 1.68999 25.4991 -0.518341 29.4998C-1.76834 31.7547 -2.96626 34.0553 -4.07563 36.4018C-7.10688 35.9386 -10.1433 36.6105 -13.0027 37.6234C-14.5288 38.1629 -16.4663 38.733 -18.0027 39.6797C-17.9506 39.6136 -17.9038 39.5423 -17.8569 39.4812ZM-19.2631 41.4918C-15.211 38.7076 -9.42459 36.9821 -4.48709 37.2773C-5.2423 38.9061 -5.94542 40.5603 -6.60688 42.2247C-10.0652 42.1891 -18.4402 42.3316 -20.9558 44.2709C-20.4194 43.314 -19.8569 42.3876 -19.2631 41.4918ZM-21.6694 45.6146C-21.6642 45.7012 -21.6538 45.7928 -21.6329 45.8895C-21.6173 45.9404 -21.5548 45.9455 -21.5131 45.9251C-17.2996 43.3496 -11.8985 43.4209 -6.98188 43.1918C-7.34126 44.1335 -7.6798 45.0853 -7.99751 46.0371C-11.409 46.0117 -14.8829 46.6225 -18.1538 47.4674C-19.6954 47.8644 -22.2163 48.3276 -23.4663 49.6153C-22.935 48.2461 -22.336 46.9075 -21.6694 45.6146ZM-25.784 67.0637C-26.5808 61.9585 -25.8569 56.5377 -24.1329 51.4376C-24.0913 51.4426 -24.0496 51.4325 -24.0288 51.4019C-20.5548 47.4368 -13.5808 47.2231 -8.26313 46.8413C-9.06521 49.3303 -9.73709 51.8549 -10.2215 54.4203C-10.7527 57.2197 -11.06 60.0701 -11.1121 62.9205C-11.2215 62.9867 -11.2996 63.0987 -11.3048 63.2666C-11.4246 66.6362 -14.2267 67.9799 -16.7058 69.6851C-18.185 70.7031 -19.4506 71.8992 -20.5235 73.3193C-21.6069 74.7445 -22.31 76.0933 -22.409 77.5134C-24.034 74.154 -25.2267 70.6318 -25.784 67.0637ZM-21.9246 78.4907C-21.9975 78.0733 -22.034 77.6508 -22.0079 77.2335C-21.9194 75.9152 -20.909 74.663 -20.086 73.6756C-18.7058 72.0163 -16.9454 70.8456 -15.1329 69.6952C-13.5288 68.6722 -11.9663 67.5422 -11.0652 66.005C-11.0548 66.2341 -11.0496 66.4631 -11.034 66.6871C-11.0965 66.7329 -11.1381 66.8041 -11.159 66.9009C-11.9402 71.8127 -17.2371 74.3729 -18.8413 79.0557C-19.2892 80.3536 -19.4663 81.7025 -19.3152 82.9902C-20.2579 81.5345 -21.1329 80.0279 -21.9246 78.4907ZM-18.6642 83.9726C-19.4871 80.4656 -17.2111 76.9026 -14.6642 74.1642C-13.3673 72.7747 -11.5444 71.2579 -10.7683 69.4458C-10.6694 70.189 -10.5548 70.9321 -10.409 71.6701C-10.461 71.7058 -10.5079 71.7465 -10.5496 71.8076C-12.409 74.7139 -14.6642 77.0146 -15.7058 80.3943C-16.3777 82.583 -16.6642 85.0517 -16.185 87.332C-17.0444 86.2529 -17.8725 85.128 -18.6642 83.9726ZM-13.2371 90.7575C-13.56 90.4114 -13.8777 90.0602 -14.1954 89.7039C-14.1433 89.5868 -14.1433 89.4443 -14.2163 89.2865C-15.8308 85.8355 -16.2475 82.5118 -14.5496 78.9793C-13.4506 76.699 -11.3777 75.0702 -10.1485 72.907C-9.72667 74.7648 -9.15896 76.5921 -8.4298 78.3736C-7.8673 79.7377 -7.24751 81.0764 -6.6173 82.41C-6.73709 82.4558 -6.84126 82.5627 -6.83605 82.7255C-6.82563 86.1816 -10.4871 90.7473 -9.63813 94.4172C-10.8673 93.16 -12.1225 91.9485 -13.2371 90.7575ZM-9.28917 94.7735C-10.2423 91.1749 -6.38813 87.0418 -6.1798 83.3312C-5.90376 83.9217 -5.63292 84.507 -5.35688 85.0975C-5.83084 88.3194 -8.71626 93.0632 -7.67459 96.5092C-8.19542 95.9187 -8.73709 95.3436 -9.28917 94.7735ZM-5.90376 98.7386C-5.86209 98.6877 -5.84647 98.6266 -5.88813 98.5655C-8.75272 94.5342 -5.52876 90.7728 -4.63292 86.7059C-4.13292 87.8613 -3.66418 89.0269 -3.26313 90.2231C-2.54438 92.3812 -2.04438 94.6208 -1.96105 96.896C-1.8673 99.5071 -2.69021 101.726 -3.16417 104.241C-3.1798 104.317 -3.15896 104.378 -3.12772 104.434C-3.24751 104.597 -3.36209 104.755 -3.47667 104.923C-3.60688 102.673 -4.56001 100.637 -5.90376 98.7386Z" fill="#FFF8EF"/>
</g>
</g>
</g>
</g>
</g>
</g>
</svg>
