<svg width="119" height="282" viewBox="0 0 119 282" fill="none" xmlns="http://www.w3.org/2000/svg">
<mask id="mask0_3_19647" style="mask-type:luminance" maskUnits="userSpaceOnUse" x="0" y="0" width="119" height="282">
<path d="M-1.49012e-08 0H118.396V281.433H-1.49012e-08V0Z" fill="white"/>
</mask>
<g mask="url(#mask0_3_19647)">
<mask id="mask1_3_19647" style="mask-type:luminance" maskUnits="userSpaceOnUse" x="-60" y="-329" width="716" height="1295">
<path d="M655.008 -328.406H-60V965.673H655.008V-328.406Z" fill="black" fill-opacity="0.21"/>
</mask>
<g mask="url(#mask1_3_19647)">
<mask id="mask2_3_19647" style="mask-type:luminance" maskUnits="userSpaceOnUse" x="0" y="0" width="119" height="282">
<path d="M118.667 0H-3.27827e-09V281.433H118.667V0Z" fill="white"/>
</mask>
<g mask="url(#mask2_3_19647)">
<mask id="mask3_3_19647" style="mask-type:luminance" maskUnits="userSpaceOnUse" x="0" y="2" width="118" height="280">
<path d="M-2.563e-08 2.24951H117.542V281.35H-2.563e-08V2.24951Z" fill="white"/>
</mask>
<g mask="url(#mask3_3_19647)">
<path d="M0.755211 190.764C-0.197914 189.545 -1.0625 188.213 -2.02083 187.1C-4.19791 184.775 -6.65625 183.109 -9.39062 182.11L-8.17708 183.109V183.442H-9.21354C-12.2552 181.93 -15.4062 181.077 -18.6667 180.89C-20.3646 180.97 -22.0417 181.263 -23.6979 181.776C-27.6823 182.556 -31.5885 183.662 -35.0573 186.66C-35.9375 187.36 -36.7188 188.206 -37.3958 189.212C-38.6094 190.984 -39.651 192.983 -40.8646 194.755C-42.276 196.927 -43.2865 199.366 -43.901 202.078C-45.6354 208.84 -49.3594 213.831 -53.1771 218.828C-53.6667 219.294 -54.1875 219.707 -54.7396 220.047L-55 219.714C-54.875 219.201 -54.7031 218.721 -54.4792 218.268C-51.0104 214.39 -49.1042 209.4 -47.3698 204.07C-45.6354 198.746 -43.1198 191.757 -40.776 185.767C-39.8229 183.442 -38.1771 181.443 -36.7865 179.338L-36.1823 178.891L-36.0104 179.118L-36.2708 179.891C-39.9948 184.328 -41.9063 190.318 -43.9844 195.975L-49.3594 211.505C-49.3594 211.612 -49.4479 211.725 -49.4479 211.945L-49.276 212.172C-48.2135 210.493 -47.2604 208.714 -46.4115 206.848C-45.026 203.41 -43.901 199.639 -42.6875 196.088C-39.6354 186.953 -35.2708 179.005 -29.5938 172.235C-29.2448 171.796 -28.724 171.463 -29.5052 170.683L-32.8854 175.454L-34.7969 178.119C-35.0521 178.365 -35.3385 178.478 -35.6615 178.452L-26.8177 164.253L-26.5573 164.473C-26.9896 166.579 -28.6406 167.911 -29.1562 169.91L-28.9844 170.243C-28.3333 169.844 -27.6927 169.397 -27.0781 168.911C-25.3646 167.352 -23.4531 166.652 -21.3542 166.805C-17.974 166.912 -14.5938 166.805 -11.2083 166.579C-9.23958 166.599 -7.39062 166.006 -5.66146 164.807L-5.05208 164.253L-4.88021 164.027L-11.125 165.253C-11.8542 165.286 -12.5729 165.213 -13.2917 165.026L-19.7083 164.36H-23C-23.2604 164.36 -23.5208 164.92 -23.7812 165.253L-25.6927 167.025H-26.3854C-26.2969 166.692 -26.2969 166.359 -26.125 166.139C-25.9479 165.913 -23.6094 163.474 -22.4844 162.035C-21.3542 160.589 -19.8802 156.711 -18.6667 154.046L-19.276 153.38L-19.7083 153.047C-20.5729 155.046 -21.4427 157.044 -22.3958 158.817C-23.276 160.796 -24.4271 162.461 -25.8646 163.807L-26.2083 163.474L-25.5156 162.368C-23.4375 159.596 -21.7917 156.451 -20.5729 152.94L-23.349 148.836C-23.4323 148.589 -23.5781 148.476 -23.7812 148.503C-25.5156 148.609 -26.5573 147.057 -27.5104 145.505C-28.0208 144.738 -28.4844 143.926 -28.901 143.066C-29.0677 142.686 -29.1823 142.28 -29.2448 141.847H-28.901L-28.4635 142.513C-27.6823 143.732 -26.9896 145.065 -26.125 146.284C-25.849 146.777 -25.4948 147.15 -25.0573 147.39C-24.6198 147.63 -24.1667 147.703 -23.6979 147.617C-23.4375 147.617 -23.0885 148.056 -22.8281 148.39C-21.2656 149.942 -19.8802 151.721 -18.2344 153.16C-16.5833 154.599 -12.7708 155.266 -9.82291 154.826C-8.83854 154.633 -7.88541 154.779 -6.96354 155.266C-4.01562 156.378 1.1875 154.493 3.35938 151.275C0.927086 150.608 -0.458332 148.609 -1.76041 146.284L-1.5 145.951L-0.71875 146.724C0.0885429 147.817 0.953125 148.809 1.88542 149.722C3.35938 150.941 4.13542 150.608 5.26562 148.503C3.61979 147.81 2.34896 146.517 1.44792 144.618C1.38021 144.365 1.34896 144.112 1.36459 143.846H1.625L2.22917 144.732C2.76563 145.485 3.34375 146.191 3.96354 146.837C5.09375 147.837 5.4375 147.723 6.65104 146.617C7.68229 145.784 8.75521 145.045 9.85938 144.399C8.58854 142.913 7.11459 141.913 5.4375 141.4V140.961C5.69792 140.961 6.13021 140.734 6.39062 140.961C7.65104 141.66 8.86459 142.473 10.0312 143.399C10.7292 143.952 11.1615 144.065 11.7656 143.512C12.4792 142.76 13.1458 141.947 13.7604 141.067L11.0729 138.182C11.7656 137.962 12.4635 138.629 13.9375 140.961C14.5208 140.294 15.0417 139.555 15.4948 138.742C15.651 138.242 15.6198 137.763 15.4115 137.296C14.9427 136.097 14.3125 135.064 13.5156 134.198C12.7135 133.332 11.8177 132.699 10.8125 132.306C10.2604 132.133 9.76562 131.799 9.33855 131.306C10.7969 131.193 12.0938 131.706 13.2396 132.859C14.3698 133.858 15.4115 135.077 16.3646 136.077C16.4479 135.077 17.4062 133.418 16.625 131.866C15.8281 130.56 14.9583 129.341 14.0208 128.202C15.2344 128.088 15.8438 129.421 16.7969 130.087L17.5781 126.982H17.9219C17.8385 128.535 17.6667 129.974 17.5781 131.533H17.9219C19.3125 130.307 20.6979 128.868 22.1719 127.762C24.7969 125.723 26.7292 122.911 27.9844 119.327C29.1094 116.442 29.9792 113.45 31.0156 110.452L31.276 109.233L31.1042 108.9C29.7188 109.793 28.0677 110.452 26.8542 111.785C25.7083 113.144 24.7552 114.696 23.9948 116.442C23.1927 118.381 22.0365 119.86 20.526 120.879C20.1927 121.212 19.9375 121.619 19.7448 122.099L18.7031 125.763L18.2708 126.429L18.0104 126.203C18.1146 125.523 18.2604 124.864 18.4427 124.211C19.0521 122.099 19.0521 121.772 17.5781 120.773C16.1042 119.773 14.6302 118.994 13.2396 118.221C11.8542 117.441 12.8073 117.888 12.724 117.555C15.2344 117.555 17.1458 119.44 19.1406 120.993C19.9167 118.554 19.6562 117.002 18.1823 115.449C17.3958 114.69 16.6406 113.877 15.9323 113.004C17.3177 112.897 18.0104 114.556 19.3125 115.223C19.0521 113.45 18.9635 111.898 17.6667 110.899C16.2552 109.619 14.7135 108.713 13.0365 108.18C11.3594 107.64 9.66667 107.514 7.95312 107.794C7.52084 107.86 7.11459 107.747 6.73959 107.461C10.1198 106.021 13.3281 107.241 16.625 108.793L14.1094 104.796L14.4583 104.356C15.8438 106.348 17.4896 108.127 18.7031 110.232C19.9167 112.338 20.0938 115.336 20.2656 118.441C20.9479 117.928 21.5833 117.335 22.1719 116.668C22.9167 115.556 23.5781 114.37 24.1667 113.117C25.2969 110.232 27.2865 108.9 29.4583 107.907C31.625 106.908 31.276 106.681 31.1927 104.796C31.2135 103.483 31.3594 102.19 31.625 100.918H32.0573L31.7969 106.348C33.099 101.024 34.5729 96.1473 37.7812 92.3762C38.9062 91.0437 40.2969 90.0443 41.4219 88.7117C42.2917 87.6923 43.0417 86.5463 43.6771 85.2738L41.25 87.2726C40.2083 88.272 39.1667 89.378 38.0417 90.2641C35.2656 92.3762 33.7917 95.7009 32.4896 99.2521C32.3177 99.5853 32.2292 100.032 32.0573 100.358H31.625C31.7188 99.7518 31.8594 99.1589 32.0573 98.5859C32.75 96.4804 33.6823 94.5682 34.8542 92.8426C36.026 91.117 37.375 89.6645 38.9062 88.4919C40.6198 87.1793 42.2344 85.7002 43.7656 84.0545C45.349 82.5487 46.6875 80.7498 47.7917 78.6577C48.8906 76.5656 49.6875 74.3003 50.1823 71.8551C50.7969 69.21 51.8073 66.8447 53.2135 64.7526C54.9896 62.1675 56.4323 59.3092 57.5417 56.1711C58.6458 53.0329 59.375 49.7549 59.7188 46.3436C59.9427 45.2775 60.2344 44.2448 60.5833 43.2387C60.7969 42.739 60.8281 42.2193 60.6719 41.6863C60.3698 41.0867 60.1458 40.4471 60 39.7608C59.8594 39.0812 59.8021 38.3816 59.8333 37.6754C59.8646 36.9625 59.9844 36.2829 60.1875 35.6166C60.3854 34.957 60.6667 34.3574 61.0208 33.811C61.4062 32.9515 61.6094 32.0254 61.625 31.0327C61.8698 25.5959 62.9688 20.4589 64.9219 15.6152C66.1354 12.7302 68.0417 10.4049 69.776 8.07297C71.0729 6.60718 72.4323 5.24132 73.849 3.96875C74.3229 3.45572 74.8125 2.976 75.3229 2.5296C77.2344 1.5302 78.7917 3.30248 78.6198 6.3007C78.6198 7.40671 78.4479 8.29951 79.5729 8.85251C80.7031 9.40552 80.1823 9.85192 80.3542 10.5182C80.7865 13.623 81.3073 16.8344 80.4427 19.9459C79.1406 25.1562 77.3177 30.1465 74.026 33.9176L70.0365 38.1351L69.1667 38.908L68.9115 38.5748C69.0625 38.1951 69.2656 37.8619 69.5156 37.5821L72.5521 34.364C74.9688 31.9188 76.7917 28.8873 78.0156 25.2694C78.7396 23.2773 79.375 21.2451 79.9219 19.1664C80.526 16.3947 80.0938 13.5097 79.6615 10.6248C79.6615 10.4049 79.4896 10.1851 79.2292 9.51878C78.9271 10.0385 78.6667 10.5981 78.4479 11.1778C78.224 14.4292 77.651 17.574 76.724 20.6122C75.7917 23.6504 74.5469 26.462 72.9844 29.0405C72.8958 29.2604 72.6354 29.3737 72.4635 29.5935L72.2031 29.3737L72.6354 28.0411C75.6094 22.9242 77.3438 17.1942 77.8385 10.8447C78.0312 8.77256 78 6.70046 77.7552 4.63502C77.6667 4.08201 77.0573 3.52901 76.625 3.30248C76.4688 3.19587 76.2969 3.13591 76.1198 3.12258C75.9375 3.10926 75.7656 3.14257 75.5938 3.22919C75.4271 3.3158 75.2812 3.44239 75.1615 3.60896C75.0365 3.77553 74.9479 3.97541 74.8906 4.19528C74.1094 7.07357 72.375 9.18565 71.3385 11.7375C70.2969 14.2893 68.3906 20.0525 66.9167 24.1568C66.8385 24.5499 66.7188 24.9163 66.5677 25.2694H66.2188C66.2031 24.783 66.2344 24.3033 66.3073 23.8236C67.7812 18.6134 69.3438 13.5097 71.9427 9.07238C72.4635 8.07297 72.9844 7.18684 73.4167 6.18743C71.3385 8.51938 70.0365 11.6242 68.7344 14.6158C67.4375 17.614 66.3073 20.8321 65.1823 23.9369H64.8333C64.9219 23.3839 64.9219 22.9375 65.0052 22.4977C66.5 17.8005 68.3229 13.3299 70.4688 9.07238C70.6406 8.73925 70.8177 8.51938 70.8177 8.18624C68.5625 10.7381 66.3958 13.3965 65.1823 17.061C63.3906 22.1779 62.4323 27.5347 62.3177 33.1447H62.9271C62.9323 33.2314 62.9583 33.3046 63.0104 33.3646L62.1458 35.6966C61.6823 36.1963 61.349 36.8159 61.151 37.5488C60.9479 38.2884 60.9062 39.0346 61.0208 39.8008L62.0573 35.6966L63.3594 34.2508L63.7083 34.6972C63.0938 35.47 62.6302 36.3695 62.3125 37.3889C62 38.4149 61.8542 39.4743 61.8854 40.5737L63.0104 38.0218L63.3594 38.2484L62.4948 42.1261C64.0521 42.0195 64.401 40.4604 65.0938 39.2411C65.6146 40.6869 64.7448 41.3532 64.401 42.3526C66.0469 41.5731 66.3958 39.8008 66.9167 38.0218C67.5208 39.8008 66.5677 41.0201 65.9583 42.2393C66.2604 42.1461 66.5365 41.9862 66.7865 41.7596C67.0417 41.5331 67.25 41.2533 67.4219 40.9268C67.5885 40.5937 67.7031 40.2339 67.7656 39.8474C67.8281 39.4677 67.8333 39.0746 67.7812 38.6881C67.6667 38.0285 67.6354 37.3622 67.6927 36.6893C67.875 36.9558 68.026 37.2423 68.1458 37.5488C68.2656 37.8619 68.3594 38.1817 68.4167 38.5215C68.474 38.8613 68.4948 39.2078 68.4844 39.5543C68.474 39.9007 68.4271 40.2405 68.3542 40.5737C68.276 40.9068 68.1667 41.2199 68.026 41.5131C67.8854 41.8129 67.7188 42.0794 67.5208 42.326C67.3281 42.5658 67.1146 42.779 66.8802 42.9522C66.6458 43.1255 66.3958 43.2521 66.1354 43.3453C65.5417 43.5785 64.9323 43.6851 64.3125 43.6785C62.4062 43.7918 61.7135 44.6779 61.5365 47.1164C61.3542 49.4417 61.0365 51.7337 60.5833 53.999C60.1823 55.2982 59.6615 56.5175 59.026 57.6568C57.6979 60.5485 56.1667 63.2469 54.4271 65.752C53.7083 66.7048 53.1562 67.7975 52.7656 69.0234C52.375 70.2494 52.1823 71.5286 52.1719 72.8545C54.7448 72.0949 57.026 70.6158 59.026 68.4171L59.2865 68.084C60.5833 66.0852 62.7552 65.3123 63.1875 62.2075C63.7656 59.6756 64.4583 57.1971 65.2656 54.7719C65.3906 54.4587 65.4792 54.1256 65.526 53.7725C68.1302 48.5622 70.125 42.9056 74.5469 39.6875C76.3646 38.355 78.0156 36.6893 79.75 35.3634C81.4792 34.0309 85.2969 32.1453 88.4167 33.2513C88.8281 33.4113 89.1927 33.6711 89.5156 34.0309C89.8385 34.3973 90.0885 34.8237 90.2604 35.3301C90.4375 35.8298 90.5208 36.3495 90.5156 36.9025C90.5156 37.4489 90.4219 37.9685 90.2396 38.4682C90.2135 38.6348 90.1562 38.7814 90.0677 38.908C88.5938 41.2399 88.1562 44.3448 86.8594 46.7833C86.1094 48.2757 85.2396 49.6416 84.2552 50.8875C80.526 55.658 76.7135 60.3219 71.8594 63.0936C70.3229 63.8398 68.7656 64.4661 67.1771 64.9792L64.7448 65.752L62.9271 66.3117C62.6927 66.3983 62.5156 66.5849 62.4062 66.8647C61.875 68.3039 61.1146 69.4898 60.1146 70.4359C59.1146 71.382 58 71.9617 56.7708 72.1882C55.1875 72.528 53.75 73.3075 52.4531 74.5202C51.1562 75.7261 50.1406 77.2452 49.401 79.0641C48.2969 81.0363 47.0573 82.8485 45.6719 84.5009C45.0625 85.387 44.3698 86.0533 43.7656 86.8262H55.6406L57.724 86.493C62.6667 84.834 67 86.8262 71.0781 90.2641C73.151 91.9165 74.7396 94.1352 75.8438 96.9202C78.5312 95.0346 81.224 94.0419 84.1719 95.3678C85.9479 96.1673 87.3906 97.5331 88.5052 99.472L88.3333 99.9184C87.9479 99.6452 87.6042 99.3121 87.2917 98.919C86.1927 97.4199 84.8646 96.4205 83.3021 95.9274H82.2604C85.2552 97.5065 87.6562 100.025 89.4583 103.47L89.1979 103.909L88.5052 103.136C86.3385 99.6985 83.7344 97.1467 80.2656 96.3672C79.5573 96.2139 78.8646 96.2939 78.1875 96.587C79.2292 97.2533 80.4427 96.7003 81.4792 97.4799V98.0329L78.5312 97.813L82.8698 101.138L82.6094 101.691C81.7396 101.691 81.224 100.691 80.526 100.252L78.1875 98.919L76.1927 97.6997C74.3698 100.585 75.4115 103.576 75.9323 106.681C74.2865 105.355 74.1094 100.358 75.4115 97.6997C74.6146 95.7675 73.4583 94.2884 71.9427 93.2624C69.9479 91.7099 67.8698 90.1575 65.7865 88.825C64.7396 88.172 63.6354 87.8589 62.4688 87.8989C61.3073 87.9389 60.2135 88.3186 59.1979 89.0449C58.7344 89.3513 58.2396 89.5379 57.724 89.6045C55.7292 89.9377 53.8229 90.1575 51.8281 90.2641C50.875 90.3041 49.9531 90.1176 49.0521 89.7111C46.974 88.8916 44.8594 88.745 42.724 89.2714C41.6094 89.5579 40.6562 90.2242 39.8594 91.2635C37.7448 93.4556 36.099 96.114 34.9167 99.2521C34.25 100.978 33.6719 102.757 33.1875 104.576C33.0312 105.229 32.9479 105.895 32.9271 106.574C33.5417 106.348 34.1198 106.015 34.6615 105.575L38.0417 100.805C38.7448 99.6452 39.4948 98.5326 40.2969 97.4799C40.4583 97.2467 40.6406 97.0401 40.8385 96.8669C41.0365 96.687 41.25 96.5404 41.474 96.4271C41.6979 96.3072 41.9323 96.2273 42.1719 96.1806C42.4115 96.1273 42.651 96.114 42.8958 96.1406C43.1354 96.1606 43.375 96.2139 43.6042 96.3072C43.8385 96.3938 44.0573 96.5204 44.2708 96.6737C44.4792 96.8269 44.6719 97.0068 44.8542 97.22C45.0312 97.4332 45.1875 97.6664 45.3229 97.9196L45.5 98.366C45.6719 100.032 43.9375 102.577 42.6354 102.47C42.2396 102.364 41.9844 102.07 41.8542 101.584C41.6823 100.918 42.1146 100.358 42.8073 100.032L42.5521 101.471C43.0573 101.411 43.5052 101.171 43.8854 100.738C44.2708 100.312 44.5208 99.7785 44.6302 99.1389C44.5469 98.5859 44.3333 98.1328 43.9896 97.773C43.6458 97.4199 43.25 97.2467 42.8073 97.2533C41.9688 97.3199 41.2135 97.6864 40.5573 98.366C39.776 99.3654 39.2552 100.805 38.474 101.917C37.6927 103.023 35.875 107.794 32.8385 108.46C32.5781 108.46 32.3177 109.126 32.1458 109.459C30.7552 113.337 29.6302 117.441 28.1562 121.106C27.4219 122.931 26.474 124.557 25.3177 125.983C24.1562 127.409 22.849 128.555 21.3906 129.421C20.0938 130.2 19.0521 131.866 17.9219 133.192C16.7969 134.525 17.8385 133.858 17.75 134.305C19.2812 132.559 21.0156 131.266 22.9531 130.42L23.2135 130.753L22.4323 131.533C20.8177 132.519 19.3438 133.772 18.0104 135.304C17.6094 135.904 17.2917 136.57 17.0573 137.296C15.8438 140.847 13.5885 143.066 11.1615 144.952C12.1146 145.731 13.4167 145.838 15.3229 145.618C17.2292 145.398 18.1823 145.731 19.6562 145.618C21.1198 145.271 22.5938 145.052 24.0781 144.952C23.8229 145.172 23.5625 145.618 23.2135 145.618L18.5312 146.284C17.2917 146.484 16.0469 146.524 14.8021 146.391C12.6354 146.058 11.0729 147.284 9.77605 149.389C8.47396 151.494 6.56771 151.941 4.91667 152.94L4.22396 152.607C6.73959 150.941 9.42709 149.722 10.901 146.391C9.25521 145.398 7.78125 146.058 6.39062 148.17C5.3125 150.029 4.09896 151.728 2.75 153.273C0.666668 155.379 -1.93229 156.152 -4.44791 156.598C-5.40104 156.818 -6.44271 156.045 -7.47916 155.825C-8.28646 155.672 -9.09896 155.639 -9.91146 155.712C-12.6823 156.152 -15.3698 156.152 -17.8021 154.493L-22.0469 163.367C-18.9271 163.701 -15.6302 164.36 -12.25 164.36C-8.86979 164.36 -4.70833 163.701 -1.41146 160.922C1.44792 158.757 4.10938 156.245 6.56771 153.38L8.21354 151.828C8.52084 151.668 8.83854 151.634 9.16667 151.721L8.81771 152.381C7.58334 153.48 6.43229 154.706 5.34896 156.045C3.53125 158.93 0.84375 160.149 -1.41146 162.141C-1.93229 162.701 -2.54166 163.141 -2.97396 163.701C-4.19271 165.02 -5.55729 166.012 -7.06771 166.685C-8.57812 167.352 -10.1302 167.651 -11.7292 167.578C-15.2865 167.691 -18.9271 167.691 -22.4844 167.911C-23.2396 167.831 -23.9635 167.985 -24.6562 168.378C-25.349 168.771 -25.9271 169.357 -26.3854 170.13C-27.599 171.902 -29.2448 173.128 -30.4583 174.901C-32.974 178.558 -35.3125 182.443 -37.7448 186.214L-38.0885 187.213C-31.0677 180.67 -23.6094 178.005 -15.2865 179.118V179.671L-16.9323 180.111L-11.901 181.337C-11.9896 180.111 -11.4688 180.337 -10.8646 180.557C-9.25521 181.064 -7.70833 181.783 -6.21875 182.709C-4.72916 183.629 -3.33333 184.741 -2.02604 186.041C-0.71875 187.34 0.468754 188.799 1.53646 190.418C2.60417 192.037 3.53125 193.776 4.3125 195.642C5.60938 198.526 6.04688 201.851 6.82292 205.069C7.60417 208.287 7.95312 211.286 9.59896 213.831C10.7396 215.35 11.9844 216.722 13.3281 217.935C15.8333 219.934 18.5208 221.373 21.3906 222.266C22.901 222.619 24.4062 222.586 25.901 222.152C31.3646 221.153 36.8281 220.267 42.375 221.266L43.5052 221.599V222.152C41.6042 221.839 39.6979 221.693 37.7812 221.706C35.7865 221.706 33.7917 221.933 31.7969 222.152L25.901 222.932V223.592C27.4062 224.324 28.9375 224.951 30.4948 225.484L37 226.477H37.9531L45.6719 225.81C45.9792 225.837 46.2083 226.023 46.3646 226.37L45.4115 226.703C40.2969 227.256 35.2656 227.589 30.3229 226.477L28.7604 225.704C26.2292 224.358 23.599 223.472 20.8698 223.039C20.276 222.819 19.6719 222.672 19.0521 222.599L23.9948 227.922C23.474 227.809 23.0417 227.922 22.7812 227.696C21.9479 227.01 21.1667 226.237 20.4375 225.371C18.8802 223.312 17.0573 221.759 14.974 220.713C12.5729 219.454 10.4635 217.642 8.64584 215.277L9.51562 219.048C10.6406 223.592 12.724 227.369 14.8021 231.14C15.3958 231.947 16.0885 232.573 16.8854 233.026C17.8698 233.752 18.8802 234.418 19.9167 235.018C27.6354 239.789 32.2292 247.777 34.7448 257.978C35.5312 261.462 35.8802 265.007 35.7865 268.631C35.7865 269.071 35.6146 269.624 35.6146 270.071H35.2656C35.1667 269.711 35.1094 269.344 35.0938 268.965C35.0938 267.739 35.0938 266.519 35.0052 265.194C34.9167 263.861 35.1771 263.748 34.3125 263.634C33.4427 263.528 34.1406 263.081 34.0521 262.862C33.6927 260.849 33.4635 258.817 33.3594 256.759C33.3021 255.113 32.9271 253.6 32.2292 252.215C31.9896 251.861 31.7031 251.608 31.3646 251.435L31.0156 251.215L28.2448 246.225C28.3021 245.972 28.3281 245.712 28.3281 245.445L29.9792 247.444L30.151 247.224L25.9896 241.234L25.7292 241.454C26.3333 242.34 26.9427 243.12 27.4635 244.006C27.6146 244.393 27.6719 244.799 27.6354 245.225C27.2865 245.132 26.9688 244.946 26.6823 244.672C25.651 243.007 24.5521 241.414 23.3854 239.902C21.6094 238.076 19.7604 236.371 17.8385 234.798L14.8906 232.466C15.6875 234.805 16.7292 236.95 18.0104 238.902C19.9167 241.894 21.9115 244.779 23.6458 247.884C27.0052 254.06 29.8385 260.603 32.1458 267.519C32.2812 267.945 32.3698 268.392 32.4062 268.851L32.0573 269.071C31.8854 268.631 31.625 268.185 31.4531 267.632C28.7917 259.93 25.5521 252.641 21.7396 245.778L21.4792 245.445C22.6927 248.996 24.1667 252.654 25.2083 256.539C26.25 260.423 27.9844 263.861 27.8073 268.185C26.3333 263.195 24.9479 258.091 23.474 253.101C21.8698 248.064 19.7604 243.406 17.1458 239.122C17.3177 246.998 20.4375 253.321 23.474 259.757L23.2135 259.977C23.0417 259.863 22.7812 259.757 22.6927 259.53C20.1771 254.653 17.75 249.663 16.9688 243.78C16.1615 236.917 14.0469 230.774 10.6406 225.371C8.04167 221.266 7.08334 216.716 6.65104 211.725C6.63542 211.239 6.57812 210.759 6.47917 210.286C5.9375 208.321 5.47396 206.322 5.09375 204.296C4.79688 202.451 4.36459 200.659 3.78646 198.926C3.20312 197.194 2.49479 195.555 1.65104 194.009C0.807293 192.463 -0.151039 191.044 -1.21875 189.752C-2.29166 188.452 -3.45312 187.313 -4.70833 186.327L-5.3125 185.661L-5.14062 185.328C-4.8125 185.388 -4.49479 185.494 -4.1875 185.661L-0.109375 189.872L0.755211 190.764L4.91667 199.526C4.16146 196.115 2.77084 193.196 0.755211 190.764ZM80.4427 49.002L80.1823 48.5622C83.1302 45.564 85.9896 42.3526 87.6406 37.9152C87.0312 37.3556 86.6823 37.9152 86.3385 38.355L80.0938 46.0104C79.8073 46.2969 79.4844 46.5168 79.1406 46.6767H79.3125L85.9896 36.6893H85.9062L78.4479 45.7906L78.1875 45.4574C78.4167 44.9511 78.6771 44.4647 78.9688 44.0116L84.776 37.0224C84.9219 36.9025 85.0417 36.7493 85.1406 36.5627C85.2344 36.3762 85.2969 36.1696 85.3333 35.9564C85.3646 35.7365 85.3646 35.5167 85.3281 35.2968C85.2917 35.0769 85.224 34.877 85.125 34.6972L78.7083 42.5725L78.4479 42.2393C80.3125 38.9213 82.5677 36.1096 85.2083 33.811C84.776 33.811 84.5156 33.6977 84.3438 33.811C82.8281 34.5106 81.3542 35.3234 79.9219 36.2496C78.4479 37.3556 77.0573 38.6881 75.6719 39.9074C74.2865 41.1267 73.0729 42.2393 71.8594 43.5719C70.6406 44.8978 70.3854 45.011 70.2083 45.8972C70.0365 46.7833 69.0833 48.5622 68.3906 49.6683C67.2135 51.4872 66.3438 53.5193 65.7865 55.7713C65.3542 57.8767 64.5729 59.7623 63.9688 61.8743C63.3594 63.9798 63.3594 63.5334 64.2292 64.1996C65.0938 64.8659 64.3125 64.646 64.401 64.8659C67.4375 64.1996 69.3438 61.2081 71.7708 59.096C71.0885 60.7217 70.1354 62.0143 68.9115 62.9804L69.0833 63.4268L74.1979 58.8761L74.5469 59.4291L72.375 61.0948L72.8125 61.6478L73.849 60.8749C77.4844 57.8834 80.7812 54.3655 83.7344 50.3345C85.0677 48.5689 86.1927 46.6101 87.1198 44.458C87.6562 42.5791 88.349 40.8069 89.1979 39.1345C89.5417 38.5748 89.7344 37.9486 89.7812 37.2423C89.8281 36.5361 89.724 35.8698 89.4583 35.2502C88.8542 33.9176 87.724 33.9176 86.7708 33.9176C85.8177 33.9176 85.9896 35.9164 87.0312 36.4694C87.8021 36.7293 88.5833 36.9158 89.3698 37.0224C89.0052 37.4089 88.6615 37.8153 88.3333 38.2484C86.599 42.3326 84.2552 45.7306 81.3073 48.449L80.4427 49.002ZM44.8021 87.719L49.9219 89.0449L51.0469 89.2714C54.6042 89.1581 58.1562 88.7117 61.5365 86.6063C55.9896 88.7117 50.3542 87.3858 44.8021 87.719ZM56.9427 59.5424C59.2865 56.2177 60.8438 52.4399 60.8438 47.7827C60.7396 46.2303 61.0885 44.8644 61.8854 43.6785C61.9688 43.392 62 43.0988 61.974 42.7923H61.5365C61.1094 44.0982 60.7344 45.4308 60.4115 46.7833C59.8021 50.1147 59.5469 53.5526 58.1562 56.6574L56.9427 59.5424ZM-29.5052 181.89V182.223L-21.2656 180.111L-21.4427 179.558L-29.5052 181.89ZM52 68.1973C51.2188 71.0755 50.3542 73.9605 49.4844 77.1786C51.3073 74.4069 51.6562 71.3021 52 68.1973ZM-37.6562 188.099L-38.0052 187.766L-40.8646 192.537L-40.5156 192.87L-37.6562 188.099ZM58.0729 70.5225C58.849 70.276 59.5417 69.823 60.151 69.1567C60.7604 68.4971 61.224 67.6909 61.5365 66.7514L58.0729 70.5225ZM57.1146 171.349V170.35C57.1146 169.464 56.8542 168.911 56.0781 168.911C53.4635 168.944 50.9792 168.238 48.6198 166.805L50.0052 168.691C48.4479 168.911 48.0104 165.806 46.3646 167.245L48.0104 169.797L47.75 170.13L46.8854 169.244C46.276 168.358 45.6719 167.805 44.8906 169.131C45.6875 170.183 46.2917 171.396 46.6979 172.762C47.1042 174.128 47.2812 175.547 47.2344 177.006L46.7135 177.232C46.7135 175.78 46.4896 174.387 46.0365 173.055C45.5833 171.722 44.9427 170.563 44.1094 169.577C45.5833 175.12 43.5885 179.558 41.4219 183.995C40.5469 185.594 39.5365 187.04 38.3854 188.319L38.0417 187.879C38.2448 187.446 38.474 187.04 38.7344 186.66C41.0104 183.769 42.6302 180.371 43.5885 176.453C44.026 175.014 43.7656 173.128 43.849 171.349C43.0417 172.748 42.1771 174.074 41.25 175.347C40.3802 176.566 39.5156 177.892 37.9531 177.785C38.9948 176.673 40.1198 175.567 41.0729 174.348C42.0312 173.128 43.2448 171.902 42.6354 169.577C39.4271 173.461 35.7865 175.454 31.4531 175.014L31.276 174.454L32.3177 174.234C34.8385 174.268 37.1823 173.455 39.3438 171.796C40.1615 171.089 40.9427 170.31 41.6823 169.464C42.0312 169.024 42.2917 168.578 41.8542 167.805C41.4219 167.025 41.9427 167.025 42.1146 166.692C43.1562 164.473 42.9844 163.034 41.3333 161.588L39.776 160.369L38.3021 159.483V159.037C38.6458 159.037 39.0833 158.93 39.3438 159.15L42.2031 161.255C42.599 161.395 43.0052 161.468 43.4167 161.482C43.474 160.989 43.4479 160.509 43.3281 160.036C42.0312 157.151 40.3802 154.826 37.7812 153.826L37.4323 153.493V153.047C37.9323 153.093 38.4271 153.207 38.9062 153.38C41.1719 154.899 42.8802 157.118 44.026 160.036L44.3698 160.922C45.7552 160.482 46.0156 160.149 45.5 158.703C44.849 157.004 44.099 155.372 43.2448 153.826C43.0417 153.393 42.8073 152.987 42.5521 152.607C43.7656 152.494 44.9792 154.599 46.3646 158.703C47.4062 156.818 46.1042 155.266 46.0156 153.606C47.4062 155.266 47.5781 157.484 47.75 160.149C48.4479 157.931 48.0104 155.492 46.625 152.161C45.6562 149.715 44.2656 147.757 42.4635 146.284C43.7656 145.731 45.9323 148.503 47.3177 151.941C48.7083 155.379 48.7917 156.378 49.0521 160.589C49.3125 159.816 49.8333 159.15 49.9219 158.37C50.151 157.004 50.151 155.632 49.9271 154.259C49.6979 152.887 49.2656 151.634 48.6198 150.495C46.3646 145.951 43.5885 141.953 39.2552 140.401C39.0833 140.401 39.0833 140.294 38.6458 139.848H40.0365C42.3333 140.821 44.2969 142.446 45.9323 144.732C47.0104 146.184 47.9896 147.737 48.8802 149.389C49.651 150.708 50.1979 152.161 50.5104 153.76C50.8281 155.352 50.8906 156.964 50.6979 158.597C51.25 157.557 51.5573 156.411 51.6198 155.159C51.6823 153.913 51.4896 152.727 51.0469 151.608C50.7812 150.948 50.6354 150.242 50.6146 149.502C50.3542 145.731 48.5312 143.179 46.3646 140.847L43.3281 138.296C41.7552 136.91 40.0208 136.064 38.125 135.744L37.0885 135.411C38.8229 134.078 43.9375 137.076 47.4896 140.961C51.0469 144.838 51.2188 149.276 52.2604 153.933C54.9479 147.503 52.1719 140.514 48.4479 137.523C46.2292 135.744 43.9427 134.118 41.5938 132.639C41.224 132.399 40.8333 132.239 40.4219 132.166C40.0104 132.086 39.599 132.099 39.1927 132.199C38.7812 132.299 38.401 132.486 38.0365 132.752C37.6771 133.012 37.3594 133.345 37.0885 133.752C35.4375 135.964 33.3594 136.743 31.3646 138.076C29.9375 139.068 28.6354 140.288 27.4635 141.734C27.026 142.18 26.9427 143.179 26.6823 144.065C26.4271 143.719 26.3021 143.313 26.3021 142.846C26.3021 142.373 26.4271 141.967 26.6823 141.627C27.6146 139.661 28.9167 138.256 30.5833 137.409C32.8385 136.297 35.0938 135.191 36.8281 132.859C37.375 132.093 38.0469 131.593 38.8333 131.346C39.625 131.107 40.401 131.166 41.1615 131.533C41.4375 131.706 41.7292 131.739 42.026 131.633C42.3229 131.526 42.5573 131.306 42.724 130.973C43.0625 130.673 43.4375 130.487 43.849 130.42C46.5365 129.647 49.1406 129.647 51.3073 132.419C53.474 135.191 56.1615 137.523 58.2448 140.401C59.2917 141.84 60.0677 143.486 60.5833 145.338C61.0938 147.19 61.2969 149.096 61.1927 151.055C61.1042 152.607 61.5365 154.046 61.5365 155.492C61.4062 156.545 61.2031 157.584 60.9323 158.597C60.8438 159.263 60.5 159.923 60.6719 160.589C61.1042 163.92 59.9792 166.246 58.1562 168.464C57.8802 168.837 57.7344 169.284 57.724 169.797C57.724 170.576 57.724 171.129 57.0312 171.349H57.1146ZM57.724 145.172C57.8073 145.651 57.8646 146.131 57.8958 146.617C57.6354 148.17 57.5521 149.942 56.9427 151.161C55.651 153.72 54.2344 156.165 52.6927 158.484C52.0885 159.483 51.3073 160.369 50.6979 161.255V161.588L54.1667 159.923L54.3438 160.369C52.5625 162.061 50.5729 162.834 48.3594 162.701C50.7865 164.473 53.3906 163.367 55.901 163.701C55.7292 163.92 55.5573 164.253 55.2969 164.253C52.8698 164.473 50.3542 165.14 48.0104 163.701C47.5781 164.473 47.6667 164.92 48.2708 165.36C50.9688 167.445 53.8906 168.331 57.0312 168.025C57.3802 167.998 57.6719 167.811 57.8958 167.472C58.6615 166.439 59.2969 165.293 59.8021 164.027C60.0417 163.014 60.1042 161.975 59.9792 160.922C58.7656 161.922 57.8958 163.141 56.5104 163.034C56.6719 162.648 56.9062 162.355 57.2031 162.141C59.7188 160.589 61.8854 156.818 60.5 152.161C60.4271 151.834 60.3958 151.501 60.4115 151.161C60.6719 146.391 59.1979 142.733 56.6823 139.515L53.2135 135.411L52 134.191C52.2188 134.744 52.4792 135.257 52.7812 135.744C53.7344 137.743 55.0365 139.628 55.4688 141.734C55.9583 143.966 56.0208 146.218 55.651 148.49C55.2865 150.762 54.5312 152.8 53.3906 154.599C52.901 155.525 52.4688 156.485 52.0885 157.484L52.4323 157.711C53.6562 155.938 54.7552 154.053 55.7292 152.047C56.5 149.809 57.1667 147.517 57.724 145.172ZM47.9271 131.306L48.099 130.867C46.3646 130.973 44.5417 130.64 42.8073 132.086L48.5312 136.41C52 138.962 55.3802 146.171 53.7344 151.828C53.6667 152.041 53.6354 152.261 53.6458 152.494H53.9948C54.5312 150.615 54.9375 148.696 55.2083 146.724C55.901 140.068 51.8281 134.525 48.6198 132.306C48.3646 131.999 48.1354 131.666 47.9271 131.306ZM43.5885 162.368C43.3281 164.027 43.1562 165.36 42.8958 166.692C42.8802 167.039 42.8229 167.372 42.724 167.691L43.5885 167.472C43.8958 167.425 44.1823 167.312 44.4583 167.138V168.464C44.7188 168.131 45.2396 167.798 45.2396 167.578C45.2396 167.358 46.276 164.807 46.276 163.254C46.2344 162.581 46.1458 161.915 46.0156 161.255H45.6719C45.8438 162.141 46.276 163.034 45.3229 163.807V161.588L43.5885 162.368ZM46.1927 166.246C47.4896 164.693 47.8385 161.255 46.7969 159.923C46.7135 160.922 46.974 161.922 46.8854 162.921C46.724 164.054 46.4948 165.166 46.1927 166.246ZM99.6042 121.326L101.078 123.324H101.51C102.031 122.878 103.161 122.325 103.161 122.099C102.891 121.046 102.49 120.086 101.943 119.22C101.141 118.094 100.276 117.062 99.3438 116.109C99.2552 116.002 99.2552 115.889 99.2552 115.669C99.2552 115.449 102.901 118.774 104.026 121.879C104.193 121.819 104.344 121.719 104.479 121.572C104.609 121.426 104.714 121.252 104.786 121.053C104.865 120.853 104.901 120.639 104.906 120.413C104.906 120.193 104.875 119.98 104.807 119.773C104.005 116.868 102.703 114.39 100.906 112.338L100.125 111.232C101.51 111.232 102.984 113.45 105.5 119.107C106.281 118.774 105.068 116.555 106.802 117.002L107.323 112.451H107.667L107.927 115.449C108.615 113.744 108.964 111.938 108.979 110.026C108.995 108.114 108.672 106.295 108.016 104.576C109.833 105.688 110.01 109.899 108.708 115.669C109.281 115.003 109.719 114.217 110.021 113.304C110.323 112.398 110.464 111.445 110.443 110.452C110.37 108.547 110.167 106.661 109.833 104.796C112.089 106.348 111.484 113.004 108.708 117.335C110.615 116.555 111.135 114.003 112.526 112.784L112.87 113.23L110.354 117.441C112.349 116.775 113.479 114.783 114.953 113.23C114.641 114.683 113.974 115.796 112.958 116.555C112.021 117.468 111.01 118.208 109.922 118.774C108.839 119.114 107.74 119.334 106.625 119.44V119.887L108.448 120.106C110.943 119.9 113.229 118.9 115.297 117.108C115.682 116.728 116.005 116.275 116.266 115.749C116.526 115.229 116.714 114.663 116.823 114.057C116.938 113.45 116.964 112.837 116.911 112.224C116.854 111.605 116.724 111.012 116.51 110.452L115.385 112.671L115.125 112.451C115.323 111.038 115.641 109.673 116.078 108.347C116.599 107.014 116.078 106.348 115.474 105.575C115.062 105.155 114.63 104.782 114.172 104.462C114.255 106.794 114.693 108.9 113.651 110.679H113.302C113.375 110.352 113.406 110.019 113.391 109.679L113.651 107.014C113.703 106.135 113.599 105.289 113.339 104.469C113.083 103.65 112.693 102.943 112.177 102.357C111.672 101.664 111.109 101.058 110.479 100.551C109.854 100.038 109.188 99.6386 108.484 99.3454C107.776 99.0589 107.057 98.8857 106.312 98.8324C105.573 98.7791 104.839 98.8457 104.115 99.0323C104.953 99.7518 105.76 100.531 106.542 101.358C107.146 102.244 107.667 103.243 108.276 104.242L108.016 104.576C107.677 104.409 107.385 104.149 107.146 103.803C106.266 102.184 105.135 100.924 103.766 100.032C103.016 99.4254 102.234 99.3521 101.427 99.8051C100.297 100.252 99.0833 100.032 98.1302 101.251C97.1771 102.47 97.1771 101.471 96.7448 101.471C93.3594 101.471 90.6719 102.91 88.9375 106.794C88.6875 107.347 88.3698 107.834 87.9844 108.233C87.6406 108.567 86.9427 108.68 86.7708 108.46C86.599 108.233 84.6875 105.242 83.651 103.576L83.9115 103.023L87.2917 108.127C87.8125 107.127 88.2448 106.241 88.8542 105.242L82.4375 98.1461L82.6094 97.813C85.2083 99.2521 87.1198 101.804 89.026 104.576C90.3542 102.683 91.9688 101.391 93.8802 100.691L94.401 100.471C98.0417 100.585 101.25 98.0329 104.807 97.813C108.359 97.5864 111.047 98.8057 113.219 102.47C113.521 102.93 113.896 103.263 114.344 103.47C116.51 104.689 117.292 106.348 117.208 109.459C117.224 109.766 117.281 110.059 117.38 110.346C117.776 112.484 117.693 114.59 117.12 116.668C117.031 117.295 117.031 117.921 117.12 118.554C117.427 120.026 117.516 121.512 117.38 123.031C117.25 124.544 116.901 125.97 116.339 127.315C115.63 128.501 114.849 129.614 114 130.64L111.135 133.971C110.135 135.044 109.354 136.337 108.797 137.856C107.927 140.181 106.974 142.62 104.807 143.512C104.375 143.619 104.026 144.172 103.677 144.505L102.464 145.285C103.938 140.181 105.411 135.304 102.724 130.42L99.776 131.533C100.208 136.963 98.9115 141.847 96.6562 146.391L95.7031 147.617L95.3542 147.39L95.7865 146.391C96.9219 144.459 97.7812 142.347 98.3594 140.048C98.9375 137.743 99.2083 135.391 99.1719 132.972C99.1823 132.706 99.1562 132.446 99.0833 132.193L98.4792 131.306C98.3021 131.64 98.1302 131.866 98.1302 132.193C97.9427 136.31 96.8698 140.008 94.9219 143.286C94.2396 144.405 93.4896 145.438 92.6667 146.391H91.974C94.6615 142.953 96.6562 139.075 97.1771 133.971L96.3958 134.744L96.0469 133.858C93.8802 135.524 91.5417 136.856 88.8542 135.637L87.724 134.744C89.2812 134.951 90.8438 134.984 92.4062 134.858C93.1719 134.831 93.8854 134.571 94.5469 134.078C95.2083 133.585 95.7396 132.919 96.1354 132.086C95.0104 132.266 93.8854 132.339 92.7552 132.306C92.1667 132.253 91.6198 132.033 91.1146 131.64C90.6094 131.253 90.2031 130.733 89.8906 130.087L90.0677 129.754L90.9323 130.307C92.6667 131.973 94.4896 131.753 96.3073 130.753C96.4792 130.633 96.6146 130.467 96.7135 130.254C96.8177 130.04 96.8698 129.814 96.8802 129.567C96.8906 129.314 96.849 129.081 96.7656 128.861C96.6771 128.635 96.5573 128.455 96.3958 128.315L94.9219 126.649L95.0938 126.203C95.3542 126.429 95.7031 126.429 95.875 126.649C95.974 126.836 96.0938 126.989 96.2396 127.109C96.3854 127.235 96.5417 127.315 96.7135 127.362C96.8854 127.402 97.0573 127.395 97.224 127.355C97.3958 127.309 97.5521 127.222 97.6979 127.096L98.9948 126.429C99.1406 126.369 99.276 126.283 99.4062 126.183C99.5312 126.076 99.6458 125.956 99.75 125.81C99.8542 125.67 99.9427 125.517 100.016 125.35C100.089 125.177 100.146 124.997 100.188 124.81C100.224 124.624 100.245 124.437 100.245 124.244C100.245 124.051 100.229 123.858 100.193 123.671C100.161 123.478 100.104 123.298 100.036 123.131C99.9635 122.958 99.8802 122.798 99.776 122.658C99.651 122.345 99.5104 122.052 99.3438 121.772L99.6042 121.326ZM104.547 126.869C104.531 126.423 104.562 125.976 104.635 125.543C104.719 124.544 104.891 123.544 104.979 122.432C103.417 123.211 103.417 123.211 103.073 124.877C102.948 125.537 102.708 126.123 102.354 126.636C102.005 127.142 101.578 127.522 101.078 127.762C101.25 126.316 102.724 125.65 102.38 123.877C102 123.877 101.661 124.024 101.354 124.311C101.052 124.597 100.844 124.97 100.729 125.43C100.401 126.189 99.9375 126.782 99.3438 127.202C98.75 127.689 98.1146 128.055 97.4375 128.315C97.5208 129.088 97.5208 129.754 97.6094 130.64C99.0833 129.981 100.385 129.421 101.682 128.648C102.984 127.868 103.677 125.876 103.854 123.658C104.635 124.764 104.026 125.983 104.026 127.202L104.547 126.762L104.375 128.648C105.859 129.228 107.25 130.074 108.536 131.2L108.359 131.866L106.021 130.534L108.536 135.964L111.484 132.306C110.792 131.973 110.01 132.972 109.401 131.64C111.135 131.2 113.13 131.64 113.911 129.314C112.177 128.981 110.354 128.868 108.536 128.421C107.177 128.022 105.849 127.509 104.547 126.869ZM115.036 121.212C111.917 124.211 108.797 123.991 105.5 121.659C105.479 122.218 105.51 122.771 105.589 123.324C105.672 123.658 105.76 124.097 105.932 124.097C107.333 124.537 108.75 124.87 110.182 125.097C110.818 125.11 111.458 125.07 112.089 124.984C111.307 126.203 110.354 126.203 105.589 125.097C104.979 126.096 105.589 126.536 106.193 126.762C108.359 127.315 110.615 127.868 112.781 128.202C113.688 128.395 114.526 128.175 115.297 127.535C116.167 126.762 116.427 125.21 116.51 123.658C113.651 125.543 113.651 125.543 112.87 124.877L114.516 123.991C116.859 122.658 117.208 121.772 116.427 118.554C116.333 118.134 116.219 117.728 116.078 117.335C112.958 119.887 109.75 121.659 105.932 120.659C108.88 123.324 111.917 122.878 115.036 121.212ZM103.766 129.201L103.333 129.421C103.411 129.847 103.526 130.254 103.677 130.64C104.276 131.806 104.667 133.065 104.849 134.438C105.031 135.81 104.99 137.17 104.719 138.515C104.547 139.848 104.286 141.294 104.115 142.846L105.24 142.287C106.885 141.294 108.276 137.962 107.667 135.97C106.854 133.252 105.552 131 103.766 129.201ZM17.0573 57.437C18.099 56.8773 18.4427 57.7701 18.7917 58.7629C20.2656 63.2002 19.8333 67.6376 18.5312 71.9683C18.099 73.5208 16.9688 74.74 16.0156 76.0726C15.0625 77.3984 14.2812 77.7316 13.5 78.6177C13.2292 78.9509 13.0833 79.3573 13.0677 79.8437C12.8958 82.2822 12.8073 84.7208 12.6354 87.0527C12.5729 88.4519 12.3698 89.8244 12.026 91.1569C11.3333 93.5955 10.5521 95.9274 10.5521 98.5859C10.5104 98.9923 10.5625 99.3721 10.7031 99.7385C10.849 100.098 11.0573 100.385 11.3333 100.585L13.5 102.803L13.849 103.689C10.1875 102.044 6.45834 101.744 2.66146 102.803V102.244C3.01042 102.137 3.35938 101.691 3.70312 101.691H10.1198L11.3333 101.917L9.6875 99.472C9.44791 99.1722 9.15625 99.0256 8.81771 99.0323C7.14063 98.6058 5.46875 98.6392 3.80729 99.1455C2.14062 99.6452 0.630211 100.571 -0.71875 101.917C-1.13541 102.31 -1.59896 102.57 -2.10416 102.69C-0.8125 100.471 0.895836 99.0656 3.01042 98.4726L9.07812 97.6997C8.79688 96.7336 8.33334 95.9408 7.69271 95.3211C7.05209 94.7015 6.32812 94.3484 5.52604 94.2618C3.79167 93.9286 2.48959 95.481 0.84375 95.8142C1.57812 94.8281 2.45312 94.1352 3.47396 93.7421C4.49479 93.3423 5.52604 93.2957 6.56771 93.5955L5.26562 92.1563C3.53125 91.1569 1.88542 89.8244 -0.109375 89.7111H-9.73438C-10.6875 89.8044 -11.526 90.2441 -12.25 91.0437C-13.8125 93.0425 -15.8073 93.5955 -17.7135 94.1485C-18.8125 94.4616 -19.8021 95.0679 -20.6823 95.9607C-21.5677 96.8602 -22.2552 97.9529 -22.7448 99.2521C-23.1667 100.385 -23.8333 101.198 -24.7344 101.691C-26.651 102.717 -28.0677 104.416 -28.9844 106.794L-30.8906 111.232C-31.5052 112.451 -31.7917 113.777 -31.7604 115.223C-31.7656 115.589 -31.8542 115.922 -32.0208 116.222C-32.2917 115.736 -32.4531 115.196 -32.5 114.603C-32.5469 114.01 -32.474 113.437 -32.2812 112.897C-31.0469 109.786 -29.6615 106.788 -28.1198 103.909C-27.4219 102.577 -26.0365 101.804 -24.9948 100.805C-24.401 100.358 -23.9062 99.7652 -23.5208 99.0323C-22.224 96.1473 -20.4896 94.0419 -17.8854 93.3756C-15.2865 92.7094 -14.1562 92.1563 -12.6823 90.2641C-11.8854 89.4846 -10.9896 89.0049 -9.99479 88.825C-8.46354 88.6784 -6.93229 88.6384 -5.40104 88.7117L-1.23958 88.9383C0.635418 88.9249 2.41146 89.4313 4.09896 90.464C5.79167 91.4967 7.21875 92.9425 8.38542 94.8148L8.81771 95.481H8.99479C9.25521 94.4816 9.33854 93.5955 9.59896 92.5961C10.401 89.5779 10.8073 86.4731 10.8125 83.2816C10.7865 82.8152 10.8438 82.3755 10.9896 81.9491C11.4219 80.6165 10.8125 79.9503 10.1198 79.3973C9.42709 78.8443 8.47396 78.5111 7.78125 77.9581C5.00521 75.7394 4.3125 72.1882 4.65625 68.4171C5.00521 64.646 5.86979 58.7629 6.65104 54.1056C7.11459 50.9208 8.27084 48.2225 10.1198 46.0104C10.25 45.7972 10.4062 45.6173 10.5885 45.4774C10.7708 45.3375 10.9688 45.2509 11.1771 45.2109C11.3854 45.1643 11.599 45.1776 11.8021 45.2376C12.0104 45.2975 12.2031 45.4108 12.375 45.564C13.3333 46.197 14.1406 47.0565 14.8073 48.1425C15.474 49.2285 15.9323 50.4411 16.1875 51.7803C16.3646 52.9996 16.4479 54.2189 16.625 55.3249C16.724 56.0445 16.8698 56.7441 17.0573 57.437ZM11.4219 46.4502H10.8125C8.125 55.658 7.69271 65.199 8.64584 74.9599C8.30209 74.74 8.125 74.5135 8.125 74.4069C7.17188 65.752 7.26042 57.1038 9.51562 48.7821C9.29167 48.8354 9.11459 48.982 8.99479 49.2285C8.21354 51.5405 7.54688 53.9057 7 56.3243C6.39063 59.8755 5.95834 63.4268 5.52604 66.9713C5.33334 68.4105 5.27604 69.8496 5.34896 71.3021C5.60938 73.6274 6.13021 75.846 7.86459 77.1786L11.5938 79.8437C12.1146 79.0641 12.5469 77.7316 13.0677 77.7316C13.5885 77.7316 14.6302 76.5123 15.2344 75.846C15.8438 75.1798 17.3177 73.5208 17.8385 71.9683C19.1406 67.8641 19.5729 63.5334 18.099 59.2093C18.0104 58.8761 17.6667 58.6562 17.4062 58.4297C17.1458 58.2099 17.0573 59.096 16.9688 59.4291C16.8854 59.7623 16.7083 62.6472 16.4479 64.1996C16.1875 65.752 16.1875 64.9792 16.1042 65.4189H15.6719C16.276 61.5412 16.7083 57.7701 15.4948 53.8857C15.2344 58.8761 14.974 63.7599 13.6771 68.4171C13.5156 67.8375 13.4844 67.2445 13.5885 66.6382C14.4479 61.7078 14.8229 56.7174 14.7135 51.6671C14.7708 50.9542 14.6823 50.2679 14.4531 49.615C14.2188 48.9553 13.875 48.4223 13.4167 48.0092C13.2396 51.5538 13.2396 55.105 12.8073 58.543C12.375 61.9809 11.7656 65.3123 11.25 68.7503H10.8125C10.7708 68.2705 10.7708 67.7842 10.8125 67.3044C11.1615 64.8659 11.5052 62.4273 11.9427 60.0954C12.5469 56.1777 12.75 52.2201 12.5469 48.2291C12.5104 47.6961 12.4271 47.1764 12.2865 46.6767C11.6823 50.7809 11.0729 54.7719 10.5521 58.8761C9.8073 63.2535 9.72396 67.6576 10.2917 72.0749C10.3385 72.4081 10.3385 72.7412 10.2917 73.0743H10.0312C9.81771 72.7479 9.67709 72.3814 9.59896 71.9683C9.41146 68.9035 9.35417 65.832 9.42709 62.7605C9.77605 58.7629 10.5521 54.6586 11.0729 50.6677C11.25 49.3351 11.25 47.896 11.4219 46.4502ZM9.6875 96.9202C10.2917 95.0346 10.8125 93.0425 11.3333 91.1569C12.1146 88.0521 12.2292 84.9073 11.6823 81.7292C11.8542 86.9394 10.3802 91.8232 9.6875 96.9202ZM16.7083 223.152C18.0104 225.81 19.1406 228.695 21.3906 230.248C24.9583 232.926 28.8021 234.478 32.9271 234.912C38.2135 235.351 42.375 231.913 46.625 228.808L46.8854 228.589C47.8385 227.922 48.7917 226.923 49.8333 226.81C51.1302 226.363 52.3125 225.624 53.3906 224.591C53.5781 224.424 53.7344 224.218 53.8646 223.971C53.9896 223.725 54.0781 223.458 54.125 223.172C54.1771 222.885 54.1823 222.592 54.1406 222.306C54.1042 222.013 54.026 221.739 53.9062 221.486C52.9583 220.147 51.9479 218.888 50.875 217.715C49.8333 216.716 48.5312 215.83 47.4062 214.83C45.526 213.204 43.5 211.972 41.3229 211.139C39.151 210.306 36.9271 209.913 34.6615 209.953C29.1094 210.173 24.4271 213.504 20.1771 217.935C20.0156 218.075 19.901 218.255 19.8333 218.495L20.0052 218.828L20.8698 218.268C22.9844 216.296 25.2083 214.557 27.5469 213.058C32.6667 209.953 37.7812 210.506 42.9844 212.838V213.171C40.1615 212.438 37.3542 212.545 34.5729 213.504C36.651 213.611 38.6458 213.504 40.7292 213.724C42.8073 213.944 44.7188 214.057 46.5365 215.61C44.4688 215.31 42.4167 215.456 40.3802 216.049C43.2448 216.609 46.276 215.83 48.9635 217.828C46.1042 217.602 43.2448 216.942 40.3802 216.942C37.4323 216.776 34.5469 217.222 31.7083 218.268C29.1094 219.381 25.9896 218.495 23.5625 220.713C23.8385 220.86 24.1302 220.9 24.4271 220.82L28.1562 219.82L32.4062 218.934C36.1823 217.782 40 217.522 43.849 218.161L48.4479 218.828C50.2188 218.968 51.724 219.854 52.9531 221.486C53.224 221.999 53.4271 222.559 53.5625 223.152H51.8281L46.7135 221.933H45.6719V222.486L52.349 224.258V224.591L49.8333 225.81C48.6406 226.463 47.4844 227.203 46.3646 228.029C44.8906 229.361 43.3281 230.361 41.5104 230.028L40.4688 230.361V230.807L41.8542 231.14C39.8073 232.879 37.5521 233.845 35.0938 234.019C32.6667 234.365 30.2969 234.032 27.9844 233.026C25.8125 232.027 23.3854 231.14 21.5677 229.475C19.7448 227.809 18.3594 225.257 16.7969 223.039L16.7083 223.152ZM-12.599 125.763L-11.6458 126.649L-11.4688 126.429C-12.599 122.991 -11.4688 120.546 -9.5625 118.327C-9.30729 118.001 -9 117.814 -8.64062 117.768C-8.28125 117.728 -7.95312 117.841 -7.65625 118.108C-10.6042 119.993 -11.5573 121.212 -11.0365 122.545L-8.95312 119.66C-8.95312 120.659 -8.86979 120.993 -8.17708 120.659L-6.61458 120.106C-5.74479 119.773 -5.57291 120.213 -5.66146 121.212C-5.74479 122.212 -7.30729 125.43 -9.73438 125.983L-10.8646 126.649V126.982C-10.6146 127.136 -10.3542 127.169 -10.0833 127.096C-8.875 126.629 -7.71875 125.996 -6.61458 125.21C-5.94791 124.637 -5.46354 123.877 -5.16146 122.925C-4.85937 121.972 -4.79688 120.999 -4.96875 119.993C-4.97396 119.693 -4.94791 119.393 -4.88021 119.107C-4.48958 118.088 -4.02604 117.128 -3.49479 116.222L0.927086 110.346L1.44792 109.566L1.10417 109.233C-1.76041 111.232 -3.57812 114.67 -5.48958 118.108C-5.31771 116.822 -5.05729 115.562 -4.70833 114.336C-3.92708 110.785 -2.79688 107.574 -0.197914 105.462C0.328125 105.042 0.822918 104.562 1.27604 104.023C1.52604 103.776 1.72917 103.483 1.88542 103.136L1.53646 102.69L-1.84375 106.021C-4.96875 109.459 -5.40104 114.336 -6.52604 119.327C-8.08854 113.783 -6.09375 109.233 -4.70833 104.576C-5.83333 105.355 -6.09375 106.794 -6.52604 108.127C-6.94792 109.533 -7.26562 110.972 -7.47916 112.451C-7.72396 113.877 -7.86979 115.323 -7.91666 116.775H-8.60938L-9.5625 117.002C-11.0365 111.345 -10.1719 106.241 -7.82812 101.138C-8.34896 101.464 -8.75 101.944 -9.04166 102.577C-10.0052 104.656 -10.6042 106.881 -10.8438 109.273C-11.0833 111.665 -10.9479 114.017 -10.4271 116.335C-10.3594 116.882 -10.3281 117.441 -10.3438 118.001H-10.776L-11.9896 114.67C-12.599 116.668 -11.2083 117.888 -11.2969 119.773C-13.5521 117.002 -15.9792 114.89 -16.9323 111.232C-17.2812 113.45 -16.151 114.89 -15.1094 116.335C-14.0729 117.774 -12.9427 118.994 -11.7292 120.546L-13.5521 120.106V120.44L-13.0312 121.326C-17.0208 121.326 -20.1406 122.878 -20.2292 124.65C-18.9271 123.991 -17.7135 123.098 -16.5 122.545C-15.1094 121.919 -13.724 121.919 -12.3385 122.545C-13.3542 123.211 -14.3385 123.951 -15.2865 124.764C-16.2396 125.417 -16.849 126.416 -17.1042 127.762C-15.6302 126.429 -14.5052 124.43 -12.5104 123.991V125.763H-12.599ZM19.1406 169.244C18.6979 167.532 18.6146 165.799 18.8802 164.027C19.0521 162.475 20.0052 161.035 20.6146 159.483L20.4375 159.263L19.224 160.369L14.6302 153.826C13.5885 152.381 12.6354 150.722 11.0729 150.275H10.0312V150.608L10.5521 151.055C11.4688 151.701 12.3333 152.441 13.1562 153.273C15.0625 155.712 16.7083 158.264 18.4427 160.702C18.6146 161.129 18.6406 161.575 18.5312 162.035C18.224 163.634 18.0521 165.266 18.0104 166.912C18.2396 168.631 18.6146 170.297 19.1406 171.902C18.5781 172.495 18.1406 173.208 17.8229 174.041C17.5052 174.874 17.3385 175.747 17.3177 176.673C17.2292 178.891 19.9167 184.215 21.5677 185.328C23.2135 186.434 23.8229 187.326 25.0365 188.099C26.4688 189.025 27.9427 189.838 29.4583 190.538C29.9792 190.764 30.5833 190.651 30.6719 189.872L27.724 188.879C25.9896 188.432 25.0365 186.327 23.6458 185.661C22.2604 184.995 20.0938 182.443 18.9635 180.004L18.7917 179.671C18.4792 179.185 18.25 178.632 18.1146 178.025C17.974 177.419 17.9323 176.806 17.9896 176.18C18.0469 175.553 18.1979 174.96 18.4427 174.414C18.6875 173.861 19.0052 173.395 19.3958 173.015L21.4792 174.121C20.6146 172.235 19.5729 170.796 19.1406 169.244ZM54.5156 176.566C53.5417 177.972 52.3281 178.818 50.875 179.118C50.9583 175.234 49.7448 171.243 48.2708 171.129L49.0521 173.015C49.8594 174.521 50.2604 176.18 50.2656 178.005C50.2812 178.458 50.2031 178.885 50.0312 179.285C49.8594 179.684 49.6198 179.997 49.3125 180.224C49.0521 180.337 48.8802 180.89 48.7083 181.337C48.2917 182.623 47.6979 183.749 46.9115 184.715C46.125 185.681 45.2188 186.407 44.1979 186.88C45.5 184.215 46.8854 181.776 46.8854 178.672C46.625 178.785 46.3646 178.891 46.3646 179.118C45.9323 181.776 44.7188 183.995 43.5885 186.327C42.8646 187.746 41.9271 188.879 40.7865 189.738C39.6406 190.598 38.4115 191.084 37.0885 191.204C35.8021 191.191 34.526 191.004 33.2708 190.651L32.2292 190.871V191.317C34.0521 191.651 35.9583 192.317 37.8698 191.984C38.526 191.864 39.1615 191.644 39.776 191.317C41.25 190.318 42.8073 189.432 44.2812 188.213C45.7552 186.993 48.099 185.441 48.9635 182.776C49.2135 182.023 49.5833 181.377 50.0729 180.85C50.5625 180.324 51.1146 179.964 51.7396 179.778C52.2031 179.658 52.6354 179.431 53.0417 179.118C55.2083 177.339 57.2917 175.234 57.1146 171.349C56.8542 171.682 56.4219 172.016 56.4219 172.349C56.4219 172.682 55.4688 175.347 54.5156 176.566ZM32.4062 261.642C32.8385 263.968 33.4427 266.3 33.7917 268.738C34.1406 271.183 34.224 273.509 34.401 275.841C33.7917 274.841 34.1406 273.395 33.1875 272.509C33.2708 274.508 33.4427 276.394 33.6198 278.392C33.6562 278.945 33.5729 279.458 33.3594 279.945C33.2708 280.165 32.6667 280.165 32.4062 280.051C31.2708 279.545 30.1146 279.139 28.9375 278.832C27.7552 278.606 26.6823 278.046 25.7031 277.173C24.7292 276.294 23.9583 275.181 23.3854 273.842C22.6042 271.956 21.9115 269.851 21.1302 267.852L20.7865 266.966H20.4375C20.4219 267.339 20.4479 267.712 20.526 268.072C21.651 270.737 22.6042 273.622 23.9062 276.06C24.4323 276.993 25.0729 277.759 25.8438 278.359C26.6094 278.959 27.4375 279.338 28.3281 279.498C29.5469 279.698 30.7344 280.071 31.8854 280.611C33.3594 281.384 33.9635 281.051 34.401 278.945C35.3073 275.681 35.3646 272.389 34.5729 269.071C34.0521 266.853 33.6198 264.634 33.1875 262.415C33.0417 262.062 32.8698 261.729 32.6667 261.416L32.4062 261.642ZM98.2188 147.943L99.1719 146.724C100.25 145.271 101.089 143.612 101.688 141.76C102.286 139.901 102.604 137.976 102.641 135.97C102.641 135.411 102.464 134.971 102.464 134.525H102.031C102.031 134.858 101.943 135.191 101.943 135.637C101.828 137.17 101.625 138.682 101.339 140.181C100.385 144.285 98.1302 147.17 95.526 149.609C94.4531 150.682 93.2396 151.088 91.8854 150.828C89.7188 150.495 87.8958 149.056 86.0781 147.723C84.6979 146.864 83.5052 145.691 82.4948 144.205C81.4896 142.726 80.7448 141.054 80.2656 139.182C80.1823 139.075 80.0052 139.075 79.75 138.742C79.4896 138.409 79.6615 139.961 79.8333 140.294C80.2135 141.387 80.6771 142.426 81.224 143.399C83.474 147.503 86.7708 149.609 90.3281 151.275C91.3906 151.794 92.4844 151.921 93.6042 151.661C94.724 151.401 95.7135 150.795 96.5677 149.835L97.0885 149.502C98.4792 149.609 99.3438 148.503 100.297 147.503C101.25 146.504 100.385 147.17 100.469 146.617L98.0417 148.503C98.1302 148.17 98.1302 148.056 98.2188 147.943ZM20.6146 154.266C21.2292 152.847 22.0104 151.588 22.9531 150.495C23.8854 149.582 24.8646 148.769 25.901 148.056C24.6719 147.863 23.599 148.31 22.6927 149.389C22.3073 149.769 21.875 149.915 21.3906 149.835L17.8385 148.276C17.5677 148.096 17.276 148.023 16.9688 148.056L16.7969 148.609L21.5677 151.055C20.9583 152.047 20.4375 153.047 19.8333 153.933L14.5417 149.722L14.2812 150.275C15.6719 152.381 18.2708 152.827 19.3958 155.492L18.2708 154.713L13.0677 150.055L12.1146 149.609L11.9427 150.055L12.724 150.828L17.6667 155.159C18.5312 155.932 19.5729 156.598 19.0521 158.37L19.3958 158.93C19.7135 157.338 20.1146 155.785 20.6146 154.266ZM20.0938 265.194L19.3958 263.748C18.6094 262.675 17.8854 261.529 17.2292 260.31C15.1823 256.106 13.7083 251.595 12.8073 246.778C12.4583 244.173 12.2865 241.548 12.2865 238.902C12.4688 236.924 12.7292 234.965 13.0677 233.026C13.2396 231.8 13.1562 231.474 12.6354 231.027C11.5938 237.13 10.901 243.227 12.6354 249.436C14.3698 255.653 16.1042 261.089 19.7448 265.52L20.0938 265.194ZM82.0885 113.004C82.8698 113.004 82.5208 113.564 82.4375 114.003C82.349 114.45 82 116.888 81.8281 118.441C81.7865 120.346 81.2083 121.939 80.0938 123.211C79.5052 123.758 79.0729 124.464 78.7917 125.317C77.9271 128.981 77.6667 132.752 79.4896 136.19C79.6615 136.523 79.9219 136.63 80.0938 136.856L80.3542 136.63C80.2656 136.41 80.2656 135.97 80.0938 135.744C78.6198 133.192 78.7917 130.307 79.0521 127.315C79.0885 126.603 79.2396 125.936 79.5156 125.31C79.7865 124.69 80.1562 124.171 80.6146 123.764C81.1979 123.125 81.6562 122.358 81.9896 121.472C82.3229 120.586 82.5 119.647 82.5208 118.661C82.6771 116.855 82.9688 115.076 83.3906 113.337C83.651 112.584 84.0573 111.998 84.6042 111.565C85.0469 111.085 85.5365 110.719 86.0781 110.452L85.9062 109.899L84.3438 110.679C83.7917 111.058 83.2708 111.498 82.7812 112.011L81.4792 110.452L81.224 110.785L82.0885 113.004ZM32.4062 260.53C31.9948 259.617 31.6771 258.657 31.4531 257.645C30.4375 254.02 28.9375 250.769 26.9427 247.884C25.5521 245.665 24.0781 243.56 22.5208 241.454C21.6771 240.442 20.7812 239.515 19.8333 238.683C19.5573 238.516 19.2656 238.409 18.9635 238.349L18.7917 238.683C21.9115 241.341 24.0781 245.225 26.5938 248.663C29.1094 252.101 30.2344 256.759 31.8854 260.863L32.4062 260.53ZM32.5781 108.9C31.5365 117.221 27.8073 123.764 23.5625 129.867C27.026 128.421 34.0521 112.118 32.5781 108.9ZM87.1198 144.952C87.4062 145.005 87.6979 145.005 87.9844 144.952L89.8073 144.065C92.3229 142.846 93.6198 139.961 95.0938 137.296L96.1354 135.411L95.7865 135.077C95.4531 135.717 95.0469 136.27 94.5729 136.743C92.5 138.795 90.1615 139.981 87.5521 140.294L87.0312 140.514V140.961C88.0677 141.241 89.0833 141.134 90.0677 140.628L93.0156 139.182L93.276 139.515C92.4115 140.648 91.4896 141.68 90.5 142.62C89.3906 143.419 88.2344 144.085 87.0312 144.618L87.1198 144.952ZM70.9896 35.1369C71.25 34.917 71.6823 34.8038 71.8594 34.4773L74.1094 31.1459C75.151 29.7068 75.6719 27.9278 76.5417 26.3754C78.4219 23.2773 79.4375 19.766 79.5729 15.8417C79.5417 15.6418 79.4792 15.4553 79.401 15.282C79.0885 15.7751 78.8854 16.3281 78.7917 16.9477C78.6458 19.4929 78.0104 21.8248 76.8854 23.9369L74.1979 29.2604C73.1979 31.2059 72.099 33.0515 70.901 34.8038L70.9896 35.1369ZM31.1042 187.66C33.3594 187.986 35.0938 186.547 36.7396 184.881C40.4688 181.004 42.8958 176.673 42.5521 174.787C39.599 180.444 36.5677 185.767 31.1042 187.66ZM82.0885 113.004C80.4427 110.232 78.7917 107.347 77.0573 104.576L76.7969 104.796C77.5781 107.574 79.2292 109.566 80.4427 111.898L80.0938 112.231L76.4531 107.127L76.2812 107.347C76.3438 107.714 76.4583 108.047 76.625 108.347L79.75 112.784C79.8958 112.984 80.0677 113.151 80.2656 113.27C80.4635 113.39 80.6667 113.457 80.8854 113.477C81.099 113.497 81.3125 113.47 81.5208 113.39C81.7292 113.304 81.9167 113.177 82.0885 113.004ZM42.5521 151.828C42.4635 151.608 42.375 151.275 42.2031 151.161C41.6146 150.608 40.9792 150.169 40.2969 149.835C39.4531 149.629 38.7865 149.076 38.3021 148.17C37 146.058 35.526 144.399 33.3594 144.172H32.1458V144.618L32.75 144.838C33.5417 144.832 34.2917 145.038 35.0052 145.471C35.7188 145.898 36.3281 146.497 36.8281 147.284C38.0417 148.943 39.0833 150.608 40.901 150.941L41.3333 151.275L42.375 152.047L42.5521 151.828ZM24.5156 228.589C28.3281 228.808 31.7969 231.474 35.6146 230.914C35.4375 230.474 35.2656 230.361 35.0052 230.361L30.2344 229.142L25.6406 227.922H24.599L24.5156 228.589ZM31.7083 214.057H30.6719C29.2135 214.39 27.7969 214.91 26.4219 215.61C24.8125 216.569 23.2552 217.642 21.7396 218.828C21.5677 218.934 21.4792 219.267 21.3073 219.601L21.5677 220.047C24.5156 216.716 28.2448 215.83 31.7969 214.497L31.7083 214.057ZM-2.28125 111.012C0.276043 107.754 3.3125 105.608 6.82292 104.576C4.91667 103.243 -1.84375 108.127 -2.28125 111.012ZM77.4948 100.471L84.2552 110.346C84.1719 107.907 78.7917 100.358 77.4948 100.471ZM-13.9844 119.993C-15.8073 118.108 -23 119.993 -23.8698 122.765C-22.224 121.992 -20.6615 120.879 -19.0156 120.546C-17.3646 120.213 -15.7188 120.44 -13.9844 120.44V119.993ZM107.234 110.565C107.234 110.232 107.323 109.899 107.234 109.679C107.083 108.913 106.88 108.173 106.625 107.461C105.589 105.462 104.458 103.47 103.333 101.584C102.203 99.6985 102.464 100.918 101.943 100.691C102.984 102.357 104.026 103.803 104.891 105.355C105.672 107.034 106.365 108.773 106.974 110.565H107.234ZM-32.2812 118.221L-32.5417 118.661L-34.3594 124.317C-34.5365 125.097 -34.7969 125.876 -34.8802 126.536C-34.8385 127.475 -34.724 128.401 -34.5365 129.314L-34.099 128.868C-34.099 128.648 -34.0156 128.535 -34.0156 128.315C-34.0156 128.088 -33.9271 125.21 -33.3229 123.658C-32.7135 122.099 -32.4531 120.879 -32.0208 119.553C-31.974 119.147 -31.974 118.741 -32.0208 118.327L-32.2812 118.221ZM-13.3802 148.056C-12.599 150.275 -11.6458 151.388 -10.6875 150.941C-12.9427 148.723 -13.6354 145.731 -13.6354 142.067C-14.5938 142.846 -14.5052 145.172 -13.3802 148.056ZM14.2812 242.454C13.7604 244.226 15.4948 250.662 17.0573 251.988C16.1042 248.663 15.2344 245.559 14.2812 242.454ZM50.2656 169.244L50.4375 169.577C52.2344 171.156 53.3906 173.301 53.9062 176.007C53.9062 176.233 54.2552 176.453 54.5156 176.566C54.5156 173.348 51.6562 168.464 50.2656 169.244ZM40.3802 167.911C39.2865 168.491 38.1615 168.937 37 169.244C35.8281 169.217 34.6719 169.031 33.5312 168.691C35.1771 170.796 39.1667 170.576 40.3802 167.911ZM74.2865 22.2712C75.4583 19.4595 76.3229 16.5013 76.8854 13.3965C76.1042 13.9561 73.9375 21.2718 74.2865 22.2712ZM-30.375 137.743L-33.8385 129.647C-34.4479 130.867 -31.9323 137.076 -30.375 137.743ZM16.276 123.764C15.9323 122.099 12.375 120.546 10.7292 121.546L16.276 123.764ZM-6.78646 153.16C-5.83333 154.379 -5.14062 154.713 -4.27083 154.16C-6.35416 153.273 -7.39583 151.161 -8.17708 148.836C-8.69791 149.942 -8.08854 151.721 -6.78646 153.16ZM-13.1198 130.534C-14.2448 131.866 -14.5052 136.523 -13.4635 137.856L-13.1198 130.534ZM33.8802 164.14C35.2656 165.806 39.3438 165.586 39.776 164.14H33.8802ZM9.25521 111.012L14.8021 112.564C14.0208 111.012 10.0312 110.012 9.25521 111.012ZM72.8958 24.6032C72.1198 25.2694 70.0365 29.8134 70.2083 30.8128C71.3385 29.5935 73.1562 25.4893 72.8958 24.6032ZM-12.8594 112.451L-12.3385 105.129C-13.3802 106.348 -13.724 110.785 -12.8594 112.451ZM-12.599 125.763C-14.1562 126.429 -16.0677 129.088 -15.8073 130.307H-15.5469L-12.7708 126.762C-12.599 126.536 -12.6823 126.203 -12.599 125.876V125.763ZM-9.73438 125.983C-8.86458 125.383 -8.02604 124.717 -7.21875 123.991C-6.90104 123.731 -6.6875 123.371 -6.57291 122.911C-6.45833 122.445 -6.47396 121.992 -6.61458 121.546H-6.875C-7.44271 123.198 -8.39583 124.304 -9.73438 124.877C-9.82292 124.877 -9.73438 125.43 -9.73438 125.763V125.983ZM-4.27083 150.828C-3.63021 152.074 -2.73438 152.814 -1.58333 153.047L-4.96875 148.503C-5.22916 149.276 -5.14062 149.722 -4.27083 150.828ZM-11.3854 124.984C-10.875 124.83 -10.3802 124.61 -9.91146 124.317C-9.13021 123.658 -8.26041 123.098 -7.91666 121.772L-8.17708 121.439L-11.4688 124.544L-11.3854 124.984ZM11.4219 116.888C10.4688 115.669 7.52084 115.669 6.82292 116.888H11.4219ZM101.078 106.241L104.026 110.232C103.901 109.246 103.573 108.387 103.031 107.654C102.495 106.928 101.844 106.455 101.078 106.241ZM40.1198 230.361L36.4792 230.581V231.14C37.6927 231.693 38.9062 231.14 40.1198 231.027V230.361ZM96.3958 106.348C96.0469 104.796 93.7969 103.689 92.7552 104.462L96.3958 106.348ZM81.6562 132.419C81.224 130.867 80.7865 129.314 80.2656 127.762C79.5729 129.088 80.2656 131.753 81.6562 132.419ZM1.96875 109.346L5.52604 108.014L5.34896 107.461C4.0625 107.347 2.90625 107.787 1.88542 108.793L1.96875 109.346ZM-21.7865 126.096C-22.1094 126.209 -22.401 126.396 -22.6562 126.669C-22.9167 126.936 -23.1198 127.262 -23.2656 127.642C-23.4167 128.028 -23.5 128.428 -23.5104 128.855C-23.526 129.281 -23.474 129.694 -23.349 130.087L-21.7865 126.096ZM13.2396 127.535C12.5469 126.649 10.6406 126.203 9.94792 126.762C10.9583 127.622 12.0573 127.882 13.2396 127.535ZM82.9583 110.785C82.8646 110.086 82.6354 109.466 82.2552 108.946C81.875 108.42 81.4167 108.074 80.875 107.907L82.9583 110.785ZM83.3906 126.762L82.4375 122.765C82.2708 123.105 82.1667 123.478 82.125 123.871C82.0885 124.271 82.1146 124.657 82.2031 125.043C82.2969 125.423 82.4427 125.763 82.651 126.063C82.8594 126.363 83.1042 126.596 83.3906 126.762ZM90.6719 106.908L93.4479 107.794C93.3333 107.467 93.1667 107.187 92.9531 106.961C92.7396 106.734 92.5 106.574 92.2292 106.488C91.9583 106.401 91.6875 106.395 91.4115 106.468C91.1406 106.541 90.8958 106.688 90.6719 106.908ZM22.8646 168.578L19.7448 167.691C20.6979 169.244 22.0885 169.577 22.8646 168.578ZM-12.6823 130.2L-10.8646 127.429C-11.1458 127.395 -11.4115 127.449 -11.6719 127.589C-11.9323 127.729 -12.151 127.935 -12.3333 128.208C-12.5156 128.488 -12.6354 128.801 -12.6979 129.148C-12.7604 129.501 -12.7552 129.854 -12.6823 130.2ZM106.281 115.782L105.589 112.338C105.448 112.624 105.354 112.931 105.318 113.264C105.276 113.597 105.286 113.923 105.354 114.25C105.417 114.576 105.531 114.87 105.693 115.136C105.854 115.403 106.052 115.616 106.281 115.782ZM80.9635 126.316C80.8646 126.949 80.9375 127.555 81.1875 128.115C81.4323 128.681 81.7917 129.081 82.2604 129.314L81.3073 126.203L80.9635 126.316ZM7.86459 136.63L10.0312 137.076L10.2083 136.41L7.95312 135.97L7.86459 136.63ZM44.2812 151.055L45.5833 153.273L46.0156 152.94L44.8021 150.608L44.2812 151.055ZM97.1771 119.887L98.8229 121.546L99.1719 120.993L97.5208 119.22L97.1771 119.887ZM-12.8594 179.778L-14.6771 179.225L-14.8542 179.891L-12.9427 180.444L-12.8594 179.778ZM20.3542 165.253C20.4531 165.639 20.651 165.919 20.9427 166.099C21.2292 166.272 21.526 166.286 21.8281 166.139L22 165.693L20.526 164.807L20.3542 165.253ZM84.2552 122.878L83.9115 120.773H83.3906L83.7344 122.878H84.2552ZM73.7656 57.8767C75.2396 58.1032 82.7812 50.1147 83.651 47.1164L73.7656 57.8767ZM75.2396 49.2285L71.1615 53.999C72.2917 54.3321 75.151 51.1141 75.2396 49.2285ZM79.6615 48.8954C78.1823 50.3212 76.8542 51.9469 75.6719 53.7725C76.8021 53.5526 79.8333 49.8948 79.6615 48.8954ZM72.8958 49.7815L71.1615 52.0002L71.599 52.5532C72.1302 51.7937 72.7083 51.0941 73.3333 50.4478L72.8958 49.7815ZM89.026 35.1369L87.4635 35.47V36.1363L89.026 35.9164V35.1369ZM54.9479 159.483C56.3385 159.483 58.5052 156.598 58.5885 154.826L54.9479 159.483ZM16.9688 67.9707C18.099 66.8647 18.6198 62.5339 17.9219 60.9815L16.9688 67.9707Z" fill="#2B0505"/>
</g>
</g>
</g>
</g>
</svg>
