<svg width="36" height="36" viewBox="0 0 36 36" fill="none" xmlns="http://www.w3.org/2000/svg">
<path d="M11.5738 29.0328H6.77473V13.1751H11.7825V29.0328H11.5738ZM9.27859 11.0885C7.60935 11.0885 6.35742 9.62791 6.35742 8.16733C6.35742 6.49809 7.60935 5.24615 9.27859 5.24615C10.9478 5.24615 12.1998 6.49809 12.1998 8.16733C11.9911 9.62791 10.7392 11.0885 9.27859 11.0885ZM30.1441 29.0328H25.1364V21.3126C25.1364 19.4347 25.1364 17.1395 22.6325 17.1395C20.1287 17.1395 19.7114 19.226 19.7114 21.3126V29.2415H14.7036V13.1751H19.5027V15.2616C20.1287 14.0097 21.7979 12.7577 24.0931 12.7577C29.1008 12.7577 29.9355 16.0962 29.9355 20.2693V29.0328H30.1441Z" fill="white"/>
</svg>
