<svg width="36" height="36" viewBox="0 0 36 36" fill="none" xmlns="http://www.w3.org/2000/svg">
<path d="M32.7012 12C32.7012 12 32.4082 9.93164 31.5059 9.02344C30.3633 7.82813 29.0859 7.82227 28.5 7.75195C24.3047 7.44727 18.0059 7.44727 18.0059 7.44727H17.9941C17.9941 7.44727 11.6953 7.44727 7.5 7.75195C6.91406 7.82227 5.63672 7.82813 4.49414 9.02344C3.5918 9.93164 3.30469 12 3.30469 12C3.30469 12 3 14.4316 3 16.8574V19.1309C3 21.5566 3.29883 23.9883 3.29883 23.9883C3.29883 23.9883 3.5918 26.0566 4.48828 26.9648C5.63086 28.1602 7.13086 28.1191 7.79883 28.248C10.2012 28.4766 18 28.5469 18 28.5469C18 28.5469 24.3047 28.5352 28.5 28.2363C29.0859 28.166 30.3633 28.1602 31.5059 26.9648C32.4082 26.0566 32.7012 23.9883 32.7012 23.9883C32.7012 23.9883 33 21.5625 33 19.1309V16.8574C33 14.4316 32.7012 12 32.7012 12ZM14.9004 21.8906V13.459L23.0039 17.6895L14.9004 21.8906Z" fill="white"/>
</svg>
