<svg width="298" height="145" viewBox="0 0 298 145" fill="none" xmlns="http://www.w3.org/2000/svg">
<mask id="mask0_3_19820" style="mask-type:luminance" maskUnits="userSpaceOnUse" x="0" y="0" width="298" height="145">
<path d="M297.54 0H1.98111e-05V144.956H297.54V0Z" fill="white"/>
</mask>
<g mask="url(#mask0_3_19820)">
<mask id="mask1_3_19820" style="mask-type:luminance" maskUnits="userSpaceOnUse" x="106" y="0" width="177" height="49">
<path d="M106.074 0H282.196V48.758H106.074V0Z" fill="white"/>
</mask>
<g mask="url(#mask1_3_19820)">
<mask id="mask2_3_19820" style="mask-type:luminance" maskUnits="userSpaceOnUse" x="1" y="-123" width="297" height="267">
<path d="M87.8006 143.893L1.00072 0.773933L210.219 -123L297.019 20.1186L87.8006 143.893Z" fill="white"/>
</mask>
<g mask="url(#mask2_3_19820)">
<mask id="mask3_3_19820" style="mask-type:luminance" maskUnits="userSpaceOnUse" x="1" y="-123" width="297" height="267">
<path d="M87.8006 143.893L1.00072 0.773933L210.219 -123L297.019 20.1186L87.8006 143.893Z" fill="white"/>
</mask>
<g mask="url(#mask3_3_19820)">
<path d="M281.437 -4.61054C263.148 -10.7671 244.901 -16.9081 217.523 -15.0344C190.113 -13.1658 153.577 -3.26186 133.751 8.51583C113.993 20.2575 110.855 33.8574 107.697 47.55C107.655 47.7199 107.488 47.8229 107.316 47.7868C107.149 47.7457 107.045 47.5809 107.082 47.4111C110.251 33.6824 113.435 19.8611 133.428 7.98563C153.359 -3.85898 189.999 -13.7784 217.481 -15.6573C244.99 -17.5361 263.341 -11.359 281.64 -5.19736C281.807 -5.14074 281.896 -4.96572 281.838 -4.801C281.781 -4.64142 281.604 -4.55391 281.437 -4.61054Z" fill="#8C3038"/>
</g>
</g>
</g>
<mask id="mask4_3_19820" style="mask-type:luminance" maskUnits="userSpaceOnUse" x="29" y="3" width="98" height="35">
<path d="M29.0202 3H126.421V37.2624H29.0202V3Z" fill="white"/>
</mask>
<g mask="url(#mask4_3_19820)">
<mask id="mask5_3_19820" style="mask-type:luminance" maskUnits="userSpaceOnUse" x="1" y="-122" width="297" height="267">
<path d="M87.8006 144.893L1.00072 1.77393L210.219 -122L297.019 21.1186L87.8006 144.893Z" fill="white"/>
</mask>
<g mask="url(#mask5_3_19820)">
<mask id="mask6_3_19820" style="mask-type:luminance" maskUnits="userSpaceOnUse" x="1" y="-122" width="297" height="267">
<path d="M87.8006 144.893L1.00072 1.77393L210.219 -122L297.019 21.1186L87.8006 144.893Z" fill="white"/>
</mask>
<g mask="url(#mask6_3_19820)">
<path d="M125.154 14.7067C116.7 19.6124 108.226 24.5335 99.3756 28.0699C90.5257 31.6063 81.311 33.758 69.5737 35.0037C57.8416 36.2546 43.5817 36.5994 29.3426 36.9495C29.2071 36.9495 29.0872 36.8723 29.0403 36.7487C28.9934 36.6252 29.0299 36.481 29.1341 36.3987C45.3225 23.0355 61.589 9.60545 72.8312 5.50797C81.8218 2.2341 87.6175 4.91599 93.5122 7.63907C95.0497 8.34944 96.5872 9.05981 98.1977 9.67237C105.979 12.6425 115.47 13.3838 125.024 14.125C125.159 14.1405 125.274 14.2331 125.305 14.367C125.336 14.5008 125.274 14.6347 125.154 14.7067ZM124.836 14.1714L124.972 14.7479C115.444 14.0066 105.859 13.2602 97.9684 10.254C96.3371 9.63119 94.7787 8.91053 93.2464 8.20016C87.3673 5.48738 81.7801 2.91358 73.0448 6.09479C61.9382 10.1408 45.7759 23.4731 29.5355 36.8774L29.327 36.3266C43.5765 35.9766 57.8051 35.6317 69.5059 34.386C81.1963 33.1454 90.3537 31.004 99.1411 27.4933C107.939 23.9724 116.377 19.077 124.836 14.1714Z" fill="#8C3038"/>
</g>
</g>
</g>
<mask id="mask7_3_19820" style="mask-type:luminance" maskUnits="userSpaceOnUse" x="65" y="13" width="61" height="14">
<path d="M65.0452 13H125.087V26.1778H65.0452V13Z" fill="white"/>
</mask>
<g mask="url(#mask7_3_19820)">
<mask id="mask8_3_19820" style="mask-type:luminance" maskUnits="userSpaceOnUse" x="1" y="-123" width="297" height="267">
<path d="M87.8006 143.893L1.00072 0.773933L210.219 -123L297.019 20.1186L87.8006 143.893Z" fill="white"/>
</mask>
<g mask="url(#mask8_3_19820)">
<mask id="mask9_3_19820" style="mask-type:luminance" maskUnits="userSpaceOnUse" x="1" y="-123" width="297" height="267">
<path d="M87.8006 143.893L1.00072 0.773933L210.219 -123L297.019 20.1186L87.8006 143.893Z" fill="white"/>
</mask>
<g mask="url(#mask9_3_19820)">
<path d="M123.912 14.2476C112.122 13.6196 100.385 12.9968 90.8421 14.8757C81.3042 16.7494 73.9397 21.1197 66.5231 25.526C66.3772 25.6135 66.1791 25.5672 66.0905 25.4179C66.0019 25.2687 66.0488 25.0782 66.1999 24.9907C73.6061 20.5946 81.0592 16.1626 90.717 14.2631C100.359 12.3688 112.18 13.0019 123.943 13.6248C124.12 13.6351 124.251 13.7844 124.24 13.9542C124.235 14.1241 124.084 14.2579 123.912 14.2476Z" fill="#8C3038"/>
</g>
</g>
</g>
<mask id="mask10_3_19820" style="mask-type:luminance" maskUnits="userSpaceOnUse" x="168" y="0" width="27" height="26">
<path d="M168.117 0H194.802V25.0379H168.117V0Z" fill="white"/>
</mask>
<g mask="url(#mask10_3_19820)">
<mask id="mask11_3_19820" style="mask-type:luminance" maskUnits="userSpaceOnUse" x="2" y="-123" width="297" height="267">
<path d="M88.8013 143.893L2.00141 0.773933L211.22 -123L298.019 20.1186L88.8013 143.893Z" fill="white"/>
</mask>
<g mask="url(#mask11_3_19820)">
<mask id="mask12_3_19820" style="mask-type:luminance" maskUnits="userSpaceOnUse" x="2" y="-123" width="297" height="267">
<path d="M88.8013 143.893L2.00141 0.773933L211.22 -123L298.019 20.1186L88.8013 143.893Z" fill="white"/>
</mask>
<g mask="url(#mask12_3_19820)">
<path d="M169.122 23.6687C170.545 15.0362 171.979 6.30584 176.216 0.164757C180.458 -5.97632 187.489 -9.49213 194.421 -12.9668C194.572 -13.044 194.765 -12.9822 194.843 -12.8278C194.922 -12.6785 194.859 -12.488 194.703 -12.4108C187.74 -8.92075 180.87 -5.47186 176.737 0.514793C172.594 6.51689 171.176 15.0928 169.743 23.7665C169.711 23.9364 169.55 24.0496 169.383 24.0239C169.211 23.9981 169.091 23.8385 169.122 23.6687Z" fill="#8C3038"/>
</g>
</g>
</g>
<mask id="mask13_3_19820" style="mask-type:luminance" maskUnits="userSpaceOnUse" x="145" y="24" width="26" height="77">
<path d="M145.101 24H170.452V100.431H145.101V24Z" fill="white"/>
</mask>
<g mask="url(#mask13_3_19820)">
<mask id="mask14_3_19820" style="mask-type:luminance" maskUnits="userSpaceOnUse" x="1" y="-122" width="297" height="267">
<path d="M87.8006 144.893L1.00072 1.77393L210.219 -122L297.019 21.1186L87.8006 144.893Z" fill="white"/>
</mask>
<g mask="url(#mask14_3_19820)">
<mask id="mask15_3_19820" style="mask-type:luminance" maskUnits="userSpaceOnUse" x="1" y="-122" width="297" height="267">
<path d="M87.8006 144.893L1.00072 1.77393L210.219 -122L297.019 21.1186L87.8006 144.893Z" fill="white"/>
</mask>
<g mask="url(#mask15_3_19820)">
<path d="M168.844 25.2709L168.849 25.3018C170.241 36.086 171.632 46.9268 167.004 62.5395C162.402 78.0595 151.759 98.5675 148.069 100.282C147.444 100.57 146.923 100.4 146.594 99.8647C145.349 97.8108 146.719 89.2195 147.892 81.7143C148.278 79.2537 148.648 76.8858 148.919 74.8422C149.456 70.7757 149.596 68.0062 149.711 65.7619C149.784 64.2331 149.852 62.9359 150.024 61.6335C150.201 60.2951 150.488 58.9619 151.019 57.361C152.817 51.9457 157.383 43.4934 160.708 37.6354C164.044 31.762 166.155 28.4521 168.266 25.1422C168.338 25.0341 168.469 24.9775 168.599 25.0084C168.729 25.0341 168.828 25.1422 168.844 25.2709ZM168.219 25.3481L168.797 25.4768C166.692 28.7816 164.581 32.0812 161.255 37.9391C157.925 43.8074 153.391 52.2083 151.619 57.5566C151.103 59.1163 150.821 60.4135 150.649 61.7159C150.477 62.9873 150.415 64.2588 150.336 65.7928C150.227 68.0423 150.086 70.8323 149.544 74.9195C149.273 76.9734 148.898 79.3515 148.512 81.8069C147.308 89.5232 146.042 97.7439 147.136 99.5404C147.293 99.8029 147.465 99.875 147.798 99.7206C151.181 98.1506 161.771 77.9823 166.4 62.3645C170.986 46.8805 169.61 36.1478 168.224 25.379L168.219 25.3481Z" fill="#8C3038"/>
</g>
</g>
</g>
<mask id="mask16_3_19820" style="mask-type:luminance" maskUnits="userSpaceOnUse" x="168" y="24" width="25" height="62">
<path d="M168.117 24H192.133V85.9359H168.117V24Z" fill="white"/>
</mask>
<g mask="url(#mask16_3_19820)">
<mask id="mask17_3_19820" style="mask-type:luminance" maskUnits="userSpaceOnUse" x="2" y="-122" width="297" height="267">
<path d="M88.8013 144.893L2.00141 1.77393L211.22 -122L298.019 21.1186L88.8013 144.893Z" fill="white"/>
</mask>
<g mask="url(#mask17_3_19820)">
<mask id="mask18_3_19820" style="mask-type:luminance" maskUnits="userSpaceOnUse" x="2" y="-122" width="297" height="267">
<path d="M88.8013 144.893L2.00141 1.77393L211.22 -122L298.019 21.1186L88.8013 144.893Z" fill="white"/>
</mask>
<g mask="url(#mask18_3_19820)">
<path d="M170.596 36.4198L169.121 25.3525C169.1 25.2135 169.173 25.0848 169.298 25.0282C169.423 24.9716 169.574 25.0025 169.668 25.1003L169.715 25.1569C176.241 32.2812 182.792 39.4415 186.977 46.3393C188.192 48.3417 189.208 50.3235 189.969 52.2796C193.341 60.9584 191.642 69.0607 190.292 75.521L190.266 75.6651L190.198 75.9894L190.13 76.3086C189.031 81.5797 188.082 86.4648 186.133 86.0684C185.914 86.0272 185.705 85.9191 185.502 85.7647C185.064 85.4301 184.616 84.8278 184.163 84.0866C182.495 81.3326 180.561 76.149 179.284 72.731C179.206 72.5251 179.097 72.2368 179.029 72.0464C178.888 71.6809 178.747 71.3 178.628 70.9808C178.518 70.6874 178.419 70.4249 178.32 70.1623C177.293 67.4187 176.892 66.1987 175.897 61.7563C174.708 56.4234 172.655 46.4319 170.601 36.4456V36.4404C170.601 36.4353 170.596 36.425 170.596 36.4198ZM171.221 36.3375L171.216 36.3169V36.322C173.27 46.3084 175.323 56.2947 176.512 61.6225C177.502 66.0391 177.893 67.2334 178.909 69.9461C179.008 70.2035 179.107 70.4763 179.217 70.7646C179.342 71.094 179.477 71.4544 179.618 71.8353C179.691 72.0309 179.795 72.2986 179.873 72.5148C181.161 75.9637 183.073 81.0752 184.705 83.7623C185.148 84.4984 185.549 85.0131 185.888 85.2705C186.039 85.3838 186.159 85.4404 186.258 85.461C187.399 85.6926 188.28 82.0842 189.515 76.185L189.578 75.8659L189.646 75.5364L189.677 75.3923C191.027 68.9269 192.679 60.9893 189.38 52.5061C188.635 50.586 187.634 48.6351 186.435 46.6584C182.292 39.8224 175.787 32.7136 169.251 25.5739L169.199 25.5172L169.746 25.2702L171.221 36.3375Z" fill="#8C3038"/>
</g>
</g>
</g>
<mask id="mask19_3_19820" style="mask-type:luminance" maskUnits="userSpaceOnUse" x="104" y="46" width="26" height="57">
<path d="M104.072 46H129.423V102.665H104.072V46Z" fill="white"/>
</mask>
<g mask="url(#mask19_3_19820)">
<mask id="mask20_3_19820" style="mask-type:luminance" maskUnits="userSpaceOnUse" x="2" y="-123" width="297" height="267">
<path d="M88.8013 143.893L2.00142 0.773933L211.22 -123L298.019 20.1186L88.8013 143.893Z" fill="white"/>
</mask>
<g mask="url(#mask20_3_19820)">
<mask id="mask21_3_19820" style="mask-type:luminance" maskUnits="userSpaceOnUse" x="2" y="-123" width="297" height="267">
<path d="M88.8013 143.893L2.00142 0.773933L211.22 -123L298.019 20.1186L88.8013 143.893Z" fill="white"/>
</mask>
<g mask="url(#mask21_3_19820)">
<path d="M108.335 47.3605C106.245 59.7302 104.187 71.9814 107.283 80.8868C107.825 82.4517 108.528 83.9136 109.367 85.2931C113.282 91.7534 120.088 96.3708 126.973 101.04L126.53 101.127L126.536 101.122C128.704 97.8944 130.789 94.775 128.214 89.231C127.854 88.4486 127.396 87.6147 126.864 86.7396C125.379 84.2893 123.33 81.5354 121.188 78.6476C118.869 75.5281 116.445 72.2543 114.527 69.0988C114.308 68.7333 114.089 68.3678 113.886 68.0075C109.638 60.5795 108.674 53.9391 107.715 47.3554L108.335 47.3605ZM107.715 47.2575C107.741 47.1083 107.877 46.995 108.028 47.0002C108.184 47.0002 108.315 47.1134 108.335 47.2678C109.294 53.8516 110.248 60.3839 114.433 67.7038C114.637 68.059 114.85 68.4193 115.069 68.7796C116.966 71.9094 119.374 75.1524 121.699 78.2821C123.836 81.1596 125.9 83.9393 127.406 86.4204C127.943 87.311 128.412 88.1655 128.787 88.9737C131.508 94.8316 129.246 98.2084 127.057 101.467C127.01 101.539 126.937 101.585 126.854 101.601C126.77 101.616 126.687 101.601 126.614 101.554C119.76 96.9061 112.828 92.2115 108.825 85.6123C107.971 84.2018 107.246 82.6987 106.683 81.0875C103.525 71.9969 105.636 59.5654 107.715 47.2575Z" fill="#8C3038"/>
</g>
</g>
</g>
<mask id="mask22_3_19820" style="mask-type:luminance" maskUnits="userSpaceOnUse" x="62" y="46" width="46" height="58">
<path d="M62.0431 46H107.408V103.983H62.0431V46Z" fill="white"/>
</mask>
<g mask="url(#mask22_3_19820)">
<mask id="mask23_3_19820" style="mask-type:luminance" maskUnits="userSpaceOnUse" x="1" y="-123" width="297" height="267">
<path d="M87.8006 143.893L1.00072 0.773933L210.219 -123L297.019 20.1186L87.8006 143.893Z" fill="white"/>
</mask>
<g mask="url(#mask23_3_19820)">
<mask id="mask24_3_19820" style="mask-type:luminance" maskUnits="userSpaceOnUse" x="1" y="-123" width="297" height="267">
<path d="M87.8006 143.893L1.00072 0.773933L210.219 -123L297.019 20.1186L87.8006 143.893Z" fill="white"/>
</mask>
<g mask="url(#mask24_3_19820)">
<path d="M106.74 47.5733C97.5719 53.3644 88.4405 59.1297 79.1945 70.928C70.1049 82.5255 61.2393 99.4817 62.8186 102.091C62.855 102.148 62.8967 102.194 62.9384 102.23C65.0858 103.965 79.0329 90.6896 85.9805 82.299C86.0013 82.2733 86.0222 82.2527 86.043 82.2218C90.8901 76.3535 91.7605 73.5017 92.6726 70.5316C93.0218 69.3888 93.3815 68.2152 93.9704 66.8511C96.1021 61.9197 101.22 54.5071 106.307 47.1358L106.74 47.5733ZM106.401 47.0483C106.526 46.971 106.693 46.9865 106.797 47.0946C106.901 47.2027 106.912 47.3623 106.828 47.4858C101.721 54.8829 96.6493 62.2337 94.5541 67.093C93.9756 68.4211 93.6264 69.569 93.2772 70.7118C92.3443 73.7437 91.4426 76.6727 86.5329 82.6181C86.5121 82.6439 86.486 82.6696 86.4652 82.6954C79.8929 90.6329 65.3255 104.959 62.5423 102.709C62.4381 102.627 62.3495 102.524 62.2817 102.411C60.4211 99.3427 69.7765 81.9284 78.6994 70.547C88.0184 58.6612 97.2279 52.8445 106.401 47.0483Z" fill="#8C3038"/>
</g>
</g>
</g>
<mask id="mask25_3_19820" style="mask-type:luminance" maskUnits="userSpaceOnUse" x="109" y="34" width="33" height="45">
<path d="M109.076 34H141.098V78.8047H109.076V34Z" fill="white"/>
</mask>
<g mask="url(#mask25_3_19820)">
<mask id="mask26_3_19820" style="mask-type:luminance" maskUnits="userSpaceOnUse" x="1" y="-123" width="297" height="267">
<path d="M87.8006 143.893L1.00072 0.773933L210.219 -123L297.019 20.1186L87.8006 143.893Z" fill="white"/>
</mask>
<g mask="url(#mask26_3_19820)">
<mask id="mask27_3_19820" style="mask-type:luminance" maskUnits="userSpaceOnUse" x="1" y="-123" width="297" height="267">
<path d="M87.8006 143.893L1.00072 0.773933L210.219 -123L297.019 20.1186L87.8006 143.893Z" fill="white"/>
</mask>
<g mask="url(#mask27_3_19820)">
<path d="M139.28 78.065C140.239 72.66 141.13 67.4764 139.384 64.7584C139.343 64.6915 139.296 64.6246 139.254 64.5628C138.41 63.3995 137.039 62.6737 135.189 61.7059C133.083 60.6043 130.446 59.2248 127.584 56.5429C124.478 53.6293 121.116 49.1818 118.224 45.1718C117.557 44.2504 116.905 43.3393 116.295 42.4848C115.743 41.7075 115.216 40.9714 114.721 40.2868V40.2816C113.971 39.2418 113.298 38.3358 112.725 37.6152C111.532 36.1121 110.896 35.6128 110.703 35.6179C110.708 35.6179 110.724 35.6179 110.739 35.6025C110.745 35.6025 110.75 35.5973 110.75 35.5973C110.505 35.9062 110.896 37.8777 112.251 41.8259C114.539 48.4817 119.224 59.9506 124.165 66.7917C124.212 66.8535 124.254 66.9153 124.301 66.9771C129.263 73.7564 134.454 75.7794 139.707 77.8282L139.28 78.065ZM139.9 78.1731C139.885 78.2657 139.827 78.3429 139.744 78.3893C139.666 78.4356 139.567 78.4408 139.478 78.4099C134.198 76.3508 128.861 74.2712 123.79 67.3425C123.743 67.2808 123.696 67.2138 123.655 67.1521C118.656 60.2337 113.945 48.6928 111.657 42.0267C110.385 38.341 109.739 35.865 110.255 35.2164C110.281 35.1804 110.312 35.1443 110.354 35.1134C110.453 35.0362 110.567 35.0002 110.687 35.0002C111.276 34.9848 112.141 35.8701 113.22 37.2343C113.804 37.9652 114.482 38.8815 115.232 39.9213L115.237 39.9264C115.732 40.6111 116.259 41.3523 116.811 42.1245C117.421 42.979 118.067 43.8901 118.734 44.8115C121.632 48.8266 124.963 53.2278 128.022 56.095C130.811 58.71 133.38 60.0587 135.486 61.1551C137.294 62.1023 138.821 62.895 139.765 64.2025C139.817 64.2746 139.869 64.3466 139.916 64.4239C141.829 67.3992 140.833 72.8968 139.9 78.1731Z" fill="#8C3038"/>
</g>
</g>
</g>
<mask id="mask28_3_19820" style="mask-type:luminance" maskUnits="userSpaceOnUse" x="201" y="0" width="27" height="37">
<path d="M201.14 0H227.825V36.898H201.14V0Z" fill="white"/>
</mask>
<g mask="url(#mask28_3_19820)">
<mask id="mask29_3_19820" style="mask-type:luminance" maskUnits="userSpaceOnUse" x="1" y="-123" width="297" height="267">
<path d="M87.8006 143.893L1.00072 0.773933L210.219 -123L297.019 20.1186L87.8006 143.893Z" fill="white"/>
</mask>
<g mask="url(#mask29_3_19820)">
<mask id="mask30_3_19820" style="mask-type:luminance" maskUnits="userSpaceOnUse" x="1" y="-123" width="297" height="267">
<path d="M87.8006 143.893L1.00072 0.773933L210.219 -123L297.019 20.1186L87.8006 143.893Z" fill="white"/>
</mask>
<g mask="url(#mask30_3_19820)">
<path d="M227.289 -15.7217C227.919 -9.57547 228.576 -3.28511 224.73 2.15075C223.348 4.10169 221.389 5.93423 219.413 7.79251C217.308 9.76404 215.171 11.7716 213.586 14.0108C212.518 15.5242 211.705 17.1302 211.324 18.901C210.485 22.808 211.731 27.549 212.664 31.0648C213.175 33.0054 213.628 34.6733 213.446 35.5072C213.378 35.8315 213.195 36.1249 212.815 36.2021C211.616 36.444 208.724 34.0144 206.342 30.7199C203.976 27.446 201.906 23.0294 202.162 18.587C202.62 10.5516 210.694 2.578 216.38 -3.05347C217.063 -3.7278 217.709 -4.37125 218.314 -4.97867C223.937 -10.6668 225.318 -13.2509 226.7 -15.8349C226.762 -15.9533 226.898 -16.0203 227.038 -15.9945C227.174 -15.9688 227.278 -15.8555 227.289 -15.7217ZM226.663 -15.6599L227.252 -15.5467C225.85 -12.9111 224.438 -10.2807 218.762 -4.54112C218.157 -3.93371 217.511 -3.29026 216.828 -2.61592C211.074 3.08247 203.23 10.8759 202.787 18.6231C202.547 22.8647 204.528 27.1372 206.858 30.3596C209.328 33.7879 211.976 35.7388 212.69 35.5895C212.732 35.5844 212.794 35.5638 212.831 35.3785C212.971 34.7299 212.596 33.268 212.054 31.2192C211.132 27.7446 209.834 22.8492 210.709 18.7723C211.111 16.8986 211.965 15.2153 213.07 13.6556C214.702 11.3547 216.886 9.30591 218.976 7.33953C220.967 5.4761 222.874 3.68473 224.214 1.79556C227.904 -3.4241 227.299 -9.46737 226.663 -15.6599Z" fill="#8C3038"/>
</g>
</g>
</g>
<mask id="mask31_3_19820" style="mask-type:luminance" maskUnits="userSpaceOnUse" x="76" y="47" width="31" height="37">
<path d="M76.0528 47H106.741V83.898H76.0528V47Z" fill="white"/>
</mask>
<g mask="url(#mask31_3_19820)">
<mask id="mask32_3_19820" style="mask-type:luminance" maskUnits="userSpaceOnUse" x="2" y="-123" width="297" height="267">
<path d="M88.8013 143.893L2.00142 0.773933L211.22 -123L298.019 20.1186L88.8013 143.893Z" fill="white"/>
</mask>
<g mask="url(#mask32_3_19820)">
<mask id="mask33_3_19820" style="mask-type:luminance" maskUnits="userSpaceOnUse" x="2" y="-123" width="297" height="267">
<path d="M88.8013 143.893L2.00142 0.773933L211.22 -123L298.019 20.1186L88.8013 143.893Z" fill="white"/>
</mask>
<g mask="url(#mask33_3_19820)">
<path d="M107.43 48.3603C102.573 53.1064 97.7254 57.8473 92.8991 63.7362C88.0677 69.625 83.2622 76.667 78.4464 83.7192C78.3786 83.8118 78.2483 83.8376 78.1493 83.7758C78.0503 83.7089 78.0242 83.5802 78.092 83.4824C82.9026 76.4353 87.7237 69.378 92.5656 63.4737C97.4075 57.5642 102.275 52.8079 107.128 48.0618C107.211 47.9794 107.347 47.9794 107.43 48.0618C107.513 48.1441 107.513 48.278 107.43 48.3603Z" fill="#8C3038"/>
</g>
</g>
</g>
<mask id="mask34_3_19820" style="mask-type:luminance" maskUnits="userSpaceOnUse" x="106" y="47" width="11" height="37">
<path d="M106.074 47H116.748V83.898H106.074V47Z" fill="white"/>
</mask>
<g mask="url(#mask34_3_19820)">
<mask id="mask35_3_19820" style="mask-type:luminance" maskUnits="userSpaceOnUse" x="1" y="-123" width="297" height="267">
<path d="M87.8006 143.893L1.00072 0.773933L210.219 -123L297.019 20.1186L87.8006 143.893Z" fill="white"/>
</mask>
<g mask="url(#mask35_3_19820)">
<mask id="mask36_3_19820" style="mask-type:luminance" maskUnits="userSpaceOnUse" x="1" y="-123" width="297" height="267">
<path d="M87.8006 143.893L1.00072 0.773933L210.219 -123L297.019 20.1186L87.8006 143.893Z" fill="white"/>
</mask>
<g mask="url(#mask36_3_19820)">
<path d="M115.344 83.5964L115.333 83.5759C111.972 77.0281 108.599 70.4546 107.119 64.5503C105.634 58.6306 106.046 53.3955 106.457 48.1964C106.463 48.078 106.567 47.9905 106.687 48.0008C106.801 48.0111 106.89 48.1141 106.879 48.2273C106.468 53.4315 106.061 58.6049 107.531 64.4474C109.001 70.2951 112.347 76.8274 115.709 83.3854L115.719 83.406C115.776 83.5089 115.735 83.6376 115.625 83.6891C115.521 83.7406 115.396 83.6994 115.344 83.5964Z" fill="#8C3038"/>
</g>
</g>
</g>
<mask id="mask37_3_19820" style="mask-type:luminance" maskUnits="userSpaceOnUse" x="109" y="36" width="23" height="32">
<path d="M109.076 36H131.758V67.6268H109.076V36Z" fill="white"/>
</mask>
<g mask="url(#mask37_3_19820)">
<mask id="mask38_3_19820" style="mask-type:luminance" maskUnits="userSpaceOnUse" x="1" y="-122" width="297" height="267">
<path d="M87.8006 144.893L1.00072 1.77393L210.219 -122L297.019 21.1186L87.8006 144.893Z" fill="white"/>
</mask>
<g mask="url(#mask38_3_19820)">
<mask id="mask39_3_19820" style="mask-type:luminance" maskUnits="userSpaceOnUse" x="1" y="-122" width="297" height="267">
<path d="M87.8006 144.893L1.00072 1.77393L210.219 -122L297.019 21.1186L87.8006 144.893Z" fill="white"/>
</mask>
<g mask="url(#mask39_3_19820)">
<path d="M110.489 36.1347C112.157 40.2785 113.819 44.412 115.722 48.5352C117.624 52.6585 119.756 56.7405 122.346 59.7415C124.931 62.7426 127.975 64.6678 131.05 66.6084C131.149 66.6754 131.18 66.804 131.118 66.9018C131.05 66.9997 130.92 67.0254 130.821 66.9636C127.751 65.023 124.65 63.0669 122.023 60.0144C119.391 56.967 117.239 52.8335 115.336 48.7102C113.429 44.5767 111.761 40.4278 110.093 36.2891C110.046 36.181 110.103 36.0575 110.213 36.0163C110.322 35.9699 110.442 36.0266 110.489 36.1347Z" fill="#8C3038"/>
</g>
</g>
</g>
<mask id="mask40_3_19820" style="mask-type:luminance" maskUnits="userSpaceOnUse" x="152" y="25" width="18" height="57">
<path d="M152.106 25H169.451V81.6647H152.106V25Z" fill="white"/>
</mask>
<g mask="url(#mask40_3_19820)">
<mask id="mask41_3_19820" style="mask-type:luminance" maskUnits="userSpaceOnUse" x="2" y="-123" width="297" height="267">
<path d="M88.8013 143.893L2.00142 0.773933L211.22 -123L298.019 20.1186L88.8013 143.893Z" fill="white"/>
</mask>
<g mask="url(#mask41_3_19820)">
<mask id="mask42_3_19820" style="mask-type:luminance" maskUnits="userSpaceOnUse" x="2" y="-123" width="297" height="267">
<path d="M88.8013 143.893L2.00142 0.773933L211.22 -123L298.019 20.1186L88.8013 143.893Z" fill="white"/>
</mask>
<g mask="url(#mask42_3_19820)">
<path d="M169.759 25.2574L169.743 25.3192C167.945 33.1796 166.147 41.0503 163.608 50.3108C161.07 59.597 157.797 70.2886 154.524 80.9699C154.487 81.0831 154.373 81.1449 154.258 81.1088C154.143 81.078 154.081 80.9596 154.117 80.8463C157.391 70.1651 160.664 59.4838 163.202 50.2027C165.73 40.9473 167.533 33.0869 169.331 25.2266L169.342 25.1648C169.368 25.0515 169.482 24.9795 169.597 25.0052C169.712 25.031 169.785 25.1442 169.759 25.2574Z" fill="#8C3038"/>
</g>
</g>
</g>
<mask id="mask43_3_19820" style="mask-type:luminance" maskUnits="userSpaceOnUse" x="168" y="24" width="18" height="45">
<path d="M168.117 24H185.462V68.8047H168.117V24Z" fill="white"/>
</mask>
<g mask="url(#mask43_3_19820)">
<mask id="mask44_3_19820" style="mask-type:luminance" maskUnits="userSpaceOnUse" x="2" y="-122" width="297" height="267">
<path d="M88.8013 144.893L2.00141 1.77393L211.22 -122L298.019 21.1186L88.8013 144.893Z" fill="white"/>
</mask>
<g mask="url(#mask44_3_19820)">
<mask id="mask45_3_19820" style="mask-type:luminance" maskUnits="userSpaceOnUse" x="2" y="-122" width="297" height="267">
<path d="M88.8013 144.893L2.00141 1.77393L211.22 -122L298.019 21.1186L88.8013 144.893Z" fill="white"/>
</mask>
<g mask="url(#mask45_3_19820)">
<path d="M169.509 25.0988C171.38 27.9918 173.252 30.8847 174.987 33.7519C177.849 38.4671 180.35 43.1103 181.903 47.5372C184.395 54.6615 184.41 61.2092 184.426 67.7261C184.426 67.8445 184.332 67.9371 184.212 67.9371C184.098 67.9371 184.004 67.8445 184.004 67.7261C183.983 61.2092 183.967 54.7232 181.502 47.6762C179.965 43.2853 177.478 38.673 174.622 33.9681C172.887 31.1061 171.021 28.2183 169.15 25.3253C169.087 25.2275 169.118 25.0988 169.218 25.0319C169.317 24.9701 169.447 25.001 169.509 25.0988Z" fill="#8C3038"/>
</g>
</g>
</g>
<mask id="mask46_3_19820" style="mask-type:luminance" maskUnits="userSpaceOnUse" x="206" y="0" width="22" height="20">
<path d="M206.143 0H227.491V19.7668H206.143V0Z" fill="white"/>
</mask>
<g mask="url(#mask46_3_19820)">
<mask id="mask47_3_19820" style="mask-type:luminance" maskUnits="userSpaceOnUse" x="1" y="-123" width="297" height="267">
<path d="M87.8006 143.893L1.00072 0.773933L210.219 -123L297.019 20.1186L87.8006 143.893Z" fill="white"/>
</mask>
<g mask="url(#mask47_3_19820)">
<mask id="mask48_3_19820" style="mask-type:luminance" maskUnits="userSpaceOnUse" x="1" y="-123" width="297" height="267">
<path d="M87.8006 143.893L1.00072 0.773933L210.219 -123L297.019 20.1186L87.8006 143.893Z" fill="white"/>
</mask>
<g mask="url(#mask48_3_19820)">
<path d="M226.252 -15.7426C225.267 -11.5473 224.277 -7.30564 220.952 -2.8993C219.148 -0.510817 216.657 1.92914 214.327 4.21468C212.362 6.13473 210.517 7.94668 209.256 9.54758C206.509 13.0274 206.546 15.4931 206.577 17.9999C206.577 18.1183 206.483 18.211 206.369 18.2161C206.249 18.2161 206.155 18.1235 206.15 18.0051C206.118 15.4622 206.087 12.8781 208.917 9.29021C210.199 7.66356 212.07 5.83102 214.025 3.91611C216.365 1.62543 218.83 -0.788787 220.613 -3.15153C223.876 -7.48066 224.855 -11.6399 225.84 -15.8352C225.867 -15.9485 225.981 -16.0205 226.096 -15.9948C226.211 -15.969 226.278 -15.8558 226.252 -15.7426Z" fill="#8C3038"/>
</g>
</g>
</g>
</g>
</svg>
