<svg width="288" height="264" viewBox="0 0 288 264" fill="none" xmlns="http://www.w3.org/2000/svg">
<mask id="mask0_3_18439" style="mask-type:luminance" maskUnits="userSpaceOnUse" x="0" y="0" width="288" height="264">
<path d="M-1.49012e-08 0H287.458V264H-1.49012e-08V0Z" fill="white"/>
</mask>
<g mask="url(#mask0_3_18439)">
<mask id="mask1_3_18439" style="mask-type:luminance" maskUnits="userSpaceOnUse" x="-120" y="-169" width="1431" height="2024">
<path d="M1310.02 -169H-120V1854.2H1310.02V-169Z" fill="black" fill-opacity="0.13"/>
</mask>
<g mask="url(#mask1_3_18439)">
<mask id="mask2_3_18439" style="mask-type:luminance" maskUnits="userSpaceOnUse" x="-1" y="0" width="288" height="264">
<path d="M287 0H-1V264H287V0Z" fill="white"/>
</mask>
<g mask="url(#mask2_3_18439)">
<mask id="mask3_3_18439" style="mask-type:luminance" maskUnits="userSpaceOnUse" x="79" y="152" width="8" height="38">
<path d="M79 152H87V189.333H79V152Z" fill="white"/>
</mask>
<g mask="url(#mask3_3_18439)">
<mask id="mask4_3_18439" style="mask-type:luminance" maskUnits="userSpaceOnUse" x="-111" y="-133" width="399" height="398">
<path d="M287.719 -77.0104L232.052 264.073L-111 208.083L-55.3333 -133L287.719 -77.0104Z" fill="white"/>
</mask>
<g mask="url(#mask4_3_18439)">
<mask id="mask5_3_18439" style="mask-type:luminance" maskUnits="userSpaceOnUse" x="-111" y="-133" width="399" height="398">
<path d="M287.719 -77.0104L232.052 264.073L-111 208.083L-55.3333 -133L287.719 -77.0104Z" fill="white"/>
</mask>
<g mask="url(#mask5_3_18439)">
<path d="M81.371 186.242C80.7981 174.846 88.246 164.554 85.9439 153.106C85.9127 152.95 85.6731 152.971 85.6939 153.138C86.7772 164.658 78.4231 174.804 80.2668 186.367C80.3814 187.065 81.4127 186.96 81.371 186.242Z" fill="#8C3038"/>
</g>
</g>
</g>
<mask id="mask6_3_18439" style="mask-type:luminance" maskUnits="userSpaceOnUse" x="135" y="112" width="6" height="11">
<path d="M135 112H140.333V122.667H135V112Z" fill="white"/>
</mask>
<g mask="url(#mask6_3_18439)">
<mask id="mask7_3_18439" style="mask-type:luminance" maskUnits="userSpaceOnUse" x="-111" y="-133" width="399" height="398">
<path d="M287.719 -77.0104L232.052 264.073L-111 208.083L-55.3333 -133L287.719 -77.0104Z" fill="white"/>
</mask>
<g mask="url(#mask7_3_18439)">
<mask id="mask8_3_18439" style="mask-type:luminance" maskUnits="userSpaceOnUse" x="-111" y="-133" width="399" height="398">
<path d="M287.719 -77.0104L232.052 264.073L-111 208.083L-55.3333 -133L287.719 -77.0104Z" fill="white"/>
</mask>
<g mask="url(#mask8_3_18439)">
<path d="M138.621 120.471C137.808 118.002 137.006 115.534 136.194 113.065C136.152 112.94 135.964 113.013 136.006 113.138C136.735 115.638 137.475 118.138 138.204 120.638C138.287 120.919 138.714 120.752 138.621 120.471Z" fill="#8C3038"/>
</g>
</g>
</g>
<mask id="mask9_3_18439" style="mask-type:luminance" maskUnits="userSpaceOnUse" x="138" y="125" width="6" height="6">
<path d="M138 125H143.333V130.333H138V125Z" fill="white"/>
</mask>
<g mask="url(#mask9_3_18439)">
<mask id="mask10_3_18439" style="mask-type:luminance" maskUnits="userSpaceOnUse" x="-111" y="-133" width="399" height="398">
<path d="M287.719 -77.0104L232.052 264.073L-111 208.083L-55.3333 -133L287.719 -77.0104Z" fill="white"/>
</mask>
<g mask="url(#mask10_3_18439)">
<mask id="mask11_3_18439" style="mask-type:luminance" maskUnits="userSpaceOnUse" x="-111" y="-133" width="399" height="398">
<path d="M287.719 -77.0104L232.052 264.073L-111 208.083L-55.3333 -133L287.719 -77.0104Z" fill="white"/>
</mask>
<g mask="url(#mask11_3_18439)">
<path d="M140.402 127.95C140.038 126.971 139.6 126.023 139.194 125.065C139.142 124.94 138.965 125.013 139.006 125.138C139.319 126.127 139.61 127.138 139.975 128.117C140.079 128.388 140.506 128.221 140.402 127.95Z" fill="#8C3038"/>
</g>
</g>
</g>
<mask id="mask12_3_18439" style="mask-type:luminance" maskUnits="userSpaceOnUse" x="141" y="131" width="6" height="14">
<path d="M141 131H146.333V144.333H141V131Z" fill="white"/>
</mask>
<g mask="url(#mask12_3_18439)">
<mask id="mask13_3_18439" style="mask-type:luminance" maskUnits="userSpaceOnUse" x="-110" y="-132" width="399" height="398">
<path d="M288.719 -76.0104L233.052 265.073L-110 209.083L-54.3333 -132L288.719 -76.0104Z" fill="white"/>
</mask>
<g mask="url(#mask13_3_18439)">
<mask id="mask14_3_18439" style="mask-type:luminance" maskUnits="userSpaceOnUse" x="-110" y="-132" width="399" height="398">
<path d="M288.719 -76.0104L233.052 265.073L-110 209.083L-54.3333 -132L288.719 -76.0104Z" fill="white"/>
</mask>
<g mask="url(#mask14_3_18439)">
<path d="M143.943 141.722C143.526 138.837 142.995 135.983 142.359 133.149C142.307 132.931 141.953 132.962 142.005 133.181C142.599 136.035 143.078 138.889 143.453 141.774C143.484 142.097 143.995 142.045 143.943 141.722Z" fill="#8C3038"/>
</g>
</g>
</g>
<mask id="mask15_3_18439" style="mask-type:luminance" maskUnits="userSpaceOnUse" x="125" y="107" width="11" height="16">
<path d="M125 107H135.667V123H125V107Z" fill="white"/>
</mask>
<g mask="url(#mask15_3_18439)">
<mask id="mask16_3_18439" style="mask-type:luminance" maskUnits="userSpaceOnUse" x="-110" y="-132" width="399" height="398">
<path d="M288.719 -76.0104L233.052 265.073L-110 209.083L-54.3333 -132L288.719 -76.0104Z" fill="white"/>
</mask>
<g mask="url(#mask16_3_18439)">
<mask id="mask17_3_18439" style="mask-type:luminance" maskUnits="userSpaceOnUse" x="-110" y="-132" width="399" height="398">
<path d="M288.719 -76.0104L233.052 265.073L-110 209.083L-54.3333 -132L288.719 -76.0104Z" fill="white"/>
</mask>
<g mask="url(#mask17_3_18439)">
<path d="M133.618 121.761C133.42 119.47 132.315 117.22 131.409 115.126C130.482 113.001 129.565 110.855 128.128 109.032C128.076 108.959 127.982 109.022 128.003 109.105C128.597 111.313 129.607 113.376 130.368 115.522C131.118 117.657 131.534 120.011 132.597 122.011C132.857 122.522 133.67 122.407 133.618 121.761Z" fill="#8C3038"/>
</g>
</g>
</g>
<mask id="mask18_3_18439" style="mask-type:luminance" maskUnits="userSpaceOnUse" x="133" y="125" width="6" height="14">
<path d="M133 125H138.333V138.333H133V125Z" fill="white"/>
</mask>
<g mask="url(#mask18_3_18439)">
<mask id="mask19_3_18439" style="mask-type:luminance" maskUnits="userSpaceOnUse" x="-110" y="-133" width="399" height="398">
<path d="M288.719 -77.0104L233.052 264.073L-110 208.083L-54.3333 -133L288.719 -77.0104Z" fill="white"/>
</mask>
<g mask="url(#mask19_3_18439)">
<mask id="mask20_3_18439" style="mask-type:luminance" maskUnits="userSpaceOnUse" x="-110" y="-133" width="399" height="398">
<path d="M288.719 -77.0104L233.052 264.073L-110 208.083L-54.3333 -133L288.719 -77.0104Z" fill="white"/>
</mask>
<g mask="url(#mask20_3_18439)">
<path d="M137.789 137.607C137.966 133.805 135.737 129.503 134.237 126.076C134.175 125.93 133.956 126.013 134.008 126.169C134.612 128.284 135.143 130.419 135.55 132.576C135.883 134.294 135.966 136.117 136.675 137.732C136.883 138.201 137.758 138.232 137.789 137.607Z" fill="#8C3038"/>
</g>
</g>
</g>
<mask id="mask21_3_18439" style="mask-type:luminance" maskUnits="userSpaceOnUse" x="111" y="117" width="8" height="22">
<path d="M111 117H119V138.333H111V117Z" fill="white"/>
</mask>
<g mask="url(#mask21_3_18439)">
<mask id="mask22_3_18439" style="mask-type:luminance" maskUnits="userSpaceOnUse" x="-111" y="-133" width="399" height="398">
<path d="M287.719 -77.0104L232.052 264.073L-111 208.083L-55.3333 -133L287.719 -77.0104Z" fill="white"/>
</mask>
<g mask="url(#mask22_3_18439)">
<mask id="mask23_3_18439" style="mask-type:luminance" maskUnits="userSpaceOnUse" x="-111" y="-133" width="399" height="398">
<path d="M287.719 -77.0104L232.052 264.073L-111 208.083L-55.3333 -133L287.719 -77.0104Z" fill="white"/>
</mask>
<g mask="url(#mask23_3_18439)">
<path d="M118.158 135.719C116.554 129.573 115.168 122.739 112.241 117.073C112.189 116.958 111.981 116.979 112.001 117.135C112.918 123.541 115.397 129.875 117.064 136.135C117.272 136.854 118.345 136.427 118.158 135.719Z" fill="#8C3038"/>
</g>
</g>
</g>
<mask id="mask24_3_18439" style="mask-type:luminance" maskUnits="userSpaceOnUse" x="101" y="115" width="8" height="14">
<path d="M101 115H109V128.333H101V115Z" fill="white"/>
</mask>
<g mask="url(#mask24_3_18439)">
<mask id="mask25_3_18439" style="mask-type:luminance" maskUnits="userSpaceOnUse" x="-110" y="-132" width="399" height="398">
<path d="M288.719 -76.0104L233.052 265.073L-110 209.083L-54.3333 -132L288.719 -76.0104Z" fill="white"/>
</mask>
<g mask="url(#mask25_3_18439)">
<mask id="mask26_3_18439" style="mask-type:luminance" maskUnits="userSpaceOnUse" x="-110" y="-132" width="399" height="398">
<path d="M288.719 -76.0104L233.052 265.073L-110 209.083L-54.3333 -132L288.719 -76.0104Z" fill="white"/>
</mask>
<g mask="url(#mask26_3_18439)">
<path d="M108.84 127.816C108.413 125.889 107.194 124.046 106.319 122.275C105.413 120.452 104.381 118.744 103.225 117.056C103.142 116.931 102.965 117.035 103.006 117.171C103.652 119.202 104.402 121.129 105.308 123.056C106.1 124.744 106.735 126.723 107.923 128.16C108.215 128.514 108.954 128.348 108.84 127.816Z" fill="#8C3038"/>
</g>
</g>
</g>
<mask id="mask27_3_18439" style="mask-type:luminance" maskUnits="userSpaceOnUse" x="109" y="131" width="6" height="6">
<path d="M109 131H114.333V136.333H109V131Z" fill="white"/>
</mask>
<g mask="url(#mask27_3_18439)">
<mask id="mask28_3_18439" style="mask-type:luminance" maskUnits="userSpaceOnUse" x="-110" y="-132" width="399" height="398">
<path d="M288.719 -76.0104L233.052 265.073L-110 209.083L-54.3333 -132L288.719 -76.0104Z" fill="white"/>
</mask>
<g mask="url(#mask28_3_18439)">
<mask id="mask29_3_18439" style="mask-type:luminance" maskUnits="userSpaceOnUse" x="-110" y="-132" width="399" height="398">
<path d="M288.719 -76.0104L233.052 265.073L-110 209.083L-54.3333 -132L288.719 -76.0104Z" fill="white"/>
</mask>
<g mask="url(#mask29_3_18439)">
<path d="M111.83 135.989C111.413 134.926 110.778 134.01 110.184 133.041C110.122 132.947 109.965 133.03 110.007 133.135C110.424 134.207 110.788 135.26 111.392 136.228C111.538 136.478 111.934 136.249 111.83 135.989Z" fill="#8C3038"/>
</g>
</g>
</g>
<mask id="mask30_3_18439" style="mask-type:luminance" maskUnits="userSpaceOnUse" x="111" y="139" width="6" height="14">
<path d="M111 139H116.333V152.333H111V139Z" fill="white"/>
</mask>
<g mask="url(#mask30_3_18439)">
<mask id="mask31_3_18439" style="mask-type:luminance" maskUnits="userSpaceOnUse" x="-111" y="-132" width="399" height="398">
<path d="M287.719 -76.0104L232.052 265.073L-111 209.083L-55.3333 -132L287.719 -76.0104Z" fill="white"/>
</mask>
<g mask="url(#mask31_3_18439)">
<mask id="mask32_3_18439" style="mask-type:luminance" maskUnits="userSpaceOnUse" x="-111" y="-132" width="399" height="398">
<path d="M287.719 -76.0104L232.052 265.073L-111 209.083L-55.3333 -132L287.719 -76.0104Z" fill="white"/>
</mask>
<g mask="url(#mask32_3_18439)">
<path d="M115.951 150.875C114.836 147.948 113.721 145.031 112.492 142.156C112.357 141.854 111.919 142.031 112.013 142.343C112.951 145.333 113.992 148.271 115.055 151.218C115.263 151.802 116.169 151.458 115.951 150.875Z" fill="#8C3038"/>
</g>
</g>
</g>
<mask id="mask33_3_18439" style="mask-type:luminance" maskUnits="userSpaceOnUse" x="87" y="99" width="14" height="30">
<path d="M87 99H100.333V128.333H87V99Z" fill="white"/>
</mask>
<g mask="url(#mask33_3_18439)">
<mask id="mask34_3_18439" style="mask-type:luminance" maskUnits="userSpaceOnUse" x="-111" y="-132" width="399" height="398">
<path d="M287.719 -76.0104L232.052 265.073L-111 209.083L-55.3333 -132L287.719 -76.0104Z" fill="white"/>
</mask>
<g mask="url(#mask34_3_18439)">
<mask id="mask35_3_18439" style="mask-type:luminance" maskUnits="userSpaceOnUse" x="-111" y="-132" width="399" height="398">
<path d="M287.719 -76.0104L232.052 265.073L-111 209.083L-55.3333 -132L287.719 -76.0104Z" fill="white"/>
</mask>
<g mask="url(#mask35_3_18439)">
<path d="M97.8546 126.157C93.4483 118.386 90.7817 110.886 89.1983 102.084C89.1775 101.959 88.99 101.98 89.0004 102.105C89.615 110.678 92.5733 119.386 97.24 126.605C97.5108 127.021 98.0838 126.574 97.8546 126.157Z" fill="#8C3038"/>
</g>
</g>
</g>
<mask id="mask36_3_18439" style="mask-type:luminance" maskUnits="userSpaceOnUse" x="101" y="133" width="8" height="14">
<path d="M101 133H109V146.333H101V133Z" fill="white"/>
</mask>
<g mask="url(#mask36_3_18439)">
<mask id="mask37_3_18439" style="mask-type:luminance" maskUnits="userSpaceOnUse" x="-110" y="-133" width="399" height="398">
<path d="M288.719 -77.0104L233.052 264.073L-110 208.083L-54.3333 -133L288.719 -77.0104Z" fill="white"/>
</mask>
<g mask="url(#mask37_3_18439)">
<mask id="mask38_3_18439" style="mask-type:luminance" maskUnits="userSpaceOnUse" x="-110" y="-133" width="399" height="398">
<path d="M288.719 -77.0104L233.052 264.073L-110 208.083L-54.3333 -133L288.719 -77.0104Z" fill="white"/>
</mask>
<g mask="url(#mask38_3_18439)">
<path d="M107.897 143.054C106.679 139.46 104.2 136.262 102.231 133.054C102.147 132.929 101.95 133.044 102.012 133.169C103.46 136.658 104.595 140.533 106.793 143.637C107.22 144.241 108.116 143.721 107.897 143.054Z" fill="#8C3038"/>
</g>
</g>
</g>
<mask id="mask39_3_18439" style="mask-type:luminance" maskUnits="userSpaceOnUse" x="109" y="152" width="6" height="8">
<path d="M109 152H114.333V160H109V152Z" fill="white"/>
</mask>
<g mask="url(#mask39_3_18439)">
<mask id="mask40_3_18439" style="mask-type:luminance" maskUnits="userSpaceOnUse" x="-110" y="-133" width="399" height="398">
<path d="M288.719 -77.0104L233.052 264.073L-110 208.083L-54.3333 -133L288.719 -77.0104Z" fill="white"/>
</mask>
<g mask="url(#mask40_3_18439)">
<mask id="mask41_3_18439" style="mask-type:luminance" maskUnits="userSpaceOnUse" x="-110" y="-133" width="399" height="398">
<path d="M288.719 -77.0104L233.052 264.073L-110 208.083L-54.3333 -133L288.719 -77.0104Z" fill="white"/>
</mask>
<g mask="url(#mask41_3_18439)">
<path d="M112.621 157.212C112.465 155.722 111.902 154.347 111.184 153.045C111.132 152.941 110.965 153.035 111.007 153.139C111.569 154.472 111.871 155.858 112.163 157.264C112.225 157.545 112.642 157.514 112.621 157.212Z" fill="#8C3038"/>
</g>
</g>
</g>
<mask id="mask42_3_18439" style="mask-type:luminance" maskUnits="userSpaceOnUse" x="90" y="125" width="11" height="22">
<path d="M90 125H100.667V146.333H90V125Z" fill="white"/>
</mask>
<g mask="url(#mask42_3_18439)">
<mask id="mask43_3_18439" style="mask-type:luminance" maskUnits="userSpaceOnUse" x="-111" y="-133" width="399" height="398">
<path d="M287.719 -77.0104L232.052 264.073L-111 208.083L-55.3333 -133L287.719 -77.0104Z" fill="white"/>
</mask>
<g mask="url(#mask43_3_18439)">
<mask id="mask44_3_18439" style="mask-type:luminance" maskUnits="userSpaceOnUse" x="-111" y="-133" width="399" height="398">
<path d="M287.719 -77.0104L232.052 264.073L-111 208.083L-55.3333 -133L287.719 -77.0104Z" fill="white"/>
</mask>
<g mask="url(#mask44_3_18439)">
<path d="M99.6088 143.352C98.5255 136.956 95.2755 131.039 91.2234 126.049C91.1192 125.924 90.9317 126.06 91.0255 126.195C94.4213 131.706 96.5151 137.508 98.4942 143.622C98.6921 144.237 99.7234 143.997 99.6088 143.352Z" fill="#8C3038"/>
</g>
</g>
</g>
<mask id="mask45_3_18439" style="mask-type:luminance" maskUnits="userSpaceOnUse" x="103" y="152" width="3" height="3">
<path d="M103 152H105.667V154.667H103V152Z" fill="white"/>
</mask>
<g mask="url(#mask45_3_18439)">
<mask id="mask46_3_18439" style="mask-type:luminance" maskUnits="userSpaceOnUse" x="-111" y="-133" width="399" height="398">
<path d="M287.719 -77.0104L232.052 264.073L-111 208.083L-55.3333 -133L287.719 -77.0104Z" fill="white"/>
</mask>
<g mask="url(#mask46_3_18439)">
<mask id="mask47_3_18439" style="mask-type:luminance" maskUnits="userSpaceOnUse" x="-111" y="-133" width="399" height="398">
<path d="M287.719 -77.0104L232.052 264.073L-111 208.083L-55.3333 -133L287.719 -77.0104Z" fill="white"/>
</mask>
<g mask="url(#mask47_3_18439)">
<path d="M103.095 153.057C103.105 152.994 103.011 152.973 103.001 153.046C102.99 153.109 103.084 153.119 103.095 153.057Z" fill="#8C3038"/>
</g>
</g>
</g>
<mask id="mask48_3_18439" style="mask-type:luminance" maskUnits="userSpaceOnUse" x="87" y="125" width="6" height="16">
<path d="M87 125H92.3333V141H87V125Z" fill="white"/>
</mask>
<g mask="url(#mask48_3_18439)">
<mask id="mask49_3_18439" style="mask-type:luminance" maskUnits="userSpaceOnUse" x="-111" y="-133" width="399" height="398">
<path d="M287.719 -77.0104L232.052 264.073L-111 208.083L-55.3333 -133L287.719 -77.0104Z" fill="white"/>
</mask>
<g mask="url(#mask49_3_18439)">
<mask id="mask50_3_18439" style="mask-type:luminance" maskUnits="userSpaceOnUse" x="-111" y="-133" width="399" height="398">
<path d="M287.719 -77.0104L232.052 264.073L-111 208.083L-55.3333 -133L287.719 -77.0104Z" fill="white"/>
</mask>
<g mask="url(#mask50_3_18439)">
<path d="M92.0611 139.967C93.1236 135.664 92.082 130.987 90.1965 127.06C90.1445 126.946 89.957 127.008 90.009 127.133C91.6757 131.404 91.6757 135.342 91.2174 139.831C91.1653 140.383 91.9257 140.498 92.0611 139.967Z" fill="#8C3038"/>
</g>
</g>
</g>
<mask id="mask51_3_18439" style="mask-type:luminance" maskUnits="userSpaceOnUse" x="90" y="144" width="3" height="6">
<path d="M90 144H92.6667V149.333H90V144Z" fill="white"/>
</mask>
<g mask="url(#mask51_3_18439)">
<mask id="mask52_3_18439" style="mask-type:luminance" maskUnits="userSpaceOnUse" x="-111" y="-133" width="399" height="398">
<path d="M287.719 -77.0104L232.052 264.073L-111 208.083L-55.3333 -133L287.719 -77.0104Z" fill="white"/>
</mask>
<g mask="url(#mask52_3_18439)">
<mask id="mask53_3_18439" style="mask-type:luminance" maskUnits="userSpaceOnUse" x="-111" y="-133" width="399" height="398">
<path d="M287.719 -77.0104L232.052 264.073L-111 208.083L-55.3333 -133L287.719 -77.0104Z" fill="white"/>
</mask>
<g mask="url(#mask53_3_18439)">
<path d="M91.7732 147.54L91.3044 145.134C91.2628 144.936 90.9711 144.967 91.0023 145.165C91.1065 145.967 91.2107 146.78 91.3148 147.592C91.3565 147.884 91.8253 147.821 91.7732 147.54Z" fill="#8C3038"/>
</g>
</g>
</g>
<mask id="mask54_3_18439" style="mask-type:luminance" maskUnits="userSpaceOnUse" x="66" y="61" width="14" height="24">
<path d="M66 61H79.3333V85H66V61Z" fill="white"/>
</mask>
<g mask="url(#mask54_3_18439)">
<mask id="mask55_3_18439" style="mask-type:luminance" maskUnits="userSpaceOnUse" x="-111" y="-133" width="399" height="398">
<path d="M287.719 -77.0104L232.052 264.073L-111 208.083L-55.3333 -133L287.719 -77.0104Z" fill="white"/>
</mask>
<g mask="url(#mask55_3_18439)">
<mask id="mask56_3_18439" style="mask-type:luminance" maskUnits="userSpaceOnUse" x="-111" y="-133" width="399" height="398">
<path d="M287.719 -77.0104L232.052 264.073L-111 208.083L-55.3333 -133L287.719 -77.0104Z" fill="white"/>
</mask>
<g mask="url(#mask56_3_18439)">
<path d="M67.819 83.4308C72.1003 77.1704 75.4649 70.3892 77.5482 63.0871C77.5794 63.0037 77.444 62.9621 77.4128 63.0454C74.5169 69.9621 71.2149 76.5558 67.0899 82.8267C66.7461 83.3267 67.4753 83.9412 67.819 83.4308Z" fill="#8C3038"/>
</g>
</g>
</g>
<mask id="mask57_3_18439" style="mask-type:luminance" maskUnits="userSpaceOnUse" x="42" y="91" width="11" height="11">
<path d="M42 91H52.6667V101.667H42V91Z" fill="white"/>
</mask>
<g mask="url(#mask57_3_18439)">
<mask id="mask58_3_18439" style="mask-type:luminance" maskUnits="userSpaceOnUse" x="-111" y="-132" width="399" height="398">
<path d="M287.719 -76.0104L232.052 265.073L-111 209.083L-55.3333 -132L287.719 -76.0104Z" fill="white"/>
</mask>
<g mask="url(#mask58_3_18439)">
<mask id="mask59_3_18439" style="mask-type:luminance" maskUnits="userSpaceOnUse" x="-111" y="-132" width="399" height="398">
<path d="M287.719 -76.0104L232.052 265.073L-111 209.083L-55.3333 -132L287.719 -76.0104Z" fill="white"/>
</mask>
<g mask="url(#mask59_3_18439)">
<path d="M42.5154 99.9245C43.4633 99.7474 44.13 99.185 44.9425 98.6641C45.9008 98.0287 46.88 97.4245 47.8383 96.7787C49.2654 95.7995 50.1716 94.9558 50.4529 93.2058C50.4841 93.0079 50.1925 92.9141 50.1195 93.1016C49.5258 94.6225 47.6925 95.6016 46.3487 96.3933C45.005 97.1745 43.0466 97.8933 42.0987 99.1433C41.8591 99.4558 42.0779 100.008 42.5154 99.9245Z" fill="#8C3038"/>
</g>
</g>
</g>
<mask id="mask60_3_18439" style="mask-type:luminance" maskUnits="userSpaceOnUse" x="37" y="99" width="6" height="8">
<path d="M37 99H42.3333V107H37V99Z" fill="white"/>
</mask>
<g mask="url(#mask60_3_18439)">
<mask id="mask61_3_18439" style="mask-type:luminance" maskUnits="userSpaceOnUse" x="-110" y="-132" width="399" height="398">
<path d="M288.719 -76.0104L233.052 265.073L-110 209.083L-54.3333 -132L288.719 -76.0104Z" fill="white"/>
</mask>
<g mask="url(#mask61_3_18439)">
<mask id="mask62_3_18439" style="mask-type:luminance" maskUnits="userSpaceOnUse" x="-110" y="-132" width="399" height="398">
<path d="M288.719 -76.0104L233.052 265.073L-110 209.083L-54.3333 -132L288.719 -76.0104Z" fill="white"/>
</mask>
<g mask="url(#mask62_3_18439)">
<path d="M39.8958 105.885C40.3958 105.197 40.5729 104.332 40.8958 103.551C41.2396 102.718 41.7291 101.968 42.0729 101.145C42.1041 101.072 42.0312 100.968 41.9479 101.01C40.4896 101.78 38.8541 103.885 39.0104 105.614C39.0416 106.03 39.6354 106.239 39.8958 105.885Z" fill="#8C3038"/>
</g>
</g>
</g>
<mask id="mask63_3_18439" style="mask-type:luminance" maskUnits="userSpaceOnUse" x="130" y="29" width="80" height="48">
<path d="M130 29H210V77H130V29Z" fill="white"/>
</mask>
<g mask="url(#mask63_3_18439)">
<mask id="mask64_3_18439" style="mask-type:luminance" maskUnits="userSpaceOnUse" x="-111" y="-133" width="399" height="398">
<path d="M287.719 -77.0104L232.052 264.073L-111 208.083L-55.3333 -133L287.719 -77.0104Z" fill="white"/>
</mask>
<g mask="url(#mask64_3_18439)">
<mask id="mask65_3_18439" style="mask-type:luminance" maskUnits="userSpaceOnUse" x="-111" y="-133" width="399" height="398">
<path d="M287.719 -77.0104L232.052 264.073L-111 208.083L-55.3333 -133L287.719 -77.0104Z" fill="white"/>
</mask>
<g mask="url(#mask65_3_18439)">
<path d="M209.324 76.389C204.866 70.3681 198.856 65.264 193.074 60.5765C187.345 55.9411 181.47 52.0036 174.439 49.6286C159.731 44.6494 141.616 41.6077 131.147 29.2327C130.783 28.7952 129.887 28.9931 130.012 29.6702C131.033 35.1181 137.804 37.8681 142.251 40.0348C149.251 43.4411 156.533 46.2431 164.001 48.4411C173.21 51.1598 181.324 53.6598 189.158 59.4098C196.272 64.6494 202.335 70.9827 209.106 76.5973C209.231 76.7015 209.429 76.5244 209.324 76.389Z" fill="#8C3038"/>
</g>
</g>
</g>
<mask id="mask66_3_18439" style="mask-type:luminance" maskUnits="userSpaceOnUse" x="143" y="29" width="78" height="48">
<path d="M143 29H220.333V77H143V29Z" fill="white"/>
</mask>
<g mask="url(#mask66_3_18439)">
<mask id="mask67_3_18439" style="mask-type:luminance" maskUnits="userSpaceOnUse" x="-111" y="-133" width="399" height="398">
<path d="M287.719 -77.0104L232.052 264.073L-111 208.083L-55.3333 -133L287.719 -77.0104Z" fill="white"/>
</mask>
<g mask="url(#mask67_3_18439)">
<mask id="mask68_3_18439" style="mask-type:luminance" maskUnits="userSpaceOnUse" x="-111" y="-133" width="399" height="398">
<path d="M287.719 -77.0104L232.052 264.073L-111 208.083L-55.3333 -133L287.719 -77.0104Z" fill="white"/>
</mask>
<g mask="url(#mask68_3_18439)">
<path d="M220.128 76.2213C215.305 63.2525 203.597 52.4504 191.524 46.2421C176.712 38.6171 159.566 39.3983 145.92 29.1379C145.316 28.6692 144.68 29.5025 145.18 30.0338C155.295 40.6171 173.035 39.6692 185.868 44.7838C201.389 50.9817 211.493 62.3984 219.993 76.2838C220.045 76.3671 220.16 76.2942 220.128 76.2213Z" fill="#8C3038"/>
</g>
</g>
</g>
<mask id="mask69_3_18439" style="mask-type:luminance" maskUnits="userSpaceOnUse" x="210" y="51" width="22" height="27">
<path d="M210 51H231.333V77.6667H210V51Z" fill="white"/>
</mask>
<g mask="url(#mask69_3_18439)">
<mask id="mask70_3_18439" style="mask-type:luminance" maskUnits="userSpaceOnUse" x="-111" y="-132" width="399" height="398">
<path d="M287.719 -76.0104L232.052 265.073L-111 209.083L-55.3333 -132L287.719 -76.0104Z" fill="white"/>
</mask>
<g mask="url(#mask70_3_18439)">
<mask id="mask71_3_18439" style="mask-type:luminance" maskUnits="userSpaceOnUse" x="-111" y="-132" width="399" height="398">
<path d="M287.719 -76.0104L232.052 265.073L-111 209.083L-55.3333 -132L287.719 -76.0104Z" fill="white"/>
</mask>
<g mask="url(#mask71_3_18439)">
<path d="M229.758 74.8675C227.654 70.6175 225.831 65.8988 222.758 62.2321C219.393 58.2112 215.216 54.7112 211.445 51.0758C211.185 50.8258 210.831 51.2529 211.091 51.5029C214.862 55.0758 219.102 58.4821 222.477 62.43C225.581 66.055 227.456 70.7008 229.622 74.9196C229.664 75.0029 229.799 74.9508 229.758 74.8675Z" fill="#8C3038"/>
</g>
</g>
</g>
<mask id="mask72_3_18439" style="mask-type:luminance" maskUnits="userSpaceOnUse" x="183" y="19" width="72" height="38">
<path d="M183 19H255V56.3333H183V19Z" fill="white"/>
</mask>
<g mask="url(#mask72_3_18439)">
<mask id="mask73_3_18439" style="mask-type:luminance" maskUnits="userSpaceOnUse" x="-111" y="-132" width="399" height="398">
<path d="M287.719 -76.0104L232.052 265.073L-111 209.083L-55.3333 -132L287.719 -76.0104Z" fill="white"/>
</mask>
<g mask="url(#mask73_3_18439)">
<mask id="mask74_3_18439" style="mask-type:luminance" maskUnits="userSpaceOnUse" x="-111" y="-132" width="399" height="398">
<path d="M287.719 -76.0104L232.052 265.073L-111 209.083L-55.3333 -132L287.719 -76.0104Z" fill="white"/>
</mask>
<g mask="url(#mask74_3_18439)">
<path d="M253.713 54.6176C247.151 44.0238 234.828 36.8051 223.911 31.3884C211.807 25.378 198.786 21.6176 185.369 20.003C184.953 19.9509 184.849 20.5967 185.265 20.6488C197.994 22.1488 210.39 25.5863 221.994 31.0759C233.328 36.4509 246.609 43.9509 253.588 54.7113C253.64 54.7946 253.765 54.7009 253.713 54.6176Z" fill="#8C3038"/>
</g>
</g>
</g>
<mask id="mask75_3_18439" style="mask-type:luminance" maskUnits="userSpaceOnUse" x="237" y="24" width="19" height="16">
<path d="M237 24H255.667V40H237V24Z" fill="white"/>
</mask>
<g mask="url(#mask75_3_18439)">
<mask id="mask76_3_18439" style="mask-type:luminance" maskUnits="userSpaceOnUse" x="-110" y="-133" width="399" height="398">
<path d="M288.719 -77.0104L233.052 264.073L-110 208.083L-54.3333 -133L288.719 -77.0104Z" fill="white"/>
</mask>
<g mask="url(#mask76_3_18439)">
<mask id="mask77_3_18439" style="mask-type:luminance" maskUnits="userSpaceOnUse" x="-110" y="-133" width="399" height="398">
<path d="M288.719 -77.0104L233.052 264.073L-110 208.083L-54.3333 -133L288.719 -77.0104Z" fill="white"/>
</mask>
<g mask="url(#mask77_3_18439)">
<path d="M255.446 38.1194C251.592 32.0673 244.404 29.5465 238.467 26.0361C238.154 25.859 237.811 26.3798 238.123 26.5882C243.925 30.5986 251.154 32.0673 255.321 38.2132C255.384 38.2861 255.498 38.2028 255.446 38.1194Z" fill="#8C3038"/>
</g>
</g>
</g>
<mask id="mask78_3_18439" style="mask-type:luminance" maskUnits="userSpaceOnUse" x="218" y="19" width="16" height="8">
<path d="M218 19H234V27H218V19Z" fill="white"/>
</mask>
<g mask="url(#mask78_3_18439)">
<mask id="mask79_3_18439" style="mask-type:luminance" maskUnits="userSpaceOnUse" x="-111" y="-132" width="399" height="398">
<path d="M287.719 -76.0104L232.052 265.073L-111 209.083L-55.3333 -132L287.719 -76.0104Z" fill="white"/>
</mask>
<g mask="url(#mask79_3_18439)">
<mask id="mask80_3_18439" style="mask-type:luminance" maskUnits="userSpaceOnUse" x="-111" y="-132" width="399" height="398">
<path d="M287.719 -76.0104L232.052 265.073L-111 209.083L-55.3333 -132L287.719 -76.0104Z" fill="white"/>
</mask>
<g mask="url(#mask80_3_18439)">
<path d="M231.88 24.7582C227.547 22.4353 223.057 20.529 218.38 19.0186C218.005 18.8936 217.828 19.4353 218.224 19.5498C222.922 20.904 227.453 22.6748 231.839 24.8519C231.891 24.8832 231.932 24.7894 231.88 24.7582Z" fill="#8C3038"/>
</g>
</g>
</g>
<mask id="mask81_3_18439" style="mask-type:luminance" maskUnits="userSpaceOnUse" x="218" y="8" width="14" height="8">
<path d="M218 8H231.333V16H218V8Z" fill="white"/>
</mask>
<g mask="url(#mask81_3_18439)">
<mask id="mask82_3_18439" style="mask-type:luminance" maskUnits="userSpaceOnUse" x="-111" y="-133" width="399" height="398">
<path d="M287.719 -77.0104L232.052 264.073L-111 208.083L-55.3333 -133L287.719 -77.0104Z" fill="white"/>
</mask>
<g mask="url(#mask82_3_18439)">
<mask id="mask83_3_18439" style="mask-type:luminance" maskUnits="userSpaceOnUse" x="-111" y="-133" width="399" height="398">
<path d="M287.719 -77.0104L232.052 264.073L-111 208.083L-55.3333 -133L287.719 -77.0104Z" fill="white"/>
</mask>
<g mask="url(#mask83_3_18439)">
<path d="M229.006 12.508C226.006 10.706 222.985 9.59138 219.537 9.00805C218.933 8.90388 218.776 9.84138 219.391 9.94555C222.641 10.508 225.849 11.4976 228.839 12.8726C229.079 12.9872 229.224 12.6435 229.006 12.508Z" fill="#8C3038"/>
</g>
</g>
</g>
<mask id="mask84_3_18439" style="mask-type:luminance" maskUnits="userSpaceOnUse" x="231" y="5" width="11" height="6">
<path d="M231 5H241.667V10.3333H231V5Z" fill="white"/>
</mask>
<g mask="url(#mask84_3_18439)">
<mask id="mask85_3_18439" style="mask-type:luminance" maskUnits="userSpaceOnUse" x="-111" y="-133" width="399" height="398">
<path d="M287.719 -77.0104L232.052 264.073L-111 208.083L-55.3333 -133L287.719 -77.0104Z" fill="white"/>
</mask>
<g mask="url(#mask85_3_18439)">
<mask id="mask86_3_18439" style="mask-type:luminance" maskUnits="userSpaceOnUse" x="-111" y="-133" width="399" height="398">
<path d="M287.719 -77.0104L232.052 264.073L-111 208.083L-55.3333 -133L287.719 -77.0104Z" fill="white"/>
</mask>
<g mask="url(#mask86_3_18439)">
<path d="M239.301 7.90104C236.936 7.26562 234.572 6.64062 232.197 6.0052C231.978 5.95312 231.915 6.30729 232.145 6.35937C234.52 6.94271 236.895 7.52604 239.27 8.09895C239.395 8.1302 239.426 7.94271 239.301 7.90104Z" fill="#8C3038"/>
</g>
</g>
</g>
<mask id="mask87_3_18439" style="mask-type:luminance" maskUnits="userSpaceOnUse" x="167" y="56" width="14" height="11">
<path d="M167 56H180.333V66.6667H167V56Z" fill="white"/>
</mask>
<g mask="url(#mask87_3_18439)">
<mask id="mask88_3_18439" style="mask-type:luminance" maskUnits="userSpaceOnUse" x="-111" y="-133" width="399" height="398">
<path d="M287.719 -77.0104L232.052 264.073L-111 208.083L-55.3333 -133L287.719 -77.0104Z" fill="white"/>
</mask>
<g mask="url(#mask88_3_18439)">
<mask id="mask89_3_18439" style="mask-type:luminance" maskUnits="userSpaceOnUse" x="-111" y="-133" width="399" height="398">
<path d="M287.719 -77.0104L232.052 264.073L-111 208.083L-55.3333 -133L287.719 -77.0104Z" fill="white"/>
</mask>
<g mask="url(#mask89_3_18439)">
<path d="M179.186 64.3066C178.144 62.5878 176.04 61.2962 174.467 60.0774C172.978 58.9108 171.384 57.567 169.561 57.0149C169.165 56.9003 168.832 57.4733 169.092 57.7649C170.415 59.2441 172.353 60.1816 173.999 61.2649C175.603 62.317 177.207 63.8691 179.03 64.4941C179.155 64.5358 179.259 64.4212 179.186 64.3066Z" fill="#8C3038"/>
</g>
</g>
</g>
<mask id="mask90_3_18439" style="mask-type:luminance" maskUnits="userSpaceOnUse" x="149" y="88" width="54" height="67">
<path d="M149 88H202.333V154.667H149V88Z" fill="white"/>
</mask>
<g mask="url(#mask90_3_18439)">
<mask id="mask91_3_18439" style="mask-type:luminance" maskUnits="userSpaceOnUse" x="-110" y="-133" width="399" height="398">
<path d="M288.719 -77.0104L233.052 264.073L-110 208.083L-54.3333 -133L288.719 -77.0104Z" fill="white"/>
</mask>
<g mask="url(#mask91_3_18439)">
<mask id="mask92_3_18439" style="mask-type:luminance" maskUnits="userSpaceOnUse" x="-110" y="-133" width="399" height="398">
<path d="M288.719 -77.0104L233.052 264.073L-110 208.083L-54.3333 -133L288.719 -77.0104Z" fill="white"/>
</mask>
<g mask="url(#mask92_3_18439)">
<path d="M201.705 153.119C197.434 147.827 195.851 141.327 193.393 135.129C191.039 129.202 187.341 124.869 182.841 120.421C177.518 115.192 172.216 109.702 166.497 104.879C161.049 100.296 155.601 96.4314 151.872 90.2022C151.591 89.7335 150.82 90.1606 151.039 90.6606C153.382 96.0981 158.153 99.7335 162.695 103.296C168.643 107.952 173.83 113.254 179.132 118.608C185.289 124.827 190.216 130.213 193.486 138.431C195.632 143.817 197.58 148.931 201.591 153.223C201.653 153.286 201.757 153.192 201.705 153.119Z" fill="#8C3038"/>
</g>
</g>
</g>
<mask id="mask93_3_18439" style="mask-type:luminance" maskUnits="userSpaceOnUse" x="173" y="125" width="24" height="35">
<path d="M173 125H197V159.667H173V125Z" fill="white"/>
</mask>
<g mask="url(#mask93_3_18439)">
<mask id="mask94_3_18439" style="mask-type:luminance" maskUnits="userSpaceOnUse" x="-110" y="-133" width="399" height="398">
<path d="M288.719 -77.0104L233.052 264.073L-110 208.083L-54.3333 -133L288.719 -77.0104Z" fill="white"/>
</mask>
<g mask="url(#mask94_3_18439)">
<mask id="mask95_3_18439" style="mask-type:luminance" maskUnits="userSpaceOnUse" x="-110" y="-133" width="399" height="398">
<path d="M288.719 -77.0104L233.052 264.073L-110 208.083L-54.3333 -133L288.719 -77.0104Z" fill="white"/>
</mask>
<g mask="url(#mask95_3_18439)">
<path d="M195.636 157.081C192.303 145.362 182.303 135.539 174.928 126.195C174.532 125.685 173.709 126.279 174.105 126.789C181.72 136.424 190.647 145.706 195.449 157.154C195.49 157.279 195.667 157.206 195.636 157.081Z" fill="#8C3038"/>
</g>
</g>
</g>
<mask id="mask96_3_18439" style="mask-type:luminance" maskUnits="userSpaceOnUse" x="149" y="99" width="24" height="27">
<path d="M149 99H173V125.667H149V99Z" fill="white"/>
</mask>
<g mask="url(#mask96_3_18439)">
<mask id="mask97_3_18439" style="mask-type:luminance" maskUnits="userSpaceOnUse" x="-110" y="-132" width="399" height="398">
<path d="M288.719 -76.0104L233.052 265.073L-110 209.083L-54.3333 -132L288.719 -76.0104Z" fill="white"/>
</mask>
<g mask="url(#mask97_3_18439)">
<mask id="mask98_3_18439" style="mask-type:luminance" maskUnits="userSpaceOnUse" x="-110" y="-132" width="399" height="398">
<path d="M288.719 -76.0104L233.052 265.073L-110 209.083L-54.3333 -132L288.719 -76.0104Z" fill="white"/>
</mask>
<g mask="url(#mask98_3_18439)">
<path d="M171.054 123.902C165.2 115.912 158.159 108.746 150.794 102.131C150.304 101.694 149.711 102.454 150.159 102.912C157.054 109.964 163.784 117.214 170.877 124.069C170.971 124.173 171.138 124.016 171.054 123.902Z" fill="#8C3038"/>
</g>
</g>
</g>
<mask id="mask99_3_18439" style="mask-type:luminance" maskUnits="userSpaceOnUse" x="159" y="120" width="22" height="38">
<path d="M159 120H180.333V157.333H159V120Z" fill="white"/>
</mask>
<g mask="url(#mask99_3_18439)">
<mask id="mask100_3_18439" style="mask-type:luminance" maskUnits="userSpaceOnUse" x="-111" y="-133" width="399" height="398">
<path d="M287.719 -77.0104L232.052 264.073L-111 208.083L-55.3333 -133L287.719 -77.0104Z" fill="white"/>
</mask>
<g mask="url(#mask100_3_18439)">
<mask id="mask101_3_18439" style="mask-type:luminance" maskUnits="userSpaceOnUse" x="-111" y="-133" width="399" height="398">
<path d="M287.719 -77.0104L232.052 264.073L-111 208.083L-55.3333 -133L287.719 -77.0104Z" fill="white"/>
</mask>
<g mask="url(#mask101_3_18439)">
<path d="M179.582 154.729C176.447 149.521 172.759 144.677 169.676 139.427C166.29 133.646 164.051 127.729 161.665 121.521C161.332 120.646 159.811 120.938 160.02 121.917C162.54 133.917 170.936 146.125 178.634 155.406C179.113 155.99 179.967 155.375 179.582 154.729Z" fill="#8C3038"/>
</g>
</g>
</g>
<mask id="mask102_3_18439" style="mask-type:luminance" maskUnits="userSpaceOnUse" x="47" y="101" width="16" height="14">
<path d="M47 101H63V114.333H47V101Z" fill="white"/>
</mask>
<g mask="url(#mask102_3_18439)">
<mask id="mask103_3_18439" style="mask-type:luminance" maskUnits="userSpaceOnUse" x="-111" y="-133" width="399" height="398">
<path d="M287.719 -77.0104L232.052 264.073L-111 208.083L-55.3333 -133L287.719 -77.0104Z" fill="white"/>
</mask>
<g mask="url(#mask103_3_18439)">
<mask id="mask104_3_18439" style="mask-type:luminance" maskUnits="userSpaceOnUse" x="-111" y="-133" width="399" height="398">
<path d="M287.719 -77.0104L232.052 264.073L-111 208.083L-55.3333 -133L287.719 -77.0104Z" fill="white"/>
</mask>
<g mask="url(#mask104_3_18439)">
<path d="M50.1362 111.481C52.157 109.846 53.8758 107.773 55.782 105.981C57.4904 104.377 59.5529 102.981 61.0737 101.21C61.1466 101.137 61.0737 100.981 60.9695 101.002C58.6674 101.533 56.6154 103.2 54.8445 104.689C52.8445 106.377 50.6987 108.325 49.1466 110.429C48.6674 111.054 49.4591 112.023 50.1362 111.481Z" fill="#8C3038"/>
</g>
</g>
</g>
<mask id="mask105_3_18439" style="mask-type:luminance" maskUnits="userSpaceOnUse" x="58" y="104" width="8" height="8">
<path d="M58 104H66V112H58V104Z" fill="white"/>
</mask>
<g mask="url(#mask105_3_18439)">
<mask id="mask106_3_18439" style="mask-type:luminance" maskUnits="userSpaceOnUse" x="-111" y="-133" width="399" height="398">
<path d="M287.719 -77.0104L232.052 264.073L-111 208.083L-55.3333 -133L287.719 -77.0104Z" fill="white"/>
</mask>
<g mask="url(#mask106_3_18439)">
<mask id="mask107_3_18439" style="mask-type:luminance" maskUnits="userSpaceOnUse" x="-111" y="-133" width="399" height="398">
<path d="M287.719 -77.0104L232.052 264.073L-111 208.083L-55.3333 -133L287.719 -77.0104Z" fill="white"/>
</mask>
<g mask="url(#mask107_3_18439)">
<path d="M58.9984 109.813C60.0818 109.042 61.0193 108.105 62.1339 107.365C63.1651 106.678 64.0922 106.011 64.988 105.157C65.0505 105.094 64.9776 104.99 64.8943 105.001C62.4255 105.219 59.7172 106.99 58.1443 108.907C57.6859 109.459 58.4151 110.23 58.9984 109.813Z" fill="#8C3038"/>
</g>
</g>
</g>
<mask id="mask108_3_18439" style="mask-type:luminance" maskUnits="userSpaceOnUse" x="53" y="109" width="6" height="8">
<path d="M53 109H58.3333V117H53V109Z" fill="white"/>
</mask>
<g mask="url(#mask108_3_18439)">
<mask id="mask109_3_18439" style="mask-type:luminance" maskUnits="userSpaceOnUse" x="-110" y="-133" width="399" height="398">
<path d="M288.719 -77.0104L233.052 264.073L-110 208.083L-54.3333 -133L288.719 -77.0104Z" fill="white"/>
</mask>
<g mask="url(#mask109_3_18439)">
<mask id="mask110_3_18439" style="mask-type:luminance" maskUnits="userSpaceOnUse" x="-110" y="-133" width="399" height="398">
<path d="M288.719 -77.0104L233.052 264.073L-110 208.083L-54.3333 -133L288.719 -77.0104Z" fill="white"/>
</mask>
<g mask="url(#mask110_3_18439)">
<path d="M56.0692 116.199C56.6733 115.605 57.0379 114.626 57.3921 113.855C57.7983 113.001 58.1629 112.126 58.6004 111.282C58.7046 111.063 58.4129 110.907 58.2567 111.063C57.5587 111.782 56.8192 112.522 56.2254 113.334C55.7254 114.022 55.1212 114.865 55.0067 115.709C54.9233 116.344 55.6421 116.594 56.0692 116.199Z" fill="#8C3038"/>
</g>
</g>
</g>
<mask id="mask111_3_18439" style="mask-type:luminance" maskUnits="userSpaceOnUse" x="0" y="0" width="275" height="224">
<path d="M-2.23517e-08 0H274.125V224H-2.23517e-08V0Z" fill="white"/>
</mask>
<g mask="url(#mask111_3_18439)">
<mask id="mask112_3_18439" style="mask-type:luminance" maskUnits="userSpaceOnUse" x="-111" y="-133" width="399" height="398">
<path d="M287.719 -77.0104L232.052 264.073L-111 208.083L-55.3333 -133L287.719 -77.0104Z" fill="white"/>
</mask>
<g mask="url(#mask112_3_18439)">
<mask id="mask113_3_18439" style="mask-type:luminance" maskUnits="userSpaceOnUse" x="-111" y="-133" width="399" height="398">
<path d="M287.719 -77.0104L232.052 264.073L-111 208.083L-55.3333 -133L287.719 -77.0104Z" fill="white"/>
</mask>
<g mask="url(#mask113_3_18439)">
<path d="M-9.38043 221.919C-2.22418 206.762 12.5675 196.179 17.5571 179.867C22.1508 164.887 13.7654 153.262 7.37999 140.429C0.0883179 125.762 -1.52626 108.231 2.87999 92.4395C7.49457 75.9187 18.4737 62.2833 24.7237 46.4604C28.7237 36.3354 30.8175 25.0749 28.2862 14.6166C28.4112 13.4187 28.4842 12.2312 28.4842 11.0437C32.5987 12.8145 36.88 14.2312 41.2446 15.2312C41.1925 15.9395 41.4529 16.6999 42.1821 17.3874C44.0883 19.1895 47.0571 19.877 49.5362 20.5645C52.7237 21.4604 55.9633 22.1062 59.2342 22.5958C54.755 28.6374 51.9842 36.3979 52.2342 43.252C52.4633 49.4604 54.4008 55.6583 53.5987 61.877C52.7237 68.6999 47.8904 73.2104 42.8696 77.377C34.6092 84.252 27.5258 91.5229 25.1612 102.419C22.9008 112.867 26.0467 123.783 33.7237 131.21C34.4008 131.867 35.1508 131.887 35.755 131.565C35.9008 131.752 36.0883 131.898 36.3071 132.002C36.3696 132.075 36.4217 132.158 36.505 132.231C41.9842 137.023 50.8071 136.658 56.6196 132.658C59.755 130.502 61.9737 127.387 64.4946 124.596C68.4633 120.179 72.6717 117.919 78.3279 117.127C78.9008 121.512 80.005 125.815 80.0258 130.315C80.0571 138.492 76.0779 146.21 74.1196 154.044C70.8592 167.096 71.5258 179.45 80.0779 190.2C80.3487 190.544 80.7654 190.669 81.1821 190.523C86.0362 188.919 90.0362 185.721 92.0258 181.325C95.8279 188.856 102.088 194.773 110.026 198.158C110.64 198.429 111.338 198.262 111.776 197.762C115.724 193.242 120.276 190.221 125.411 187.262C128.453 185.512 131.047 183.617 132.859 180.773C133.057 181.304 133.474 181.742 134.161 181.908C136.776 182.533 137.87 185.648 140.765 185.783C143.14 185.887 145.265 183.94 146.838 182.429C151.651 177.794 154.161 171.283 155.89 164.96C157.87 157.71 158.599 150.106 157.995 142.617C160.932 147.856 164.786 152.544 169.828 155.7C174.14 158.398 185.38 163.262 190.317 159.512C193.724 160.971 197.38 161.294 200.943 159.565C204.161 157.992 208.036 157.033 210.182 153.929C210.547 153.387 210.838 152.815 211.078 152.231C211.828 154.065 212.578 155.898 213.307 157.731C214.89 161.7 215.515 165.783 216.87 169.794C216.974 170.096 217.338 170.231 217.62 170.127C229.838 165.742 239.203 154.617 238.536 141.294C239.609 143.315 242.422 144.929 244.974 145.648C245.39 146.721 245.995 147.721 246.953 148.606C247.109 148.742 247.349 148.7 247.474 148.554C252.057 143.242 247.265 131.315 244.963 125.721C241.422 117.096 236.213 109.304 229.859 102.502C223.724 95.9291 216.39 90.4604 208.234 86.6479C199.193 82.4187 189.067 78.8874 179.161 76.2729C181.567 76.5124 184.005 76.6791 186.515 76.8145C196.203 77.3458 205.182 81.4812 214.849 81.7416C230.026 82.1374 244.797 73.877 253.63 61.7312C259.609 53.5124 262.422 43.6999 264.307 33.8354C266.609 21.7624 268.411 9.9916 272.151 -1.76881C272.547 -2.99798 271.568 -3.92506 270.609 -3.8209C270.172 -3.99798 269.672 -4.01881 269.172 -3.8834C268.276 -3.65423 267.411 -3.33131 266.588 -2.90423C266.099 -2.65423 265.599 -2.41464 265.172 -2.06048C265.13 -2.01881 265.088 -1.97715 265.047 -1.93548C264.005 -2.31048 263.005 -2.67506 262.015 -3.06048C263.026 -3.15423 264.047 -3.05006 265.047 -2.71673C265.713 -2.49798 266.193 -3.46673 265.515 -3.71673C263.64 -4.42506 261.713 -4.47715 259.89 -3.90423C255.213 -5.91465 251.172 -8.52923 248.099 -13.7584C244.703 -19.5396 241.943 -25.5813 236.182 -29.4355C222.661 -38.498 206.245 -31.373 192.13 -28.2376C183.672 -26.3521 175.047 -27.623 166.62 -25.9876C159.755 -24.6542 154.224 -20.8626 148.682 -16.8105C141.734 -11.7167 135.265 -8.18548 126.453 -7.92506C118.401 -7.68548 110.359 -9.17506 102.317 -8.30006C91.5362 -7.12298 81.7133 -2.28965 73.9946 4.97077C70.7654 5.47077 67.8592 6.7416 64.9842 8.93952C63.7654 9.16869 62.5467 9.36661 61.3383 9.48119C60.1508 9.58536 59.0779 9.6791 58.0779 10.002C56.0883 9.47077 54.13 8.79369 52.0675 8.64785C48.6612 8.40827 45.2654 9.41869 42.7758 11.752C39.005 10.7937 35.3071 9.57494 31.7133 8.09577C34.3383 7.3041 36.7654 5.64785 38.7133 3.48119C44.2446 -2.67506 46.0883 -11.123 52.0258 -17.1334C66.6612 -31.9771 87.8279 -32.1855 107.067 -29.3938C123.661 -26.9876 141.276 -30.7792 153.765 -42.5397C164.442 -52.6022 178.057 -68.1646 174.286 -84.0084C174.317 -84.1438 174.338 -84.2896 174.359 -84.4355C174.401 -84.623 174.328 -84.7688 174.213 -84.8626C174.151 -85.2896 174.036 -85.6959 173.901 -86.0917C174.078 -86.3001 174.255 -86.5084 174.432 -86.7063C174.734 -87.0605 174.338 -87.4563 173.984 -87.3626C174.015 -87.8313 173.505 -88.3105 173.005 -87.9459C159.557 -78.0605 145.203 -88.3001 132.13 -95.9251C131.963 -96.1542 131.713 -96.3209 131.37 -96.3626C127.89 -98.373 124.505 -100.165 121.255 -101.3C104.786 -107.05 88.13 -99.7063 74.2237 -90.9459C58.1717 -80.8417 45.5987 -68.8001 40.0258 -50.1855C37.2342 -40.8521 36.9737 -31.498 35.88 -21.9146C34.7758 -12.248 29.6612 -5.43548 25.505 2.59577C25.2237 2.88744 25.0571 3.2416 24.9946 3.60619C24.8175 3.94994 24.6404 4.29369 24.4737 4.65827C23.9737 4.37702 23.4737 4.11661 22.9737 3.82494C9.10915 -4.18548 0.234154 -16.2896 -4.80751 -31.3313C-9.88043 -46.4563 -14.6721 -60.6542 -24.3388 -73.5813C-33.3804 -85.6855 -44.6929 -95.9667 -56.9221 -104.748C-58.2242 -105.675 -59.8075 -103.821 -58.5263 -102.8C-45.5575 -92.5605 -33.5367 -81.0917 -24.4221 -67.2063C-19.7138 -60.0605 -16.0367 -52.4147 -13.37 -44.2897C-10.5263 -35.623 -8.56793 -26.6855 -4.37001 -18.5188C1.53624 -7.01881 11.1404 2.02285 22.4217 8.12702C22.2758 8.39785 22.1508 8.69994 22.0779 9.0541C19.9633 19.7312 11.1508 22.0645 1.67165 22.6999C-5.51585 23.1791 -11.4325 25.4812 -15.8596 31.3666C-20.4846 37.5229 -22.1096 44.9187 -24.0471 52.2104C-25.3908 57.252 -26.9638 62.1166 -29.9221 66.4604C-32.2763 69.8979 -35.245 72.8562 -37.8284 76.1166C-48.4013 89.5229 -55.2242 106.596 -56.4221 123.669C-57.5783 140.148 -51.1721 156.127 -42.7033 169.981C-37.9325 177.783 -32.1825 184.846 -25.7242 191.315C-18.1721 198.887 -7.82835 208.752 -12.2658 220.596C-12.9638 222.492 -10.2658 223.783 -9.38043 221.919ZM82.0154 -33.3938C80.0987 -33.1959 78.1821 -32.9042 76.2967 -32.5396C74.0883 -34.4146 71.7654 -36.0084 69.6925 -38.123C67.1092 -40.7584 65.4425 -42.8626 64.38 -46.3834C64.63 -46.5709 64.8696 -46.7688 65.13 -46.9563C65.4425 -47.1751 65.755 -47.373 66.0779 -47.5813C68.7237 -40.1438 74.7446 -35.5813 82.0154 -33.3938ZM83.9842 -33.5709C76.8696 -36.5084 70.3383 -41.0605 67.3279 -48.3417C68.4425 -48.9876 69.5883 -49.5709 70.7446 -50.0709C74.4008 -42.5292 82.0258 -35.8834 90.5154 -33.7792C88.3383 -33.8001 86.1612 -33.7376 83.9842 -33.5709ZM146.276 -39.6542C138.745 -34.7896 129.63 -31.8001 120.682 -31.1959C113.088 -30.6855 105.672 -32.5084 98.1612 -33.3417C94.1092 -36.1646 88.9425 -37.248 84.5467 -39.5605C79.7654 -42.0813 74.7654 -45.8834 71.6821 -50.4459C77.8487 -52.873 84.5883 -53.3834 91.3592 -53.0501C99.755 -52.6334 107.786 -51.8001 115.765 -51.9876C115.849 -51.6542 116.057 -51.3522 116.422 -51.1438C126.078 -45.9876 139.63 -39.1646 150.89 -43.0917C149.411 -41.8522 147.88 -40.6855 146.276 -39.6542ZM152.078 -44.1126C145.38 -43.7897 139.328 -43.7688 132.828 -45.9667C128.276 -47.5084 124.036 -49.7896 119.87 -52.1751C122.307 -52.3522 124.745 -52.6334 127.182 -53.0813C127.078 -52.4355 127.307 -51.7376 128.057 -51.3626C137.213 -46.7063 147.453 -46.2167 157.14 -49.123C155.526 -47.3626 153.838 -45.6751 152.078 -44.1126ZM157.724 -49.7688C148.317 -47.9251 139.13 -49.5709 130.526 -53.7897C132.37 -54.2376 134.234 -54.8001 136.099 -55.4667C136.14 -55.2376 136.265 -55.0397 136.557 -54.9459C144.359 -52.3938 152.942 -50.1751 160.734 -53.2584C159.755 -52.0813 158.755 -50.9042 157.724 -49.7688ZM173.297 -83.9771C173.297 -83.8209 173.359 -83.7167 173.453 -83.6438C174.12 -74.3521 170.536 -66.0084 164.942 -58.6126C163.724 -56.998 162.442 -55.3522 161.12 -53.7272C153.224 -50.9772 145.64 -53.4042 137.911 -56.1647C152.724 -62.0917 162.984 -73.4251 173.213 -85.2792C173.276 -84.8521 173.307 -84.4146 173.297 -83.9771ZM134.463 -91.3938C145.682 -84.9251 160.776 -77.4876 172.713 -86.123C160.255 -73.2688 148.995 -60.5813 131.005 -55.6438C124.422 -53.8313 117.942 -53.6542 111.484 -53.998C111.109 -62.0917 116.213 -71.3938 120.672 -77.8834C124.515 -83.4772 129.536 -87.0292 134.37 -91.4459C134.401 -91.4251 134.432 -91.4146 134.463 -91.3938ZM133.411 -91.998C127.026 -89.1542 121.484 -82.2792 117.901 -76.7584C113.859 -70.5292 108.974 -61.8209 109.547 -54.1126C107.349 -54.2584 105.151 -54.4667 102.953 -54.6751C105.14 -62.8626 108.87 -70.7167 112.807 -78.1959C116.172 -84.5709 122.245 -92.3834 129.859 -93.9563C131.047 -93.3209 132.224 -92.6751 133.411 -91.998ZM126.745 -95.5396C120.703 -93.4042 115.515 -87.6334 112.39 -82.5292C107.276 -74.1959 102.901 -64.5917 101.109 -54.9459C101.099 -54.9147 101.109 -54.8834 101.109 -54.8417C99.9425 -54.9459 98.7758 -55.0501 97.6092 -55.1542C97.5987 -55.2688 97.5987 -55.3834 97.5571 -55.5084C96.2342 -59.8209 99.2342 -66.7688 100.567 -70.8209C101.817 -74.6334 103.307 -78.3417 105.099 -81.9355C108.911 -89.5605 114.057 -93.7376 120.599 -98.0813C122.682 -97.373 124.724 -96.5084 126.745 -95.5396ZM75.9425 -88.1855C70.7237 -78.0917 69.0362 -64.3105 71.0883 -53.7272C71.2029 -53.1542 72.005 -53.2376 71.9946 -53.8209C71.8696 -60.3417 71.5883 -66.7688 72.7133 -73.2271C73.6821 -78.8209 75.7446 -83.9251 77.5987 -89.1959C78.1092 -89.498 78.6092 -89.8105 79.13 -90.123C87.2342 -94.9459 96.1404 -99.0813 105.64 -100.008C110.453 -100.477 114.89 -99.8522 119.13 -98.5709C112.015 -95.0501 106.276 -89.2063 102.453 -82.1959C100.005 -77.7271 98.4425 -72.8001 97.005 -67.9355C95.8279 -63.9771 93.6196 -59.3522 95.2654 -55.3417C91.0883 -55.6542 86.8904 -55.8105 82.6404 -55.5292C77.8487 -55.1959 73.4633 -54.0084 69.4425 -52.1438C68.4946 -58.4042 67.9112 -64.498 68.3487 -70.8521C68.6717 -75.6126 69.7342 -80.1751 70.6925 -84.8001C72.4217 -85.9667 74.1821 -87.1021 75.9425 -88.1855ZM56.7133 -73.3417C60.4321 -77.2271 64.6925 -80.6438 69.1717 -83.7584C65.6092 -73.7167 65.6717 -61.6438 68.0362 -51.6334C68.0571 -51.5917 68.0779 -51.5501 68.0987 -51.498C62.8279 -48.8001 58.2446 -44.8938 54.3175 -40.1646C50.8696 -50.0709 53.4842 -61.0813 54.9112 -71.3521C55.4946 -72.0188 56.0883 -72.6855 56.7133 -73.3417ZM53.6717 -69.8521C52.13 -64.2271 51.5362 -58.3001 51.3071 -52.5292C51.1196 -47.8209 51.255 -43.1022 53.2758 -38.8521C52.5779 -37.9563 51.9008 -37.0396 51.2446 -36.1021C49.1404 -44.9042 48.4842 -54.6959 49.505 -63.8001C50.7654 -65.9042 52.1404 -67.9355 53.6717 -69.8521ZM38.5571 -17.4146C40.3383 -26.8209 39.8904 -36.373 42.2029 -45.7376C43.5571 -51.2167 45.5154 -56.5292 48.1717 -61.4772C48.005 -58.7272 48.2446 -55.9042 48.4008 -53.2063C48.7446 -47.123 48.5467 -40.9355 50.1717 -35.0188C50.2029 -34.9042 50.2654 -34.8105 50.3279 -34.748C46.5883 -29.0396 43.7446 -22.8626 40.7758 -16.7376C38.3904 -11.7792 35.8279 -6.46673 32.0362 -2.39381C34.8487 -7.08131 37.4946 -11.8105 38.5571 -17.4146ZM49.5779 -28.4251C52.9737 -34.498 57.1196 -40.3938 62.4737 -44.9042C63.1092 -42.0397 65.0258 -39.9146 67.1717 -37.8521C69.2133 -35.9042 71.3904 -33.4459 73.9946 -32.0501C67.6612 -30.5813 61.5987 -28.1126 56.1612 -24.3313C51.1612 -20.8417 46.8904 -16.3938 43.7758 -11.1334C40.2758 -5.1959 36.0883 6.9291 27.6404 5.6791C40.4946 -1.10215 42.9946 -16.6542 49.5779 -28.4251ZM56.5258 48.7208C55.6925 42.5645 55.505 36.7937 58.4946 31.1166C60.3383 27.627 63.1612 24.4812 65.2862 21.0541C65.3904 21.0333 65.4842 21.002 65.5883 20.9708C65.6196 21.2208 65.6717 21.4604 65.7654 21.6791C65.1925 28.252 60.9737 33.5749 59.9321 40.0333C59.0675 45.4499 58.4008 50.8041 57.3175 56.1479C57.1717 53.7104 56.8592 51.2312 56.5258 48.7208ZM32.6196 123.19C32.3904 120.054 33.7133 117.127 34.7342 114.19C35.5258 111.887 36.2862 109.606 37.4112 107.44C37.4633 107.356 37.3487 107.262 37.2654 107.315C34.88 108.992 34.2237 112.315 33.2446 114.919C32.4737 116.971 31.7237 118.992 31.4842 121.096C31.2446 120.617 31.005 120.127 30.7967 119.627C30.9842 119.512 31.1196 119.315 31.0987 119.023C30.3592 112.106 31.2862 106.512 35.38 100.804C37.7967 97.4291 40.4842 94.4708 42.2133 90.6687C42.255 90.5749 42.1196 90.5124 42.0675 90.5958C39.2029 95.7937 34.3487 99.4395 31.8904 104.887C30.3592 108.315 29.4842 112.085 29.5154 115.835C27.7342 108.835 28.7342 101.21 32.3904 94.4708C37.3904 85.2416 47.0675 80.8562 53.1717 72.6687C55.9425 68.9604 57.0467 65.002 57.3175 60.8979C57.5154 60.8249 57.6821 60.6791 57.755 60.4291C59.8487 53.4395 60.6404 46.502 61.7133 39.3249C62.6092 33.4395 65.7654 28.2208 66.1404 22.2833C66.4425 22.627 66.8487 22.8979 67.3904 23.0229C67.3696 23.5229 67.505 24.0437 67.7967 24.502C69.9112 34.9708 65.3071 44.3666 62.6404 54.4395C61.3071 59.4916 61.0258 64.7833 59.2029 69.7104C57.0779 75.4604 53.5675 80.8562 48.9321 84.8666C48.6404 85.1166 48.9946 85.6062 49.2862 85.3562C53.3383 81.8458 56.4425 77.3979 58.6717 72.5333C61.3383 66.7312 61.8592 60.0124 63.9112 53.9395C67.0675 44.6687 70.7758 34.7624 68.2862 25.0645C68.4217 25.1895 68.5362 25.3041 68.7029 25.4083C69.7133 26.0124 70.755 26.6374 71.7967 27.2729C75.0883 32.6999 76.5362 38.9708 74.8487 45.2208C73.4425 50.4083 69.5467 54.4187 67.3487 59.2833C62.7133 69.5541 60.9946 79.9812 54.2967 89.3354C54.0467 89.6791 54.4842 90.2416 54.8487 89.9187C64.7342 81.0437 64.6717 65.127 71.7862 54.3145C77.2342 46.0333 79.3487 36.1062 72.9946 28.0124C75.6196 29.6479 78.2237 31.4291 80.4217 33.5541C83.255 42.0124 80.63 51.0541 78.2758 59.5749C78.13 60.1166 78.9529 60.3249 79.1821 59.8562C82.4842 52.9916 84.3696 43.0749 81.9529 35.1791C83.4633 36.9499 84.6716 38.9499 85.3904 41.2624C87.5987 48.3562 83.005 56.9916 82.4842 64.1895C82.4321 64.9395 82.4112 65.6999 82.3904 66.4604C82.3175 66.4812 82.255 66.5229 82.2133 66.6166C80.7654 70.4499 79.5258 73.8874 77.1508 77.2937C75.0362 80.3249 72.6821 83.1895 70.38 86.0854C69.9008 86.6999 70.7862 87.4187 71.3175 86.8562C76.2133 81.7104 80.7862 76.3666 82.3487 69.4916C82.3487 72.0541 82.4529 74.627 82.5571 77.1895C81.3592 86.8249 73.0154 90.127 64.3383 93.0229C65.6717 91.7104 67.0258 90.4187 68.4321 89.1895C68.5258 89.1062 68.4217 88.9499 68.3175 89.0229C66.4737 90.3458 64.7654 91.7624 63.1508 93.3458C63.1196 93.377 63.0987 93.4083 63.0883 93.4395C60.5883 94.2729 58.0883 95.0958 55.7446 96.0437C59.3071 92.9187 62.505 89.4708 65.3175 85.627C65.3696 85.5437 65.255 85.4499 65.2029 85.5229C62.1925 89.5645 58.755 93.1687 54.9112 96.3874C52.3696 97.4812 50.0467 98.7624 48.1717 100.408C40.4008 107.231 37.255 117.554 35.8383 127.533C34.5987 126.169 33.5362 124.71 32.6196 123.19ZM51.7446 130.617C50.0467 131.315 48.3592 131.596 46.6612 131.533C47.6404 130.315 48.3904 128.783 49.1196 127.554C51.1196 124.158 52.5154 120.887 53.4737 117.085C53.505 116.94 53.2967 116.898 53.2342 117.012C50.63 121.627 48.3071 127.356 44.6508 131.335C43.8904 131.21 43.13 131.023 42.3696 130.804C43.1612 127.387 44.3696 124.262 45.8592 121.044C47.2654 118.023 48.2029 114.731 50.13 111.971C50.2967 111.731 50.0154 111.356 49.755 111.565C47.0467 113.742 45.6404 117.221 44.2133 120.294C42.7029 123.575 41.1821 126.762 40.9425 130.325C40.1508 130.044 39.3696 129.731 38.5779 129.377C40.4321 115.012 45.7237 101.825 60.3175 96.3874C68.4321 93.377 79.63 90.4187 82.7029 81.7624C82.7237 82.8666 82.7342 83.9708 82.7237 85.0749C82.7029 86.4291 82.5987 87.7729 82.4321 89.0854C79.2862 91.6999 76.1404 94.2729 72.1717 95.5541C68.8487 96.627 65.5154 97.1895 62.755 99.4708C62.2237 99.8979 62.8487 100.762 63.3696 100.325C66.7029 97.4812 71.0779 97.252 74.9008 95.4187C77.8592 94.002 80.1716 91.8458 82.38 89.5124C82.005 92.3874 81.3592 95.1999 80.6612 97.9916C78.755 99.8145 76.4529 100.773 73.7342 101.169C71.6196 101.471 69.7237 101.679 67.88 102.846C67.3071 103.21 67.9217 104.054 68.505 103.7C71.0362 102.179 74.0675 102.262 76.7446 101.158C78.2133 100.544 79.4633 99.627 80.5362 98.5124C80.005 100.627 79.4737 102.762 79.005 104.908C73.63 106.606 66.1717 108.325 61.9842 112.21C60.13 113.929 59.1508 116.231 58.0362 118.429C56.0883 122.283 54.005 125.929 51.5154 129.46C51.2029 129.898 51.4112 130.387 51.7446 130.617ZM63.63 120.179C63.505 120.283 63.4633 120.408 63.4633 120.523C63.2237 120.731 62.9946 120.94 62.755 121.158C59.9112 123.846 57.4737 127.096 54.2029 129.294C53.8071 129.565 53.4008 129.804 53.005 130.023C55.9425 125.71 57.9425 121.096 60.505 116.596C64.2133 110.117 72.5154 108.294 78.9425 105.169C78.6612 106.481 78.4112 107.804 78.2237 109.158C78.1716 109.471 78.1508 109.783 78.1196 110.106C75.5987 110.544 73.0883 111.533 70.9321 112.856C67.8904 114.752 66.2758 117.846 63.63 120.179ZM67.3279 117.783C68.2967 116.565 69.2446 115.315 70.4946 114.377C72.7862 112.648 75.4946 111.877 78.0571 110.752C77.9425 112.45 78.005 114.117 78.1717 115.773C74.2029 115.242 70.5987 115.971 67.3279 117.783ZM126.401 183.856C128.286 176.773 127.797 169.658 126.963 162.377C126.047 154.398 124.463 146.627 121.14 139.273C121.088 139.158 120.911 139.221 120.953 139.356C123.338 146.262 124.651 153.367 125.422 160.627C126.265 168.575 126.922 176.679 124.38 184.408C124.307 184.617 124.338 184.815 124.401 184.992C122.932 185.773 121.432 186.523 120.005 187.346C119.338 187.731 118.682 188.137 118.047 188.554C120.14 183.283 119.276 176.825 119.432 171.304C119.609 164.877 120.89 157.377 117.807 151.471C117.765 151.387 117.62 151.429 117.661 151.523C120.401 157.398 118.817 164.95 118.505 171.283C118.224 177.158 118.734 183.96 115.995 189.304C115.859 189.565 115.901 189.804 116.015 189.992C114.713 190.971 113.474 192.023 112.276 193.137C113.14 187.742 112.713 182.419 112.495 176.95C112.213 170.127 112.422 163.221 112.87 156.408C112.88 156.283 112.692 156.242 112.672 156.377C111.942 161.971 111.005 167.523 110.88 173.169C110.724 180.085 111.817 186.898 110.536 193.762C110.474 194.117 110.63 194.367 110.859 194.523C110.682 194.69 110.505 194.856 110.338 195.023C107.901 193.825 105.672 192.377 103.661 190.71C103.807 190.669 103.932 190.565 103.974 190.377C106.661 178.835 108.036 165.648 104.807 154.117C104.776 154.012 104.599 154.054 104.609 154.169C106.515 166.544 104.338 177.981 103.13 190.242C103.13 190.242 103.13 190.242 103.13 190.252C101.442 188.794 99.9321 187.158 98.5883 185.387C98.9008 176.221 102.797 166.512 99.2133 157.658C99.1508 157.512 98.8904 157.554 98.9217 157.731C100.411 166.054 96.5675 174.065 96.4946 182.242C95.1508 179.971 94.0571 177.523 93.255 174.898C93.13 174.46 92.8279 174.158 92.4737 173.981C93.1404 166.731 95.8175 159.492 94.0154 152.398C93.9842 152.283 93.8175 152.335 93.8175 152.44C94.3071 159.617 90.8071 166.846 90.7862 173.94C90.255 174.158 89.8383 174.596 89.7967 175.252C89.4842 179.762 87.8487 184.127 84.13 186.908C81.3175 189.012 80.755 187.69 79.3487 185.2C78.3487 183.419 77.7862 181.325 77.3175 179.356C75.2029 170.585 76.5258 161.304 78.9946 152.762C81.3487 144.637 85.2342 136.794 84.7237 128.137C84.4946 124.356 83.4217 120.69 83.0362 116.919C82.5258 111.794 83.6196 107.242 84.9946 102.377C87.255 94.4083 87.7758 87.002 87.2967 78.752C86.88 71.7937 86.6821 65.3666 87.755 58.7833C89.0675 71.002 88.9842 83.2208 87.5883 95.4395C86.6821 103.46 84.0675 112.783 88.6508 120.106C89.0779 120.804 90.3071 120.158 89.9217 119.419C85.0571 110.033 89.2654 98.4916 89.6821 88.502C90.1196 78.2833 89.4633 68.1062 87.9008 58.002C88.2029 56.3041 88.5675 54.6062 89.0571 52.877C90.0154 49.5437 90.3592 46.4395 90.1612 43.5541C91.3279 47.0437 92.3279 50.5749 92.755 54.1791C93.63 61.6166 91.7758 68.9916 91.1612 76.377C90.2342 87.5437 92.0467 99.127 96.8071 109.304C97.3175 110.408 99.0675 109.773 98.5883 108.617C93.1717 95.5229 91.5571 82.8562 93.4529 68.8145C94.9425 57.7833 93.6612 48.7624 89.3904 39.0958C88.13 34.6374 85.505 30.7937 81.8383 27.5958C83.5779 28.252 85.2654 29.0333 86.9112 29.8874C92.8383 42.0854 98.005 54.5437 99.4842 68.1791C100.63 78.7937 98.13 93.0437 105.63 101.794C106.13 102.367 107.203 101.919 106.87 101.137C104.265 95.0124 102.515 89.1999 101.942 82.5437C101.37 75.8874 101.067 69.2833 99.9321 62.6791C98.0987 52.0541 94.6717 41.4187 88.9737 32.1999C95.5258 41.627 100.067 51.7312 102.703 63.2104C105.505 75.4187 107.953 87.5854 112.547 99.3041C117.297 111.45 124.661 122.085 130.255 133.783C136.578 146.981 134.484 160.565 132.422 174.481C132.297 175.367 133.317 175.69 133.838 175.221C133.692 175.96 133.474 176.679 133.234 177.387C133.265 176.815 133.192 176.252 133.036 175.69C132.953 175.419 132.484 175.533 132.547 175.815C132.713 176.585 132.692 177.346 132.474 178.096C132.432 178.137 132.401 178.19 132.359 178.242C130.932 180.742 128.786 182.44 126.401 183.856ZM153.922 159.794C152.62 165.867 150.567 172.533 146.661 177.492C146.276 177.971 145.922 178.408 145.578 178.815C148.422 168.44 147.474 156.471 144.557 146.533C144.505 146.367 144.245 146.44 144.265 146.606C145.192 153.044 145.588 159.512 145.151 166.012C144.797 171.221 143.609 176.106 142.63 181.148C141.536 181.523 140.297 181.346 138.682 180.45C141.463 171.169 141.64 161.148 139.495 151.742C139.474 151.648 139.338 151.658 139.349 151.752C140.495 161.46 139.755 170.429 137.495 179.71C136.661 179.137 135.932 178.627 134.745 178.346C134.432 178.273 134.161 178.283 133.922 178.346C133.901 178.294 133.87 178.252 133.849 178.21C134.255 177.012 134.349 175.669 134.338 174.429C134.338 174.346 134.286 174.315 134.213 174.294C136.724 162.137 138.578 149.169 134.172 137.221C131.89 131.023 128.203 125.492 124.911 119.815C121.088 113.231 117.911 106.419 115.005 99.3874C109.578 86.3145 106.411 72.9083 102.474 59.3562C99.4633 48.9812 95.2133 39.2208 88.6196 30.7937C89.4112 31.2416 90.1821 31.7416 90.9529 32.2312C94.7862 35.6166 97.1196 40.2729 99.4112 45.1479C102.578 51.8979 105.203 58.8354 107.37 65.9708C109.265 72.2312 111.088 78.3666 114.38 84.0645C117.807 89.9916 122.203 95.2833 126.578 100.533C127.203 101.273 128.432 100.387 127.807 99.6479C122.817 93.8041 117.755 87.8979 114.172 81.0541C110.255 73.5749 108.567 65.1479 105.724 57.2312C103.817 51.9395 101.349 43.3666 97.2446 37.002C98.1508 37.8041 99.0362 38.6583 99.8904 39.5229C104.849 44.6062 106.515 51.0854 109.838 57.127C110.276 57.9291 110.807 58.6791 111.37 59.4187C112.526 62.9291 113.515 66.5645 114.411 70.3874C115.39 74.5229 117.276 77.627 119.609 81.0854C123.12 86.3145 125.817 91.8874 127.651 97.9083C127.922 98.7833 129.234 98.2729 128.974 97.4083C127.453 92.3354 125.39 87.5645 122.474 83.1374C120.984 80.877 119.192 78.8041 117.797 76.4812C115.64 72.8979 115.172 68.877 114.276 64.877C114.047 63.8874 113.786 62.8979 113.515 61.9187C116.057 64.5645 119.005 66.9291 121.297 69.6479C129.12 78.9499 133.297 90.5124 137.963 101.575C140.401 107.346 142.588 113.242 145.557 118.783C147.682 122.752 149.817 127.804 153.099 131.169C153.12 131.262 153.13 131.356 153.161 131.44C153.578 132.71 154.036 133.981 154.536 135.252C154.838 136.825 155.067 138.429 155.213 140.127C155.734 146.69 155.307 153.356 153.922 159.794ZM228.703 162.335C227.484 163.533 219.995 169.846 218.578 168.273C218.536 168.231 218.682 165.502 218.609 164.908C218.432 163.273 217.995 161.637 217.526 160.075C215.099 151.887 211.703 143.096 207.578 135.606C204.505 130.012 200.234 125.252 193.901 123.617C192.109 123.148 191.328 125.95 192.963 126.679C201.536 130.544 205.13 137.815 208.557 146.106C208.974 147.106 209.38 148.106 209.797 149.096C209.318 151.794 207.776 153.919 204.682 155.419C203.026 156.221 200.401 157.596 198.651 157.96C190.911 159.533 185.734 152.023 180.224 148.096C179.317 147.45 178.057 148.492 178.755 149.481C180.63 152.127 183.13 154.867 185.995 156.971C185.036 156.971 184.057 156.96 183.067 156.804C178.484 156.075 174.015 154.231 170.265 151.492C163.328 146.429 161.182 138.95 157.328 131.877C156.38 126.065 151.734 120.096 148.838 114.971C152.276 118.981 155.37 123.19 158.63 127.377C158.942 127.783 159.692 127.44 159.463 126.919C155.963 119.19 149.474 113.596 144.557 106.887C142.797 103.398 141.12 99.877 139.567 96.2416C134.765 84.9916 129.807 73.3562 121.317 64.3145C117.109 59.8354 112.828 56.0749 109.526 51.0854C108.161 48.1895 106.588 45.3979 104.797 42.7416C103.015 39.6583 101.036 36.6895 98.63 34.0645C94.8592 29.9499 90.1196 26.8041 84.9529 24.627C90.2446 25.4291 95.4529 26.627 100.474 28.502C101.088 28.7312 101.692 28.9916 102.307 29.2416C109.182 33.2729 112.286 41.5437 117.005 47.9916C119.505 51.4083 122.515 54.3041 125.765 56.9291C125.776 56.9916 125.797 57.0541 125.838 57.1062C127.484 59.7416 129.161 62.3354 130.859 64.8874C130.859 64.9187 130.838 64.9395 130.849 64.9708C132.974 73.6687 136.109 81.8874 140.109 89.8666C138.422 87.2416 136.672 84.6479 134.849 82.1062C134.567 81.7104 133.984 82.1479 134.234 82.5541C138.245 88.8979 142.317 95.1895 146.12 101.658C149.286 107.044 151.776 113.012 156.682 117.065C156.838 117.19 157.015 116.971 156.87 116.835C152.088 112.033 149.349 105.065 145.922 99.2833C144.276 96.502 142.588 93.7416 140.849 91.0124C137.099 82.9395 134.088 74.5541 131.62 66.002C142.713 82.4083 155.422 96.8458 174.005 105.523C199.005 117.21 219.38 135.002 225.318 163.033C225.38 163.315 225.807 163.283 225.776 162.981C222.568 139.117 205.213 120.065 184.713 108.804C179.036 105.69 172.984 103.335 167.39 100.075C161.682 96.7416 156.547 92.5645 151.849 87.9291C143.005 79.1999 135.734 69.0854 128.474 59.0437C130.015 60.1999 131.599 61.3041 133.192 62.3979C139.442 66.6791 145.724 70.8145 151.005 76.3041C156.495 82.0124 161.078 88.5749 166.995 93.877C177.974 103.7 192.234 108.45 204.713 115.919C219.963 125.065 230.13 139.45 232.224 157.262C232.234 157.325 232.328 157.315 232.328 157.252C230.786 142.731 223.703 129.325 212.297 120.127C199.14 109.523 182.109 104.971 169.422 93.6895C163.005 87.9916 158.411 80.6791 152.515 74.4916C146.453 68.1374 138.953 63.6895 131.838 58.6479C124.276 53.2937 118.995 47.2208 113.942 39.5437C120.995 47.6479 130.422 53.4083 139.213 59.5124C144.578 63.2416 149.807 67.1062 154.474 71.7104C159.89 77.0645 165.015 82.4499 171.161 86.9916C194.276 104.065 224.807 114.2 238.161 141.627C237.39 149.356 234.286 156.835 228.703 162.335ZM108.14 32.0437C109.14 32.5958 110.13 33.1583 111.109 33.752C110.703 33.6479 110.265 33.9604 110.203 34.377C109.547 33.5645 108.859 32.7833 108.14 32.0437ZM203.505 89.5541C211.838 93.1062 219.328 98.2624 225.609 104.794C226.922 106.148 228.151 107.585 229.338 109.065C223.297 104.94 217.078 101.127 210.599 97.7208C203.87 94.1895 197.745 90.7624 192.567 85.5229C196.265 86.7416 199.932 88.0333 203.505 89.5541ZM191.765 85.252C195.682 89.4291 200.234 92.6791 205.401 95.4395C213.693 99.877 221.849 104.262 229.682 109.492C233.807 114.742 237.14 120.648 239.588 126.825C236.734 122.887 233.599 119.044 230.432 115.565C226.172 110.898 221.068 108.179 215.422 105.502C207.963 101.96 200.734 98.0333 193.838 93.4916C187.38 89.2416 181.651 84.1479 175.411 79.6583C180.765 81.7624 186.286 83.4499 191.765 85.252ZM170.89 74.9708C170.088 75.752 170.047 77.3562 171.286 77.9187C172.547 78.4916 173.817 79.0229 175.099 79.5333C174.755 79.5229 174.515 79.9604 174.817 80.2833C184.567 90.4604 198.172 98.3458 210.703 104.575C218.088 108.242 225.161 111.231 230.651 117.658C234.307 121.929 237.484 126.627 241.099 130.929C242.151 133.971 243.057 137.085 243.724 140.21C243.963 141.335 244.13 142.44 244.359 143.502C244.057 143.304 243.755 143.096 243.463 142.877C242.255 141.94 241.297 140.617 239.943 139.908C239.338 139.585 238.547 140.085 238.432 140.721C238.359 140.69 238.245 140.71 238.234 140.815C238.224 141.012 238.193 141.221 238.182 141.44C225.922 115.71 198.172 105.127 176.307 89.4291C164.401 80.877 155.599 69.1166 143.776 60.5333C132.349 52.2312 120.234 45.4395 111.515 34.0124C111.505 33.9916 111.474 33.9812 111.463 33.9604C115.578 36.4916 119.474 39.3979 123.245 42.4916C135.474 52.5333 146.495 64.6791 160.974 71.5958C164.255 73.1583 167.547 74.2208 170.89 74.9708ZM80.9842 8.18952C88.2133 5.60619 95.5258 3.68952 103.286 2.75202C112.651 1.6166 122.14 1.41869 131.547 0.710352C131.63 0.699938 131.63 0.564524 131.547 0.564524C117.62 -0.602148 101.974 -1.10215 87.8487 2.44994C93.4946 -0.550062 99.7862 -2.33131 106.328 -2.60215C120.807 -3.18548 133.911 0.189524 146.87 -8.27923C152.651 -12.0605 157.838 -17.1751 164.505 -19.4251C172.588 -22.1542 181.588 -20.373 189.922 -21.8938C204.078 -24.4667 223.755 -34.6126 236.182 -22.373C236.255 -22.3001 236.328 -22.2167 236.401 -22.1438C221.38 -25.998 205.838 -25.373 191.067 -20.5396C183.797 -18.1646 176.786 -15.0709 169.713 -12.1751C162.036 -9.03964 154.38 -7.09173 146.37 -5.08131C145.578 -4.8834 145.963 -3.74798 146.682 -3.76881C160.932 -4.24798 174.349 -12.9563 187.38 -17.873C203.276 -23.873 220.109 -25.0396 236.734 -21.7792C238.588 -19.8209 240.12 -17.6126 241.599 -15.3626C227.943 -21.2584 212.838 -22.2167 198.463 -17.9146C182.401 -13.123 168.422 -4.22715 151.776 -0.997976C150.984 -0.841726 151.088 0.304102 151.911 0.262438C166.349 -0.508398 179.307 -9.1959 192.401 -14.4563C208.547 -20.9459 225.755 -21.2792 241.88 -14.9355C243.734 -12.1021 245.578 -9.23756 248.015 -6.83131C232.786 -10.2063 217.318 -15.2792 201.568 -13.3417C187.203 -11.5813 176.39 -2.17506 164.63 5.35619C157.109 10.1791 149.151 13.6374 140.182 14.6374C130.692 15.6999 121.599 13.627 112.432 11.4499C107.578 10.2937 101.963 9.02285 96.2862 8.44994C99.9112 7.9916 103.63 7.83535 107.453 7.87702C118.526 7.9916 130.474 9.37702 140.901 4.83535C141.442 4.60619 141.286 3.62702 140.64 3.77285C127.724 6.61661 115.297 4.76244 102.265 4.71035C94.9529 4.6791 87.1925 5.48119 80.63 8.7416C80.7654 8.57494 80.88 8.39785 80.9842 8.18952ZM77.9842 9.63744C78.1508 9.63744 78.3175 9.62702 78.4946 9.63744C78.6612 9.65827 78.8175 9.64785 78.9737 9.62702C78.4529 9.9291 77.9425 10.252 77.4425 10.5854C77.1925 10.6999 76.9321 10.7937 76.6821 10.9083C77.1092 10.4708 77.5467 10.0541 77.9842 9.63744ZM96.3175 11.2833C104.057 11.6583 111.609 13.5749 119.203 14.9604C133.713 17.5958 147.453 17.0333 160.588 9.69994C173.734 2.3666 184.484 -9.22715 199.807 -12.1646C216.161 -15.2896 232.37 -9.27923 248.349 -6.48756C248.443 -6.38339 248.536 -6.27923 248.64 -6.17506C251.318 -3.74798 254.495 -2.16465 257.89 -1.20631C254.328 0.616602 250.484 1.71035 246.38 1.91869C240.765 2.18952 235.745 -0.0604763 230.568 -1.92506C223.151 -4.60215 215.401 -7.01881 207.453 -7.2584C191.484 -7.72715 180.213 2.69994 168.807 12.3458C154.932 24.0854 137.255 31.127 119.526 23.1479C111.692 19.627 105.067 14.0437 96.3175 12.8458C90.3592 12.0333 84.4112 12.8458 78.6092 14.252C84.255 12.0749 89.8383 10.9708 96.3175 11.2833ZM82.3175 18.2937C89.5987 16.8979 96.7862 16.8666 104.255 19.8979C112.39 23.2104 119.661 27.1062 128.474 28.4604C137.682 29.877 146.734 29.0854 155.151 26.1583C163.286 29.5333 172.13 30.2416 180.557 32.752C185.265 34.1479 189.807 35.9812 194.13 38.3145C198.422 40.627 202.224 44.0541 206.693 45.9187C206.87 46.002 207.068 45.7937 206.943 45.6166C201.974 38.9395 191.255 34.9187 183.672 32.3458C174.963 29.3874 165.62 28.7208 157.047 25.4499C160.026 24.2833 162.922 22.8458 165.713 21.1374C169.557 22.252 173.557 22.8874 177.442 23.8562C179.057 24.2624 192.724 28.7624 192.765 28.7208C192.713 28.7729 192.765 28.8562 192.828 28.8458C193.317 28.7833 193.817 28.7312 194.307 28.6791C194.89 28.6062 195.088 27.7312 194.495 27.502C186.057 24.2729 176.765 21.1687 167.672 19.8666C168.547 19.2729 169.401 18.6479 170.255 18.002C172.057 18.2937 173.88 18.5541 175.672 18.9395C177.578 19.3458 179.63 20.2729 181.505 19.5749C181.609 19.5333 181.661 19.3979 181.588 19.3145C180.411 17.8041 178.297 17.5749 176.495 17.1583C175.151 16.8562 173.765 16.5645 172.38 16.3249C174.463 14.627 176.474 12.8458 178.505 11.0854C191.203 12.3874 203.411 15.1999 215.703 18.9812C215.974 19.0541 216.172 18.6791 215.89 18.5645C204.588 13.6895 192.37 10.8874 180.088 9.72077C182.109 7.9916 184.161 6.31452 186.328 4.78327C195.828 5.01244 205.245 6.28327 214.578 8.2416C214.703 8.26244 214.724 8.07494 214.609 8.03327C205.703 5.68952 196.692 4.43952 187.567 3.93952C188.151 3.55411 188.724 3.15827 189.328 2.79369C190.62 2.01244 191.953 1.34577 193.307 0.762438C193.474 0.949938 193.703 1.07494 194.005 1.04369C199.87 0.241602 205.213 0.856188 211.026 1.62702C216.64 2.36661 222.599 2.64785 227.588 5.54369C227.745 5.63744 227.89 5.39785 227.755 5.29369C223.036 1.62702 216.995 1.13744 211.286 0.0541019C207.609 -0.633398 203.974 -1.39381 200.318 -1.4459C205.307 -2.48756 210.505 -2.58131 215.64 -2.08131C230.64 -0.622976 244.745 6.59577 258.401 -1.08131C260.276 -0.581312 262.193 -0.258398 264.13 -0.0917263C264.151 0.731188 264.88 1.52285 265.755 1.37702C266.193 1.31452 266.62 1.28327 267.026 1.12702C267.213 1.0541 267.39 0.96036 267.568 0.856188C265.099 6.38744 263.693 12.2729 262.599 18.2729C260.995 16.5541 259.318 14.9083 257.224 13.7937C253.838 11.9916 249.974 11.8874 246.807 9.53327C246.39 9.23119 245.932 9.79369 246.297 10.1583C248.255 12.0854 250.776 12.5958 253.349 13.2833C257.078 14.2937 259.797 16.0854 262.547 18.5333C261.87 22.252 261.307 26.0124 260.682 29.752C254.411 20.8979 243.193 15.9916 233.255 12.6895C232.568 12.4604 232.078 13.4291 232.776 13.7416C243.151 18.4499 252.745 22.3666 260.515 30.7312C259.203 38.3874 257.578 45.9395 254.088 52.8979C251.307 58.4499 247.213 63.4812 242.297 67.5229C236.495 48.1791 216.109 37.9812 199.265 29.7937C198.682 29.5124 198.255 30.4291 198.838 30.7104C207.505 34.9187 216.255 39.1895 223.963 45.0229C232.203 51.2624 237.515 58.7104 241.89 67.8458C233.818 74.3249 223.599 78.1374 213.286 77.2416C208.755 76.8458 204.474 75.3249 200.14 74.0541C196.87 73.0958 193.63 72.502 190.328 72.1166C188.297 69.7416 185.609 67.7937 183.047 66.252C182.547 65.9499 182.182 66.7729 182.672 67.0749C184.995 68.4812 186.932 70.1687 188.817 71.9604C187.651 71.8458 186.463 71.752 185.265 71.6895C176.401 71.1791 168.422 69.7104 160.588 65.3249C150.234 59.5333 141.765 51.0437 133.005 43.0333C143.797 47.1791 155.224 49.8562 165.255 55.9812C165.401 56.0645 165.547 55.8249 165.411 55.7208C159.463 51.0645 152.692 48.2208 145.62 45.627C139.703 43.4604 133.953 41.2312 128.224 38.752C127.067 37.752 125.901 36.7624 124.713 35.8041C111.974 25.4604 97.7862 20.4083 82.3175 18.2937ZM-3.32835 207.169C-1.63043 202.169 -1.90126 196.137 -2.63043 191.304C-3.5471 185.283 -5.63043 179.648 -7.93251 174.075C-4.69293 175.94 -1.08876 177.19 1.97374 179.387C5.5779 181.95 8.2029 185.346 10.3383 189.148C6.48415 195.408 1.35915 201.273 -3.32835 207.169ZM10.9842 188.127C9.18207 184.492 6.3279 181.335 3.09874 178.908C-0.515846 176.2 -4.9221 174.887 -8.63043 172.398C-9.07835 171.335 -9.52626 170.273 -9.97418 169.21C-8.37001 170.054 -6.6721 170.71 -4.99501 171.387C-2.46376 172.408 0.0154037 173.523 2.33832 174.992C6.43208 177.596 9.86957 181.033 12.7237 184.95C12.1925 186.023 11.5987 187.085 10.9842 188.127ZM12.9321 184.533C10.4633 180.544 7.08832 177.158 3.18207 174.554C-1.03668 171.731 -5.93251 170.221 -10.4742 168.012C-10.7138 167.429 -10.9429 166.846 -11.1825 166.252C-6.71376 168.46 -1.89085 169.877 2.47374 172.315C5.09874 173.762 7.50498 175.617 9.60915 177.752C10.755 178.919 11.8279 180.169 12.7967 181.481C13.1092 181.908 13.4008 182.398 13.6925 182.887C13.4529 183.44 13.2029 183.992 12.9321 184.533ZM16.005 165.94C16.9842 171.856 16.0258 177.242 13.9321 182.304C13.7133 181.992 13.4946 181.69 13.2862 181.398C12.4633 180.221 11.5675 179.085 10.5779 178.033C8.6404 175.95 6.42165 174.117 3.99457 172.617C-0.849178 169.596 -6.43251 168.117 -11.4742 165.523C-15.1304 156.21 -17.5367 146.846 -18.4533 137.283C-12.7554 138.21 -7.2971 139.804 -2.22418 142.7C3.29665 145.835 7.47374 150.075 12.0154 154.356C13.8279 158.054 15.3279 161.856 16.005 165.94ZM9.69249 149.887C2.94249 141.71 -8.37001 136.669 -18.5992 135.554C-18.7763 133.408 -18.87 131.252 -18.8908 129.085C-10.3596 132.471 0.234154 136.2 6.19249 143.429C7.3279 145.585 8.52582 147.731 9.69249 149.887ZM4.37999 139.752C4.46332 139.94 4.54665 140.117 4.62999 140.294C2.43207 138.106 -0.370014 136.377 -2.90126 134.846C-7.72418 131.919 -13.3284 129.283 -18.8908 127.929C-18.8804 125.533 -18.7867 123.127 -18.5783 120.7C-10.0783 123.429 -3.3596 129.252 2.68207 135.731C3.21332 137.085 3.7654 138.429 4.37999 139.752ZM-2.15126 114.075C-1.75543 120.804 -0.317928 127.512 1.98415 133.877C-3.62001 127.367 -10.1408 122.023 -18.4638 119.419C-18.2138 116.846 -17.8596 114.252 -17.3804 111.627C-15.4742 101.19 -12.0784 91.1687 -7.8596 81.4708C-6.56793 86.4499 -4.16168 91.4395 -0.224182 94.6791C-1.77626 100.867 -2.5471 107.283 -2.15126 114.075ZM1.40082 89.0749C0.92165 90.5333 0.494568 91.9916 0.0987358 93.4708C-0.911682 91.7624 -2.70335 90.1583 -3.71376 88.6374C-5.43251 86.0333 -6.6096 83.2624 -7.33876 80.2937C-6.7971 79.0541 -6.2346 77.8145 -5.66168 76.5958C-5.22418 78.2416 -4.55751 79.8562 -3.90126 81.127C-2.57835 83.6583 -0.817932 87.1166 1.40082 89.0749ZM2.21332 86.7312C1.24457 84.627 -0.349182 82.6791 -1.47418 80.7416C-2.8596 78.3562 -3.06793 75.5854 -3.99501 73.0958C-3.56793 72.1999 -3.12001 71.3145 -2.6721 70.4291C-2.07835 72.2208 -1.3596 73.9708 -0.547096 75.6374C0.359154 77.502 1.91124 81.1479 4.08832 81.9499C3.42165 83.5333 2.79665 85.127 2.21332 86.7312ZM27.6717 18.6374C29.3175 33.627 21.5779 48.9604 14.2446 61.9291C10.755 68.1062 7.40082 74.2937 4.6404 80.627C3.91124 78.9187 2.0154 77.2729 1.10915 75.8354C-0.317928 73.6062 -1.25543 71.3354 -1.91168 68.9187C0.213322 64.7624 2.44249 60.6583 4.72374 56.6062C9.31749 48.4499 16.3279 42.4499 21.2133 34.5749C24.1612 29.8145 26.4946 24.2937 27.6717 18.6374ZM-36.7138 79.4395C-31.7971 72.752 -25.7346 67.1583 -22.4221 59.4187C-19.0367 51.4812 -17.62 42.377 -12.0679 35.5229C-5.02626 26.8249 5.00498 30.627 14.2133 27.2104C16.8383 26.2416 19.1404 24.7624 21.1092 22.9395C19.6092 28.0333 17.2967 32.7729 13.5467 37.3354C7.69248 44.4708 2.37999 50.8249 -2.03668 59.0124C-4.53668 63.627 -6.93251 68.3354 -9.15126 73.1374C-15.2138 72.1895 -21.2867 73.5645 -27.0054 75.6374C-30.0575 76.7416 -33.9325 77.9083 -37.0054 79.8458C-36.9013 79.7104 -36.8075 79.5645 -36.7138 79.4395ZM-39.5263 83.5541C-31.4221 77.8562 -19.8492 74.3249 -9.97418 74.9291C-11.4846 78.2624 -12.8908 81.6479 -14.2138 85.0541C-21.1304 84.9812 -37.8804 85.2729 -42.9117 89.2416C-41.8388 87.2833 -40.7138 85.3874 -39.5263 83.5541ZM-44.3388 91.9916C-44.3283 92.1687 -44.3075 92.3562 -44.2658 92.5541C-44.2346 92.6583 -44.1096 92.6687 -44.0263 92.627C-35.5992 87.3562 -24.7971 87.502 -14.9638 87.0333C-15.6825 88.9604 -16.3596 90.9083 -16.995 92.8562C-23.8179 92.8041 -30.7658 94.0541 -37.3075 95.7833C-40.3908 96.5958 -45.4325 97.5437 -47.9325 100.179C-46.87 97.377 -45.6721 94.6374 -44.3388 91.9916ZM-52.5679 135.887C-54.1617 125.44 -52.7138 114.346 -49.2658 103.908C-49.1825 103.919 -49.0992 103.898 -49.0575 103.835C-42.1096 95.7208 -28.1617 95.2833 -17.5263 94.502C-19.1304 99.5958 -20.4742 104.762 -21.4429 110.012C-22.5054 115.742 -23.12 121.575 -23.2242 127.408C-23.4429 127.544 -23.5992 127.773 -23.6096 128.117C-23.8492 135.012 -29.4533 137.762 -34.4117 141.252C-37.37 143.335 -39.9013 145.783 -42.0471 148.69C-44.2138 151.606 -45.62 154.367 -45.8179 157.273C-49.0679 150.398 -51.4533 143.19 -52.5679 135.887ZM-44.8492 159.273C-44.995 158.419 -45.0679 157.554 -45.0158 156.7C-44.8388 154.002 -42.8179 151.44 -41.1721 149.419C-38.4117 146.023 -34.8908 143.627 -31.2658 141.273C-28.0575 139.179 -24.9325 136.867 -23.1304 133.721C-23.1096 134.19 -23.0992 134.658 -23.0679 135.117C-23.1929 135.21 -23.2763 135.356 -23.3179 135.554C-24.8804 145.606 -35.4742 150.846 -38.6825 160.429C-39.5783 163.085 -39.9325 165.846 -39.6304 168.481C-41.5158 165.502 -43.2658 162.419 -44.8492 159.273ZM-38.3284 170.492C-39.9742 163.315 -35.4221 156.023 -30.3284 150.419C-27.7346 147.575 -24.0888 144.471 -22.5367 140.762C-22.3388 142.283 -22.1096 143.804 -21.8179 145.315C-21.9221 145.387 -22.0158 145.471 -22.0992 145.596C-25.8179 151.544 -30.3284 156.252 -32.4117 163.169C-33.7554 167.648 -34.3283 172.7 -33.37 177.367C-35.0888 175.158 -36.745 172.856 -38.3284 170.492ZM-27.4742 184.377C-28.12 183.669 -28.7554 182.95 -29.3908 182.221C-29.2867 181.981 -29.2867 181.69 -29.4325 181.367C-32.6617 174.304 -33.495 167.502 -30.0992 160.273C-27.9013 155.606 -23.7554 152.273 -21.2971 147.846C-20.4533 151.648 -19.3179 155.387 -17.8596 159.033C-16.7346 161.825 -15.495 164.565 -14.2346 167.294C-14.4742 167.387 -14.6825 167.606 -14.6721 167.94C-14.6513 175.012 -21.9742 184.356 -20.2763 191.867C-22.7346 189.294 -25.245 186.815 -27.4742 184.377ZM-19.5783 192.596C-21.4846 185.231 -13.7763 176.773 -13.3596 169.179C-12.8075 170.387 -12.2658 171.585 -11.7138 172.794C-12.6617 179.387 -18.4325 189.096 -16.3492 196.148C-17.3908 194.94 -18.4742 193.762 -19.5783 192.596ZM-12.8075 200.71C-12.7242 200.606 -12.6929 200.481 -12.7763 200.356C-18.5054 192.106 -12.0575 184.408 -10.2658 176.085C-9.26585 178.45 -8.32835 180.835 -7.52626 183.283C-6.08876 187.7 -5.08876 192.283 -4.9221 196.94C-4.7346 202.283 -6.38043 206.825 -7.32835 211.971C-7.3596 212.127 -7.31793 212.252 -7.25543 212.367C-7.49501 212.7 -7.72418 213.023 -7.95335 213.367C-8.21376 208.762 -10.12 204.596 -12.8075 200.71Z" fill="#8C3038"/>
</g>
</g>
</g>
</g>
</g>
</g>
</svg>
