<svg width="36" height="36" viewBox="0 0 36 36" fill="none" xmlns="http://www.w3.org/2000/svg">
<path fill-rule="evenodd" clip-rule="evenodd" d="M25.5 6H10.5C8.01472 6 6 8.01472 6 10.5V25.5C6 27.9853 8.01472 30 10.5 30H25.5C27.9853 30 30 27.9853 30 25.5V10.5C30 8.01472 27.9853 6 25.5 6ZM10.5 3C6.35786 3 3 6.35786 3 10.5V25.5C3 29.6421 6.35786 33 10.5 33H25.5C29.6421 33 33 29.6421 33 25.5V10.5C33 6.35786 29.6421 3 25.5 3H10.5Z" fill="white"/>
<path fill-rule="evenodd" clip-rule="evenodd" d="M13.5 18C13.5 20.4853 15.5147 22.5 18 22.5C20.4853 22.5 22.5 20.4853 22.5 18C22.5 15.5147 20.4853 13.5 18 13.5C15.5147 13.5 13.5 15.5147 13.5 18ZM18 10.5C13.8579 10.5 10.5 13.8579 10.5 18C10.5 22.1421 13.8579 25.5 18 25.5C22.1421 25.5 25.5 22.1421 25.5 18C25.5 13.8579 22.1421 10.5 18 10.5Z" fill="white"/>
<path d="M27 9C27 9.82843 26.3284 10.5 25.5 10.5C24.6716 10.5 24 9.82843 24 9C24 8.17157 24.6716 7.5 25.5 7.5C26.3284 7.5 27 8.17157 27 9Z" fill="white"/>
</svg>
