<svg width="36" height="36" viewBox="0 0 36 36" fill="none" xmlns="http://www.w3.org/2000/svg">
<path d="M28.5 7.3125C25.6875 4.5 22.125 3 18 3C9.9375 3 3.1875 9.75 3.1875 17.8125C3.1875 20.4375 3.9375 23.0625 5.25 25.3125L3 33L10.875 30.9375C13.125 32.0625 15.5625 32.8125 18 32.8125C26.25 32.8125 32.8125 26.0625 32.8125 18C33 13.875 31.3125 10.125 28.5 7.3125ZM25.3125 23.25C24.9375 24.1875 23.4375 24.9375 22.875 24.9375C22.3125 25.125 20.4375 24.9375 18.375 24C14.625 22.3125 12.1875 18.5625 12 18.375C11.8125 18.1875 10.5 16.3125 10.5 14.625C10.5 12.9375 11.4375 11.8125 11.8125 11.4375C12.5625 10.6875 14.0625 10.875 14.4375 11.625C14.625 12.375 15.375 14.25 15.5625 14.4375C15.75 14.625 15.75 15.375 15.1875 15.75C15 15.75 14.0625 16.5 14.4375 17.0625C14.625 17.4375 15.375 18.5625 16.5 19.6875C18 21 19.125 21.375 19.5 21.5625C19.875 21.75 20.0625 21.75 20.25 21.375C20.4375 21.1875 21.1875 20.25 21.375 19.875C21.5625 19.5 21.9375 19.5 22.125 19.6875C22.3125 19.875 24.375 20.625 24.75 20.8125C25.125 21.1875 25.5 21.1875 25.5 21.375C25.6875 21.5625 25.6875 22.3125 25.3125 23.25Z" fill="white"/>
</svg>
